/* XPM */
static char *_6760df316104093ced276e3680a15f26JdACYoA59IWxB5V[] = {
/* columns rows colors chars-per-pixel */
"64 64 200 2 ",
"   c #1F1513",
".  c #211614",
"X  c #251917",
"o  c #291B17",
"O  c #271B18",
"+  c #2A1D1A",
"@  c #311F1C",
"#  c #2B201E",
"$  c #35221E",
"%  c #3A241F",
"&  c #332422",
"*  c #3B2622",
"=  c #3B2D2A",
"-  c #3E2A25",
";  c #3F312F",
":  c #3F3230",
">  c #442A25",
",  c #4A2C26",
"<  c #4A2E29",
"1  c #432B27",
"2  c #512F28",
"3  c #4A312D",
"4  c #47312D",
"5  c #53332C",
"6  c #5A352D",
"7  c #5E382F",
"8  c #4C3531",
"9  c #4E3D3B",
"0  c #463938",
"q  c #573730",
"w  c #5D3B34",
"e  c #533D39",
"r  c #553B36",
"t  c #61362D",
"y  c #63382F",
"u  c #69382E",
"i  c #643D34",
"p  c #6B3D32",
"a  c #633F38",
"s  c #4C403E",
"d  c #6B4136",
"f  c #6C443B",
"g  c #634038",
"h  c #734236",
"j  c #74453A",
"k  c #7B4639",
"l  c #7D493C",
"z  c #534441",
"x  c #5D4A47",
"c  c #5B4D4B",
"v  c #564846",
"b  c #604B47",
"n  c #764C42",
"m  c #7C4C41",
"M  c #68524E",
"N  c #71524C",
"B  c #7C554C",
"V  c #615654",
"C  c #685855",
"Z  c #675B5A",
"A  c #6D5956",
"S  c #7E5C55",
"D  c #6C6462",
"F  c #7A6E6C",
"G  c #766B69",
"H  c #79716F",
"J  c #7E7472",
"K  c #834B3D",
"L  c #894E3F",
"P  c #844F41",
"I  c #884E40",
"U  c #855144",
"Y  c #8C5344",
"T  c #8C5A4D",
"R  c #88574B",
"E  c #935545",
"W  c #955847",
"Q  c #945A4A",
"!  c #9C5D4B",
"~  c #915748",
"^  c #8D5D51",
"/  c #805D56",
"(  c #955E51",
")  c #A05F4D",
"_  c #9F614F",
"`  c #82615B",
"'  c #8A6157",
"]  c #9D6353",
"[  c #976558",
"{  c #A3614E",
"}  c #A46452",
"|  c #AA6652",
" . c #AD6955",
".. c #AD6C59",
"X. c #A46A5A",
"o. c #B26B56",
"O. c #B46E59",
"+. c #B5715C",
"@. c #BB735D",
"#. c #9A6E63",
"$. c #83726F",
"%. c #8D746F",
"&. c #867977",
"*. c #977B74",
"=. c #B67561",
"-. c #BC7661",
";. c #BD7863",
":. c #B37868",
">. c #A97E72",
",. c #C37B64",
"<. c #C87F67",
"1. c #C67F68",
"2. c #C97F68",
"3. c #C07760",
"4. c #A48077",
"5. c #BA8576",
"6. c #C6826C",
"7. c #CC836C",
"8. c #D0876F",
"9. c #CE8770",
"0. c #CF8871",
"q. c #D48C74",
"w. c #D88F77",
"e. c #D58C75",
"r. c #D5917B",
"t. c #DB947C",
"y. c #888180",
"u. c #958684",
"i. c #958987",
"p. c #948B8A",
"a. c #9A8F8D",
"s. c #9E8A85",
"d. c #98918F",
"f. c #9F9492",
"g. c #A18680",
"h. c #B38C81",
"j. c #B7948B",
"k. c #AB9B98",
"l. c #A49997",
"z. c #BB9A93",
"x. c #AEA19E",
"c. c #B9A19B",
"v. c #ACA4A3",
"b. c #B3A4A2",
"n. c #B3ACAB",
"m. c #BAAFAC",
"M. c #B3A9A7",
"N. c #BFB1AF",
"B. c #BDB5B4",
"V. c #DF9981",
"C. c #DD9780",
"Z. c #CB9585",
"A. c #E29B84",
"S. c #C3A39A",
"D. c #D6A798",
"F. c #E6A28A",
"G. c #E9A58E",
"H. c #EAA790",
"J. c #CBB4AD",
"K. c #D9B9AE",
"L. c #C3BCBB",
"P. c #C7BBB9",
"I. c #D6BDB6",
"U. c #C7AEA7",
"Y. c #CBC1BF",
"T. c #CBC3C2",
"R. c #CEC9C8",
"E. c #C5C0C0",
"W. c #D3CCCB",
"Q. c #DACFCC",
"!. c #D8C8C4",
"~. c #DBD0CE",
"^. c #D6D0CF",
"/. c #D6D2D1",
"(. c #DBD5D4",
"). c #DCD8D7",
"_. c #DEDBDB",
"`. c #E5D4CF",
"'. c #E1DDDC",
"]. c #E6D9D5",
"[. c #E4E1E1",
"{. c #EAE6E5",
"}. c #EAE8E7",
"|. c #EEEEED",
" X c #F1EFEF",
".X c #F1F0EF",
"XX c #F0EFF0",
"oX c #EFF0F0",
"OX c gray94",
"+X c #F1F1F1",
"@X c #F1F0F0",
"#X c gray95",
"$X c #F3F3F3",
"%X c #F3F3F3",
"&X c #F2F1F2",
"*X c #F4F4F4",
"=X c #F5F5F5",
"-X c #F6F6F6",
";X c #F2F2F2",
":X c #F8F8F8",
/* pixels */
":X|.*X|.*X|.*X|.*XOXOXOXOXOXOX*XOX*X|.*X|.*X|.*X|.*X|.*X|.*XOX-XOX*XOXOXOXOX$XOX*XoX*X|.*X|.*X|.*X|.*X|.*X|.*XOX*XOXOXOXOXOXOX*X",
"*XOXOXOXOXOXOXOXOXOXOXOXOXOXOXOXOXOXOX*XOXOXOX*XOXOXOX*XOX*XOXOX|.OX*X*X*XOXOXOX$XOX*XOXOXOXOXOX*XOXOXOXOXOXOXOXOXOXOXOXOXOXOX*X",
"|.*XOXOXOX*XOX*XOXOXOXOXOXOXOXOXOXOX*XOXOXOX*X|.*X|.OXOX*X|.{.).).[.|.OXOXOXOXOXOXOXOXOXOXOX|.*XOX*XOXOXOX*XOX*XOXOXOXOXOXOXOXOX",
"OXOXOXOXOXOXOXOXOXOXOXOXOXOXOXOXOXOXOXOXOXOXOXOXOXOX*X|.[.T.v.a.p.l.B.R._.|.$X*XOXOXOXOXOXOXOXOXOXOXOXOXOXOXOXOXOXOXOXOXOXOXOXOX",
"*XOX*XOXOXOXOXOX*XOXOXOXOXOXOX*XOXOXOX*XOX*XOXOXOXOX}.).B.u.C 9 0 c G i.n.W.[.|.OXOXOXOXOXOX*XOX*XOX*XOXOXOXOXOX*XOXOXOXOXOXOX*X",
"OXOXOXOXOXOXOXOXOXOXOXOXOXOXOXOXOXOXOXOXOXOXOXOX*X}.L.a.F x = + + & : z Z &.l.T. XOXOXOXOXOXOXOXOXOXOXOXOXOXOXOXOXOXOXOXOXOXOXOX",
"|.OXOX*XOXOXOXOXOXOXOXOXOXOXOXOXOXOXOXOX*XOX*XOXXXR.u.M 8 $ X . .   . X + ; c p._.*XOX*XOX$XOX*XOXOXOX*XOXOXOXOXOXOXOXOXOXOXOXOX",
"OXOX*XOXOXOXOXOXOXOXOXOXOXOXOXOXOXOXOXOXOX*XOX*X).i.M e * + X X .       . O & z B.OXOXOXOXOX*XOXOXOX*XOXOXOXOXOXOXOXOXOXOXOXOXOX",
"OXOX*XOXOXOXOXOXOXOXOXOXOXOXOXOXOXOXOXOXOXOXOX|.m.C 8 4 @ X X X . . . .       + a.|.OXOX*XOX*XOXOXOXOXOXOXOXOXOXOXOXOXOXOXOXOXOX",
"OXOXOXOXOX*XOXOXOXOXOXOXOXOXOXOXOXOX*XOXOXOX$X).$.8 1 & X . . . . . . . .     X H }.OX*XOXOXOXOXOXOXOXOXOX*XOXOXOXOXOXOXOXOXOXOX",
"OXOXOXOXOXOXOXOXOXOXOXOXOXOXOXOXOXOXOXOXOXOX|.M.x - $ O . . X X X X . . .     . V [.OXOXOXOXOXOXOXOXOXOXOXOXOXOXOXOXOXOXOXOXOXOX",
"*XOX*XOX*XOXOXOXOXOXOXOXOXOXOXOXOXOXOXOXOXOX'.$.4 $ + . X @ % $ $ @ o X X . . . s /.OXOXOXOX*XOX*XOX*XOX*XOXOXOXOXOXOXOXOXOXOX*X",
"OXOXOXOXOXOXOXOXOXOXOXOXOXOXOXOXOXOXOXOXOXOXB.b & + . o > 7 i i 6 , % @ $ @ X . = B.OXOXOXOXOXOXOXOXOXOXOXOXOXOXOXOXOXOXOXOXOXOX",
"OXOXOXOXOXOXOXOXOXOXOXOXOXOXOXOXOXOXOXOXOX}.i.4 + . X > p Y Q Q I h 6 , 2 < * O # p.}.OXOXOXOXOXOXOXOXOXOXOXOXOXOXOXOXOXOXOXOXOX",
"OXOXOXOXOXOXOXOXOXOXOXOXOXOXOXOXOXOXOXOXOX).A * O . $ j _ O.@.-.+.! l h h k d - X Z ).OXOXOXOXOXOXOXOXOXOXOXOXOXOXOXOXOXOXOXOXOX",
"OXOXOXOXOXOXOXOXOXOXOXOXOXOXOXOXOXOXOXOXOXY.e + X + 5 { 3.2.7.8.7.@.! ~ Y ! ~ r + 0 L.OXOXOXOXOXOXOXOXOXOXOXOXOXOXOXOXOXOXOXOXOX",
"OXOXOXOXOXOXOXOXOXOXOXOXOXOXOXOXOXOXOXOXOXM.= X X * m +.<.7.8.q.q.,.o.| { | } B & & v.OXOXOXOXOXOXOXOXOXOXOXOXOXOXOXOXOXOXOXOXOX",
"OXOXOXOXOXOXOXOXOXOXOXOXOXOXOXOXOXOXOXOXOXl.& . X < Q 3.7.7.q.t.t.q.,.3.+.O. .^ 3 + p.|.OXOXOXOXOXOXOXOXOXOXOXOXOXOXOXOXOXOXOXOX",
"OXOXOXOXOXOXOXOXOXOXOXOXOXOXOXOXOXOXOXOXOXa.+ . + q ] 3.7.q.t.A.F.C.q.7.,.@.O.] g + &.|.OXOXOXOXOXOXOXOXOXOXOXOXOXOXOXOXOXOXOXOX",
"OXOXOXOXOXOXOXOXOXOXOXOXOXOXOXOXOXOXOXOX|.d.+ . + w ] 3.7.q.t.F.G.F.A.t.7.3.O.} n $ J |.OXOXOXOXOXOXOXOXOXOXOXOXOXOXOXOXOXOXOXOX",
"*XOXOXOXOXOXOXOXOXOXOXOXOXOXOXOXOXOXOXOXOXl.# . + 6 Q 3.8.t.V.F.H.H.G.V.q.3.o.{ P - F }.OXOXOXOXOXOXOXOXOXOXOXOXOXOXOXOXOXOXOXOX",
"OXOXOXOXOXOXOXOXOXOXOXOXOXOXOXOXOXOXOXOXOXn.& . + 5 Q ,.q.w.t.A.G.H.F.A.q.3.o.{ U 3 G }.OXOXOXOXOXOXOXOXOXOXOXOXOXOXOXOXOXOXOXOX",
"OX*XOX*XOXOXOXOXOXOXOXOXOXOXOXOXOXOXOXOX$XE.= . + 5 T ,.q.w.t.A.F.G.F.t.q.,.+.{ Y q G }.OX$XOX$XOX*XOX*XOXOXOXOXOXOXOXOXOXOXOXOX",
"*XOXOXOXOXOXOXOXOXOXOXOXOXOXOXOXOXOXOX*XOX/.0 . X > Y ,.q.t.t.A.F.H.F.t.t.7.3. .~ w F }.OXOXOXOXOXOXOXOXOXOXOXOXOXOXOXOXOXOXOX*X",
"OXOXOXOXOXOXOXOXOXOXOXOXOXOXOXOXOXOXOXOXOX_.v . X , Q ,.q.w.t.A.G.H.F.t.t.q.<...Y g J }.OXOXOXOXOXOXOXOXOXOXOXOXOXOXOXOXOXOXOXOX",
"OX*XOXOXOXOXOXOXOXOXOXOXOXOXOXOXOXOXOXOXOX[.V . + 6 _ -.7.q.t.A.G.G.A.t.t.t.1.} m a &.|.OX*XOX*XOX*XOXOXOXOXOXOXOXOXOXOXOXOXOXOX",
"OXOXOXOXOXOXOXOXOXOXOXOXOXOXOXOXOXOXOXOXOX{.D . $ k | @.,.q.r.q.r.t.w.q.q.9.O.P i i u.|.OXOXOXOXOXOXOXOXOXOXOXOXOXOXOXOXOXOXOXOX",
"*XOXOXOX*XOX*XOXOXOXOXOXOXOXOXOXOX$XOXOXOX|.H O < Q O.+.3.7.6.+...;.,.2.,.@.Q 7 5 w f.|.*XOX*XOX*XOXOXOX*XOX*XOXOXOXOXOXOXOXOX*X",
"OXOXOXOXOXOXOXOXOXOXOXOXOXOXOXOXOXOXOXOXOX|.y.+ 5 } @.+.+.-...! U ~  .-.O.! K p 6 w k.OXOXOXOXOXOXOXOXOXOXOXOXOXOXOXOXOXOXOXOXOX",
"|.*XOX*XOX*XOXOXOXOXOXOXOXOXOXOX$XOX*XOXOX}.u.$ 5 } +.+.O.} ! Y h p Q +.| K l k t i x.OXOXOXOXOXOX*XOX*XOX*XOXOXOXOXOXOXOXOXOXOX",
"*XOXOXOXOXOXOXOXOXOXOXOXOXOXOXOXOXOXOXOX X`.*.* 5 { @.@.o.! } ] K u K ;.} j l j 6 i b. XOXOXOXOXOXOXOXOXOXOXOXOXOXOXOXOXOXOXOXOX",
"*XOXOXOXOXOXOXOXOXOXOXOXOXOXOXOXOXOXOX$X|.J.[ > 5 ! +.@. .! } X.m u I 7...j I f 5 a b.|.OXOXOXOX*XOX*XOXOXOXOXOXOXOXOXOXOXOXOX*X",
"OXOX|.OXOXOXOXOXOXOXOXOXOXOXOXOXOXOXOXOX.Xj.Y w 5 ! +.@. .! Q T i d } q.;.K Y f 5 f m.OXOX*XOXOXOXOX|.*XOXOXOXOXOXOXOXOXOXOXOXOX",
"OXOXOXOXOXOXOXOXOXOXOXOXOXOXOXOXOXOXOXOX Xh.E p 5 ! O.@.O.} ! Q d U @.t.7.Y Y f i n P.OXOXOXOXOXOX*XOXOXOXOXOXOXOXOXOXOXOXOXOXOX",
"*X|.*XOXOXOX*XOX*XOXOXOXOXOXOX*XOXOXOX*X|.S.! p 7 ! o.3.3.+.+.} Y | 7.t.q.! I k k T Y.XX$X|.*X|.*X|.*XOXOXOXOXOX*XOXOXOXOXOXOX*X",
"OXOXOXOXOXOXOXOXOXOXOXOXOXOXOXOXOXOXOXOXOXK.| j i Q o.3.7.7.,.O.| 6.q.w.r.} W Y ~ [ W.OXOXOXOXOXOXOXOXOXOXOXOXOXOXOXOXOXOXOXOXOX",
"|.*XOXOXOXOXOX*XOXOXOXOXOXOXOXOX*XOX*XOX*X!.+.K j Q  .,.q.q.7.,.,.t.t.q.t.O.} } } X.~.$XOXOX.X*X|.*XOXOXOX*XOXOXOXOXOXOXOXOXOXOX",
"*XOXOXOXOXOXOXOXOXOXOXOXOXOXOXOXOXOXOXOXOX].6.{ Q !  .3.q.q.q.q.r.V.w.8.t.-.O.+. .[ ~.OXOXOXOXOXOXOXOXOXOXOXOXOXOXOXOXOXOXOXOXOX",
"*XOXOXOXOXOX*XOX*XOXOXOXOXOXOX*XOX*XOXOXOX{.Z.+.| } | @.7.q.t.A.A.t.7.7.t.;.O.3.o.[ Q.OX*XOXOXOX*XOX*XOXOXOXOXOX*XOXOXOXOXOXOX*X",
"OXOXOX*XOXOXOXOXOXOXOXOXOXOXOXOXOXOXOXOXOX}.D.-...| | +.,.7.t.A.A.9.,.7.q.-. .-. .[ Q.$XOX*XOXOXOX*XOX*XOXOXOXOXOXOXOXOXOXOXOXOX",
"|.*XOXOXOXOXOXOXOXOXOXOXOXOXOXOXOXOXOXOXOX XI.6.+.|  .o.@.,.q.t.q.1.@...=.] ! O.{ ^ Q.OXOXOXOX$XOXOXOXOXOXOXOXOXOXOXOXOXOXOXOXOX",
"*XOXOXOXOXOX*XOXOXOXOXOXOXOXOXOXOX*XOXOXOXOX`.r.=.|  .o.@.@.7.7.7.,...k I j I { W R ~.OXOXOXOXOXOXOXOXOXOXOX*XOXOXOXOXOXOXOXOX*X",
"OXOXOXOXOXOXOXOXOXOXOXOXOXOXOXOXOXOXOXOXOXOX{.D.=.}  .o.@.@.3.,.3.2.+.U j t k ! L B (.OX$XOXOXOXOXOXOXOXOXOXOXOXOXOXOXOXOXOXOXOX",
"|.OXOX*XOX*XOXOXOXOXOXOXOXOXOXOXOXOX*XOX*XOX.XK.:._  .o.@.@.@.3.@.7.7...l t k ~ k B (.OXOXOXOX$XOX*XOX*XOX*XOXOXOXOXOXOXOXOXOXOX",
"OXOXOXOXOXOXOXOXOXOXOXOXOXOXOXOXOXOXOXOXOXOXOX].5.! | o.-.,.-.3.3.q.q.7.} K k Y K ' '.OXOXOXOXOXOXOXOXOXOXOXOXOXOXOXOXOXOXOXOXOX",
"*XOX*XOX*XOXOXOXOXOXOXOXOXOXOXOXOXOXOX*XOXOXOX Xz.Q } o.3.8.7.,.7.t.t.q.,.! K Y Y #.'.OX*XOX*XOX*XOX*XOX*XOXOXOXOXOXOXOXOXOXOX*X",
"OXOXOXOXOXOXOXOXOXOXOXOXOXOXOXOXOXOXOXOXOXOXOXOXU.Q !  .@.q.q.7.8.q.9.1.-.! K Y ) >.{.OXOXOXOXOXOXOXOXOXOXOXOXOXOXOXOXOXOXOXOXOX",
"OXOXOXOXOXOXOXOXOXOXOXOXOXOXOXOXOXOXOXOXOXOXOXOXI.( ! | O.7.t.q.8.7.-.+. .! K U  .h.}.OXOXOXOXOXOXOXOXOXOXOXOXOXOXOXOXOXOXOXOXOX",
"OXOXOXOXOXOXOXOXOXOXOXOXOXOXOXOXOXOXOXOXOXOXOXOX!.[ Q { | ,.t.q.7.+.|  .} Y j K ..j.|.OXOXOXOXOXOXOXOXOXOXOXOXOXOXOXOXOXOXOXOXOX",
"OXOXOXOXOXOXOXOXOXOXOXOXOXOXOXOXOXOXOXOXOXOXOXOX].#.~ ! { +.0.q.,.O.) Q U j p l | S.OXOXOXOXOXOXOXOXOXOXOXOXOXOXOXOXOXOXOXOXOXOX",
"OXOXOXOXOXOXOXOXOXOXOXOXOXOXOXOXOXOXOXOXOXOXOXOX{.4.Y Q ! | ;.7.3.+.{ l p 7 6 k ] J.OXOXOXOXOXOXOXOXOXOXOXOXOXOXOXOXOXOXOXOXOXOX",
"OXOXOXOXOXOXOXOXOXOXOXOXOXOXOXOXOXOXOXOXOXOXOXOX Xc.R E W ! } O.@.+.| ~ K h y h ^ T.OXOXOXOXOXOXOXOXOXOXOXOXOXOXOXOXOXOXOXOXOXOX",
"OXOXOXOXOXOXOXOXOXOXOXOXOXOXOXOXOXOXOXOXOXOXOXOXOXT.' U ~ Q Q ! +.O.o.| { U j p / (.OXOXOXOXOXOXOXOXOXOXOXOXOXOXOXOXOXOXOXOXOXOX",
"OXOXOXOXOXOXOXOXOXOXOXOXOXOXOXOXOXOXOXOXOXOXOXOXOX'.g.m K ~ ! { O.O. .) W k p p %.[.OXOXOXOXOXOXOXOXOXOXOXOXOXOXOXOXOXOXOXOXOXOX",
"OXOXOXOXOXOXOXOXOXOXOXOXOXOXOXOXOXOXOXOXOXOXOXOXOX|.N.` m Y } |  .O.{ E K p y f l.|.OXOXOXOXOXOXOXOXOXOXOXOXOXOXOXOXOXOXOXOXOXOX",
"OX*XOXOXOXOXOXOXOXOXOXOXOXOXOXOXOXOXOXOXOXOX*XOXOXOX'.k.S j Y { } | W K k t t N Y.OXOXOXOXOXOXOXOX*XOXOXOXOXOXOXOXOXOXOXOXOXOXOX",
"OXOXOXOXOXOXOXOXOXOXOXOXOXOXOXOXOXOXOXOXOXOXOXOXOXOXOX^.s.S U Y U Y l h i 2 w &.'.OXOXOXOXOXOXOXOXOXOXOXOXOXOXOXOXOXOXOXOXOXOXOX",
"*XOX*XOXOXOXOXOXOXOXOXOXOXOXOXOXOXOXOX*XOXOXOX*XOX*XOX|.^.k.` j i i i 6 , > M B.|.OX$XOXOXOX*XOX*XOX*XOXOXOXOXOXOXOXOXOXOXOXOX*X",
"OXOXOXOXOXOXOXOXOXOXOXOXOXOXOXOXOXOXOXOXOXOXOXOXOXOXOX*X|.W.k.%.N r 5 < 1 z u._.OXOXOXOXOXOXOXOXOXOXOXOXOXOXOXOXOXOXOXOXOXOXOXOX",
"|.*XOX*XOXOXOXOXOXOXOXOXOXOXOXOXOXOX*XOXOXOXOXOXOXOXOXOXOX|.'.L.u.C 9 9 v $.R. XOX$XOX$XOXOXOXOXOX*XOX*XOXOXOXOXOXOXOXOXOXOXOXOX",
"OXOXOXOXOXOXOXOXOXOXOXOXOXOXOXOXOXOXOXOXOXOXOXOXOXOXOXOXOX*XOX[.T.v.p.i.f.L.{.OXOXOXOXOXOXOXOXOXOXOXOXOXOXOXOXOXOXOXOXOXOXOXOXOX",
"*XOX*XOXOXOXOXOXOXOXOXOXOXOXOXOXOX*XOXOXOXOXOX*XOXOXOX*XOX*XOX*XOX}.)./.'.|.$XOX$XOXOXOXOXOX*XOX*XOXOXOXOXOX*XOXOXOXOXOXOXOXOX*X",
"|.OXOXOXOX*XOX*XOXOXOXOXOXOXOXOX*XOXOXOXOXOX*XOXOXOX*XOXOXOXOXOX*XOX X|.OX*XOXOXOXOXOXOXOX*XOX*XOXOXOXOXOX*XOX*XOXOXOXOXOXOXOXOX",
"}.*X|.*X|.*X|.*XOX*XOXOXOXOX*XOX*X|.*X|.*X|.*X|.*X|.*X|.*X|.*X|.OXOX*X*X$XOXOXOX X*X|.*X|.*X|.*X|.*X|.*X|.*XoX*XOX*XOXOXOXOX*X|."
};
