/* XPM */
static char *cd3df1d1b3ba4ba5fcf7f7fe1669e70brKtAlNekH6kBiHf9[] = {
/* columns rows colors chars-per-pixel */
"64 64 256 2 ",
"   c #191D18",
".  c #12130E",
"X  c #281B08",
"o  c #381B07",
"O  c #281C19",
"+  c #341B17",
"@  c #3F0E00",
"#  c #1D231D",
"$  c #192718",
"%  c #1A2604",
"&  c #272309",
"*  c #372308",
"=  c #23251D",
"-  c #2A241C",
";  c #242B1C",
":  c #2C2A1D",
">  c #292514",
",  c #342C1D",
"<  c #372418",
"1  c #24321B",
"2  c #3B301C",
"3  c #161D27",
"4  c #361B24",
"5  c #321D2E",
"6  c #1E2324",
"7  c #1D242A",
"8  c #1D2B2C",
"9  c #192926",
"0  c #1C332A",
"q  c #1D2D34",
"w  c #1A2835",
"e  c #1C3238",
"r  c #232524",
"t  c #2A2524",
"y  c #252C25",
"u  c #2A2C25",
"i  c #23262B",
"p  c #2B252C",
"a  c #252B2D",
"s  c #2A2C2C",
"d  c #332D24",
"f  c #33242A",
"g  c #332C2C",
"h  c #392726",
"j  c #233125",
"k  c #24312B",
"l  c #2B322D",
"z  c #293326",
"x  c #333125",
"c  c #32322C",
"v  c #3A362A",
"b  c #242532",
"n  c #2A2634",
"m  c #252D32",
"M  c #2A2D32",
"N  c #242D3A",
"B  c #2B2B3B",
"V  c #27263A",
"C  c #332B32",
"Z  c #342A38",
"A  c #253234",
"S  c #2C3234",
"D  c #24323A",
"F  c #2B333A",
"G  c #2B3B39",
"H  c #333434",
"J  c #3A3C35",
"K  c #32353A",
"L  c #343A3C",
"P  c #3A3B3A",
"I  c #383634",
"U  c #441A07",
"Y  c #52180E",
"T  c #711C08",
"R  c #452409",
"E  c #532909",
"W  c #593507",
"Q  c #462817",
"!  c #582919",
"~  c #583617",
"^  c #463412",
"/  c #643807",
"(  c #7A3408",
")  c #632E15",
"_  c #6B3917",
"`  c #732E0E",
"'  c #462A29",
"]  c #453729",
"[  c #583927",
"{  c #463935",
"}  c #563231",
"|  c #783A27",
" . c #6E392C",
".. c #3C413D",
"X. c #364128",
"o. c #314218",
"O. c #674309",
"+. c #684118",
"@. c #77471B",
"#. c #77520E",
"$. c #464539",
"%. c #594536",
"&. c #484C30",
"*. c #66472C",
"=. c #784627",
"-. c #7A5527",
";. c #734F38",
":. c #69653A",
">. c #5A4007",
",. c #293744",
"<. c #363943",
"1. c #2D2F48",
"2. c #192442",
"3. c #3B4346",
"4. c #33454E",
"5. c #484A45",
"6. c #554A44",
"7. c #4E5343",
"8. c #58574A",
"9. c #4A4F53",
"0. c #585954",
"q. c #4A5057",
"w. c #665745",
"e. c #675C55",
"r. c #75554B",
"t. c #58614A",
"y. c #5B6259",
"u. c #676356",
"i. c #786757",
"p. c #6D694A",
"a. c #5C6866",
"s. c #6C706F",
"d. c #484862",
"f. c #8C1E13",
"g. c #8C3A05",
"h. c #853619",
"j. c #973A18",
"k. c #8C300D",
"l. c #92372C",
"z. c #A32A0D",
"x. c #894518",
"c. c #985414",
"v. c #924B0B",
"b. c #AB5115",
"n. c #B5680F",
"m. c #8A472E",
"M. c #954B27",
"N. c #9B5627",
"B. c #87473A",
"V. c #984735",
"C. c #8F5731",
"Z. c #A65527",
"A. c #A85838",
"S. c #B15033",
"D. c #9A692F",
"F. c #AD6B28",
"G. c #A8633B",
"H. c #B9673B",
"J. c #B2742E",
"K. c #987016",
"L. c #D75A06",
"P. c #D65417",
"I. c #E75810",
"U. c #D56A0A",
"Y. c #D97A04",
"T. c #D4730C",
"R. c #E67809",
"E. c #E57616",
"W. c #EF6E12",
"Q. c #CF552E",
"!. c #D66829",
"~. c #C9673C",
"^. c #C7773A",
"/. c #D77936",
"(. c #CF702D",
"). c #E96D24",
"_. c #E87526",
"`. c #F97728",
"'. c #E7753A",
"]. c #F36F33",
"[. c #EB5E2E",
"{. c #8D3A4E",
"}. c #9B5449",
"|. c #8D5048",
" X c #A85647",
".X c #BA5645",
"XX c #AF504C",
"oX c #956C4F",
"OX c #AB6445",
"+X c #B9664A",
"@X c #B86956",
"#X c #BB7754",
"$X c #B67048",
"%X c #AB7662",
"&X c #B85B6D",
"*X c #C95A4C",
"=X c #C56949",
"-X c #C96853",
";X c #D46958",
":X c #D8785A",
">X c #CB724C",
",X c #E67349",
"<X c #EF704C",
"1X c #D77765",
"2X c #D16F66",
"3X c #EA7366",
"4X c #CA5B6B",
"5X c #DA8917",
"6X c #F88907",
"7X c #E58719",
"8X c #EA9817",
"9X c #F89817",
"0X c #F28A0E",
"qX c #D8A415",
"wX c #F9A61B",
"eX c #FEBA1A",
"rX c #EFAA0E",
"tX c #CB8838",
"yX c #D48836",
"uX c #D2902F",
"iX c #EB8725",
"pX c #FA8629",
"aX c #F99725",
"sX c #E78736",
"dX c #F88A35",
"fX c #F29830",
"gX c #DBA83B",
"hX c #FDA828",
"jX c #FFB626",
"kX c #FCA939",
"lX c #FDB737",
"zX c #E9AE30",
"xX c #FBC519",
"cX c #F6CB16",
"vX c #FEC927",
"bX c #FDC837",
"nX c #FFD539",
"mX c #EEC72E",
"MX c #BD8E53",
"NX c #D08D4F",
"BX c #E98544",
"VX c #F3914D",
"CX c #D8A555",
"ZX c #FBA947",
"AX c #FDB845",
"SX c #F6AE53",
"DX c #D58C64",
"FX c #FBB26B",
"GX c #FDC646",
"HX c #FCD04E",
"JX c #FFC465",
"KX c #BB991E",
"LX c #787F87",
"PX c #8A97A4",
"IX c #9DA4A5",
"UX c #8F9593",
/* pixels */
"a a a K a M a a i S M a i K i S a a a a M M M a a a m M M s s a a M a a S a i M s M S a a a a a a a m m m a a a s s a s s a a a ",
"M M a a a a a S M a 6 S a a i i a a a a m m M s a a a a M M a a a M a a s a y a a a a s M M M M a a a m a a a a y i y y a a a s ",
"a M i 6 S a a S S a 6 L a a K a m a a a a a a a a a a a a a a a a M M b y M S m M a a M M a a M a a a a a a a a a M a a a m m a ",
"i M M i <.M i a S M a a i a a i M a a a a a a a a a a a a a a a a a M M y H <.S S a a M a i a S a a a a a M M M a M M a a m m a ",
"a S S a 3.S a M a a S i S S i K M M a a a a a a s m a a a m m M a a M m i S L S a a a M M a S 3.M M a a a a M M i a M a a M M M ",
"a M a a K M a M a i M a K a 6 S M M a a a a a a M m a a a m M M a a M a i M S a a a a M a a S L M M M a m a M M M S G M a M M a ",
"a a i a i a i M S S a i i i 3.6 a a a a M M M a M M a a a a s s a k a y a a a a m m m a a a a a S M M s a s s M S L L S a M M a ",
"M a i S i M a M 6 S i a M q.IX9.a a a a M M s a s s a a a a a a y l y y S a i M a a a a M S M r S S M s a a s s 7 M M a a M S M ",
"a a a a M a a M a 6 S S 6 L 9.L a i a S M i i M S M a i a M a y l y a k S y L S M 6 K i a S r P P l p M p s s S a M a a S M a m ",
"a M a a M a a S M i S M 6 M L i M a a M M M K 3.a i a M S M M s # y y k 6 5.L s a K r M s s P 5.s s l 6 s K 3.y a M M a a a a S ",
"i a a a M a i M a a M M i a M i S a a a a a S L a i a S M a a s z y y # 0.5.6 S K   P i r P 0.s r I r p I 5.p s s M y y M M a m ",
"a a a a S M i a a a a M M M a M M a a M a i i a M a a a a a a s z ; $ y.5.# P r p H i p I 0.O g c = c I 7.u u s y M s s S M a a ",
"M M a S L K a a M M a a M a i M a a M S M a a a a M M a a S S a = = y.$.  I r H p s r I e.= t d s = c 0.u s s t s H H l s i i S ",
"M M a S L K a a M M a a M a a M M a a a a a M M a M M a a M a r ; t.$.$ I = u s s t H 0.t t v : : $.5.u c r s y 5.P s y S L A a ",
"a a a a S M i a a a a a M M S M M M a a a a a a M a M M a 6 i l 8.&.; c = c s = p P 6.g d d t d x 8.v = u c r $.5.P 6 r L ..S 9 ",
"y s a a m a a S a a M M a m m 7 m m a a s s M M l r a S M r H 7.7.: u y l u u u ..5.' %.{ - h d 8.= y c y = 5.y.y s a a l k y k ",
"u u a a m m m m 7 m M i a m m D D q A u u x p s z # S i s s 8.$.r i B m k y = J 0.X ! }.} O { 6.c = l u   0.y.  r l 6 l a s a y ",
"u u j a m m m m S L K M M m a q 8 D m r = u H M u y M L   u.7.; u P b b z : { %.X ~ A. X! { 6.I u z y z 5.0.= t s.s.S s i S a m ",
"y j a a m m m m M K H s s s a a u u b <.S 6 n B t c r s t.&.: : 2 X = I h '  .U x.^.Q.S.! %.a 8 k u y 5.a.  c t 0.s.y s i S a a ",
"k a a a a a a s r s p t s s s s , - B s.s.A 7 n C O p 8.%.& < [ E ) ;.!  .B.` H.,X!.!.g.=., A e r u $.0.u u l u   ..6 s a M i a ",
"m m m a a s s s p g g u s s p p h t p a.a.A m S M t 0.$.* E ) V.S.;Xj.Z.*XQ.,X'.).Q.~.M.U < M m t $.u.: u J c = l r S S a a a m ",
"m m m a s s s s p s p u s s y s h h = 9 0 9 M p O e.%.Q E ` H.Q.<XQ.'.'.P.[.].].].~.A.Y Q > # y 7.8.- u : $.s c 5.r H a a a S a ",
"m m m a s p p s t s y a M M a M t g A 0 0 0 Z h ;.+.@.@.` >XQ.<X<X[.I.L.`.`.`.<X,XV.Y + , v $ 7.u.> , : x c c 5.P y a a a M M a ",
"m m m s p p p s M S m m A m a M Z r 8 e 0 r ' ;.G.F.v.g.yX/.'.VXI.).W.pXdX`.).'.~.Y } { : % &.8.> : x $.x = 7...6 H i a a M m M ",
"m m s s p s s s 7 F D w N N m M i M A 9 r < m.:X[.P.U.iXE.fXdX_.E.R.9X9XY.iX).'.z.l.|.' X 7.t.; & ] 8.: x 0.P r s i a i S a m M ",
"m m s p p s s m ,.3 ,.w N N b i n p y d Q OX/.P.I.`.W.aXhXaXT.7X8XwXjXwX7XpX).P.Q.*X|.o ;.w.; = v i.> : s.$.r r S S S M M a m m ",
"m s p p u p s m w ,.PX4.m i C g C 4 ' E G.BX).I.I.pXE.hXlX8X0XhXjXnXvX0XR.W.`.P.P.,X| [ r.Q , c u.> d u.$.  S y i i a m i a M s ",
"m a p p u s s m w 4.PX4.M g h + '  .Y H.BX_.I.W.W.R.aXGXlX8X9XhXeXeXvX6X6XpXU.!.'.Z.-.;.R o ] i.v - u.$.. c S a G m m S a M s i ",
"m m s p u s a m ,.w F i h < U ) C.( b.BX'.`.W.hXkX7XjXGXfXE.W.6XxXvXrX6X9XR._.BXN.-.:.& > ] w.] , u.5.  s H i m m 8 7 a M M M p ",
"m m s s s s a m m m i g < @ ) +X~.b.sXT.dXpXhXGXkX7XaXaXE.L.L.6XxXrXjXlXR.E.SX( W :.% 1 ] u.2 & e.J   I H # A m 7 A G 7 M s M s ",
"m m a s s s a m m L C h U _ A.~.P.dXR.aXwXrXvXjXU.L.).`.`.I.W.0XxXxXjXR.5XSXZ.| w.> > v e.' < p.$.; u l 6 a S m F a.s.M H i s r ",
"m m m s u u s m B m M < Y A.BX/.).U.hXAXwXbXwX8XU.U.W.`.).I.pX8XcXcXY.aXZXtXOX| + d ' i.< , w.&.= r s s a A m 8 7 s.LXa M 6 H s ",
"A m i t x > M V 1.w 8 < l.<XiX5XY.aXlXaXpXdXT.Y.R.9XhX0X`.`.L.hXxXrXwXkXsX^.G.@ + ] i.< & p.$.# C t s S a a F m m m m b M l s y ",
"8 a n s , , Z V 1.,.e < *X].7X8X7XkXkXE.Q.,XBXZXhXbXeX9XW.I.ZX8XeXxXwX7XsX>X_ U } e.< ] p.&.= a i K a 9 A A 7 B K n b M <...H y ",
"8 8 F M - , C n N q F + ~.`.fXkXsX(.b.S.S.Z.J.gXGXnXvXrXW.I.`.Y.vXvXiX/.~.x.@ ~ r.' h 8...$ x g s s s k y a a i i i b b M M a r ",
"k m N b = x r S A 6 S o b.dXJXZXb.b.k.k.h.` / W #.KXHXlXE.`.L.Y.vXwX_.!.T T =.;.[ ' e.5.9 $ t r S 6 k l 9 y l t M S B M i i a S ",
"a A w w c u r S j y f R n.ZXJXJ.( h.l.m.m.m.@.-.O.O.K.HXdXU.Y.jXxX9X).Q.j.OXoX^ %.w.9.w e G s.<.a A y j I z ; J P H s p M B M a ",
"t m e q S = l 9 $ v + ) (.ZXtXv.M.B.}.}.G.C.@.C.|.;.O.c.(.E.hXeXxX0X).Q.1X#X* & p.v B w q ,.IX9.8 8 k l I x x X.l s s s M M b i ",
"s i ,.,.s t a.G $ , U C.NXuXc.x.A.@XXXXX+X>X#X}.{.{.B.` Q.).wXvXeX5X_.,X-XE * p.X.y s y F 8 <.8 A 8 L $.x v $.x x c I H M M M F ",
"g 6 4.4.s P IXy.s X ! #XNXc.c.$X-X-X X@X:X>X1X@X&X{.|.l.f.!.lXxXjX8XsX:Xm.U p.o.$ k y t s t r S 9 3.5.v { ] x : X.c p p C B m 8 ",
"t u 0 8 M M M S p + =.DX>Xx.A.+X:X;Xl.l.+X=X:XV.V.}.|.| j.,X8XeXGXuXNX_ U i.] 1 j $ A y t h - g H 5.{ ] } < d { = c I C p M S 8 ",
"p p y k M M M M B + _ NXA.h.V.-X:X;Xf.T .X1X-Xk.M.@X;. .l.(.Y.vXhXyX/ R i.' d = $ k 4.A u h h h 6.' [ ! Q Q ] x I H H C p s a k ",
"s p y y s M M M V h T NX XV.@X;X*X:X.XXX;X-X*X=XH.A.B.B.k.n.qXvXhXn.E w.{ f ] < a q 4.w F p { %.~ E =.| Y |.i.6.J S s M C p y k ",
"M s u u s M M n V 4 T NX+X@X1X*X*X;X2X2X1X;X;X3X:XA.B.=.b.5XcXvXaXn.-.] M p + h K w w w K I } [ U x.G.A.A.%X;.v z a s M C s y k ",
"m m s u s a a m 1.O @.DX$X+X2X*XS..X-XOXV..X;X;X:X X|._ uXbXcXxXiX^.+.X H M f f t S A l 2 *. ./ K.tX(.,XDX#X[ , t A B B M s k 0 ",
"e m s u a a a a N f ) DXNXg.;X;X-X-XDX@XT T .X1X-XV.B.O.zXnXvXqXyXM.o c 6 <.<.p g : > ^ W D.D.J.gXzXiXsX/.Z.~ < H <.<.B n M k 0 ",
"e q s p a k j k 8 K U H.NXv.-X3X3X*X-X1XV.h.A.:XA.G.@.c.GXjX7X^.-.< d   F w w B I * O.c.n.fX7XkXhXjXAXfX'.Z.E * J G F B B s y 0 ",
"e q M s a k k k A r Q _ NXNXb.:X*XS.V.2X2X@X+X+XA.v.O.gXbXwXBX` * z k A w ,.m u X O.CXZXAXGX9XwXwX6XhXiX/.N.R $.L m b B C a 9 0 ",
"e q a S l a y a m s < R D.FX/.v. XB.V. X@X@X X}.x.( qXnXzXgXG.Y h i a F w D c X #.CXJX(.b.5X5XY.R.U.aXfXF.E [ P B B n s s a k 0 ",
"A m a 6 r t a m G # d * E NXFX^.N.M.c.c.c.c.M.N.F.SXbXmXGXD.U ' Z S m A N i > W CXgXv.v.k.g.uXkXR.pXZXyXx.*.v 6 B B M s u a k 0 ",
"8 A S S l S S 8 m m c x o +.NXSXkXjXjXjXhXlXAXAXSXSXgXtXD.W Q 4 t t y a ,.n O *.CXc.H..XXXl.j.FXE.pX/.NX=.Q t M n M s p s a m A ",
"A m y r r y m A q m 3 u ] o W J.uX8X8X8XzXlXzXgXK.#.O.~ * + ' h c z y S B Z + oXNXc.=X2X4X4Xj.(.dXZX/.G.! h g a s s s p s m m m ",
"S y p c l p a D N w ,.S = , * R _ =.=._ @.-.#.>.o X { Z n B 9 j y ; l a.K M X oXNXH.j.;XXX2Xj.b.ZXVX$X) + { s i y y u p s M m m ",
"a a H 5.5.K a m q e q.,.3 H x , 4 5 5 5 4 < < X x r d.<.2.,.0 $ z y 5.UXq.I + oXNXc.=X-X.XS.g.(.SXF._ U f b a A j y u p M M m m ",
"M a y s g p a M N q q w A G r s n Z 1.1.n M g c g M B w N F 9 l a i r 9.i O < ;.NXF.^.H.+XZ.J.tXNXD.E < Z 7 <.A j j u s s n m m ",
"m m s s s s s M 7 F m m D 8 a S B V V B B n i i s p p K M i u t r K r i M H < * oXMXG.OXC.#XCXCXD.~ < h s m F q.k a s s M M n m ",
"m m m s s p s s a L 7 m F 8 S a a m m n n n B M p g g d f g g t s M a a m s d < R *.oX%XoX|.+.E Q < , d y 8 8 8 m S a t p M b M ",
"m m m M s s s p r i S M a a i a y y a a m b M s M p p p f g C C M m a m m M s d + < < 4 + + < < f f u : j j A A m F M y s s a b ",
"m m m m M s s p H s r t s.s.r y 1 1 j j y y k a k a m N B m m m m m m m m m M s g C C Z Z Z C M Z <.c ; z z 8 m w B M p s s a b ",
"m m m m m M s s t s s u s.s.# l 1 1 j a y k j j k 8 N ,.,.N q 8 m m m m m m m M M n n b n B m m 1.<.K y z z 8 m b B b y s s a m ",
"m m m m m m M s s r s s p S a a u s M n M a y j k y D ,.<.A j k a m a a a a a a M M a a a a A S b <.M 9 k l i M M S M p s s a m ",
"s s a m m m m m K a t s i a A i s s n B n M u y z a a A F m j k a a a a a y a s i i M S l a y y i S m 7 M M a M K P H s s s a m ",
"u s s a m m m m 6 S M a S a 8 A a a m B B n s s u t t y b b s b a a a a y u u s B M i a y y a l j k M B B n s p c c l p M M a A ",
"u u s a m m m m F 7 m a a A A 8 a a m m B m M s t u s p M B B b m a a y u u u s n b b M l s a y ; $ a B V V s u = u u r b m b A "
};
