/* XPM */
static char *_87f844842534427ea6a45359a7c2cb8SkyRCkwZ2gLILUS4[] = {
/* columns rows colors chars-per-pixel */
"32 32 8 1 ",
"  c None",
". c black",
"X c #663931",
"o c #AC3232",
"O c #8F563B",
"+ c #D9A066",
"@ c #D77BBA",
"# c #EEC39A",
/* pixels */
"                                ",
"                                ",
"                                ",
"             ..........         ",
"        ......XXXXXOXX.         ",
"       ...XOXXOOOXXOOX.         ",
"       .XXXOOXXXOX.....         ",
"       ...X........#..          ",
"       .....########..          ",
"        .###########.           ",
"       ..+###.####.#.           ",
"       ..+##########.           ",
"        .+++###@@##..           ",
"        ...+++####..            ",
"       ..............           ",
"      ..oooooooooooo..          ",
"      .oo.oo.....o.oo.          ",
"      .oo.oo.o.o.o.oo.          ",
"      .oo.oo.....o.oo.          ",
"      .oo.ooo.o.oo.oo.          ",
"      .oo.oooooooo.oo.          ",
"      .oo..........oo.          ",
"      ................          ",
"      .##..........##.          ",
"      .... ...... ....          ",
"           ..  ..               ",
"           ..  ..               ",
"           ..  ..               ",
"         ....  ....             ",
"        .....  .....            ",
"        .....  .....            ",
"                                "
};
