/* XPM */
static char *d7c1c964c96e4987fba3bf79d5ec2d6cfbvf4LTCNrLmt1xg[] = {
/* columns rows colors chars-per-pixel */
"64 64 145 2 ",
"   c None",
".  c #000000",
"X  c #0A0202",
"o  c #0B0906",
"O  c #0D0B09",
"+  c #1B0606",
"@  c #100807",
"#  c #140B09",
"$  c #1C0A09",
"%  c #1F120C",
"&  c #250708",
"*  c #250A0A",
"=  c #290C0C",
"-  c #21140E",
";  c #261C12",
":  c #2D1915",
">  c #261F19",
",  c #341E17",
"<  c #361D19",
"1  c #391F1B",
"2  c #2F2416",
"3  c #27211A",
"4  c #2B231C",
"5  c #322517",
"6  c #332618",
"7  c #3B211C",
"8  c #35281B",
"9  c #362D23",
"0  c #382E24",
"q  c #3B3127",
"w  c #3D3228",
"e  c #4A1515",
"r  c #5E1A1A",
"t  c #631C1C",
"y  c #482722",
"u  c #4C2A24",
"i  c #522D26",
"p  c #542F28",
"a  c #553127",
"s  c #573029",
"d  c #5C342B",
"f  c #7F2525",
"g  c #61362F",
"h  c #633B29",
"j  c #6B3F2E",
"k  c #673932",
"l  c #6C3D33",
"z  c #703F34",
"x  c #5C442A",
"c  c #5C4B3B",
"v  c #6C412C",
"b  c #604F3E",
"n  c #734135",
"m  c #7A4735",
"M  c #7E4937",
"N  c #7B5B3A",
"B  c #675442",
"V  c #695644",
"C  c #832525",
"Z  c #8E2929",
"A  c #912A2A",
"S  c #A32F2F",
"D  c #A63030",
"F  c #A93131",
"G  c #B33333",
"H  c #804B37",
"J  c #824D39",
"K  c #875039",
"L  c #8A523A",
"P  c #90563B",
"I  c #93583D",
"U  c #866E57",
"Y  c #876F58",
"T  c #8A7159",
"R  c #A2774A",
"E  c #A57A4D",
"W  c #A57E55",
"Q  c #AA8057",
"!  c #B38353",
"~  c #AE8C6A",
"^  c #B28F6C",
"/  c #B39474",
"(  c #B89777",
")  c #B89778",
"_  c #BE9C7B",
"`  c #CD975F",
"'  c #C29F7E",
"]  c #C3A07E",
"[  c #DEA872",
"{  c #E4A96D",
"}  c #E3AB73",
"|  c #E1AE7C",
" . c #E7B37E",
".. c #C6A380",
"X. c #CAA583",
"o. c #DEB68F",
"O. c #E9B683",
"+. c #EBB887",
"@. c #EBBD8F",
"#. c #E3BB93",
"$. c #EABE94",
"%. c #E9B59F",
"&. c #ECBE9B",
"*. c #DD8AB5",
"=. c #E29AAE",
"-. c #E7AFA2",
";. c #EBB4A3",
":. c #EDB8A2",
">. c #EEB9A3",
",. c #EFB9A4",
"<. c #F1BBA5",
"1. c #ECC197",
"2. c #EFC193",
"3. c #EEC39A",
"4. c #EEC499",
"5. c #EFC49A",
"6. c #EFC59A",
"7. c #EFC49B",
"8. c #EEC49B",
"9. c #EEC49C",
"0. c #EFC49C",
"q. c #EFC59C",
"w. c #F0C294",
"e. c #F5C597",
"r. c #F0C59B",
"t. c #F1C69B",
"y. c #F0C598",
"u. c #F1C59C",
"i. c #F0C59C",
"p. c #F1C69C",
"a. c #F1C69D",
"s. c #F2C69C",
"d. c #F2C79D",
"f. c #F3C79D",
"g. c #F2C69D",
"h. c #F3C89C",
"j. c #F5C89C",
"k. c #F4C89E",
"l. c #F5C99F",
"z. c #F6C99F",
"x. c #F6CA9F",
"c. c #F4C5A1",
"v. c #F8CBA0",
"b. c #F8CBA1",
"n. c #F9CDA1",
/* pixels */
"                                                                                                                                ",
"                                                                                                                                ",
"                                                                                                                                ",
"                                                                                                                                ",
"                                                                                                                                ",
"                                                                                                                                ",
"                                                    . . . . . . . . . . . . . . . . . . . .                                     ",
"                                                    . X # # # # # # # # # $ % % $ # # # X .                                     ",
"                                . . . . . . . . . . . # 1 u u u u u u u u a h h i u u 1 # .                                     ",
"                                . . . X # $ % % $ # # : d n n n n l k k k n K L M n l u # .                                     ",
"                            . . . . . # 1 a h h i u u d m K K K K H l k k n K I L H n u # .                                     ",
"                            . X # $ # : p n K L M z l n H K K K P K n d i i h v v h a 1 # .                                     ",
"                            . # 7 i i p g n K I L H n l z n n m L K n p : # # % - - $ # X .                                     ",
"                            . # 7 i i p g k j v v h i y y y y i h h i < @ O 4 4 O . . . . .                                     ",
"                            . X # $ # : s s , % % # # # # # # # # # # X . 4 T T 4 . . .                                         ",
"                            . . . . . # 1 1 # o 3 0 0 0 0 0 0 9 9 9 9 9 9 V X._ w . . .                                         ",
"                            . . . . . X o o . 4 Y ( ( / / / / / / / / / / ..$.( q . . .                                         ",
"                            . . . O 4 q 0 9 9 B ..b.n.j.j.a.a.a.a.a.a.j.j.b.j./ 0 . . .                                         ",
"                                . 4 Y ) ( / / ' #.j.j.j.a.a.a.a.a.a.a.a.j.b.j./ 0 .                                             ",
"                                . 0 ^ e.j.a.a.a.r.o._ _ o.7.3.3.3.3.7.o._ ' #./ 0 .                                             ",
"                            . . . 8 Q O.w.a.a.a.a._ c c _ a.r.3.3.r.a._ c c ] ( q .                                             ",
"                            . . . 5 R } @.9.7.a.a._ c c _ a.r.7.7.r.a._ c b ..( q .                                             ",
"                            . . . 5 R } @.9.9.7.7.o._ _ o.7.7.7.7.7.7.o._ ' $.( 0 .                                             ",
"                            . . . 6 E } +.@.@.$.1.9.a.a.7.&.;.-.-.;.&.r.j.$.X.Y 4 .                                             ",
"                                . 6 E { } } [ | $.9.a.a.7.%.=.*.*.=.%.h.n.X.V > o .                                             ",
"                                . ; N E E ! ` } O.@.@.$.r.:.=.*.*.=.:.#...Y 4 . . .                                             ",
"                                . o ; 5 5 x ! { } } }  .2.c.,.;.;.<.c...B > o .                                                 ",
"                                . . . . . ; N E E R R W ~ / / / / ( ( Y 4 . . .                                                 ",
"                            . . . . . . . o ; 5 5 2 2 6 9 0 9 9 9 0 0 4 O . . . . .                                             ",
"                            . X $ = = = = = & & & & & & & & & & & & & & = = = $ X .                                             ",
"                        . . . $ t C C C C C f C C C C C C C C C C C f C C C C t $ . . .                                         ",
"                        . X $ e A F A Z D G G D A C C C C C C C C A D D A A F A e $ X .                                         ",
"                        . $ t A F Z e e Z G G Z e & & = = = = & = e A A e e Z F A t $ .                                         ",
"                        . = C G G f & & f G G C = X $ $ X X $ $ X = C C = & f G G C = .                                         ",
"                        . = C G G f & & f G G C & $ t t $ $ t t $ = C C = & f G G C = .                                         ",
"                        . = C G G f & & f G G C & $ t t $ $ t t $ = C C = & f G G C = .                                         ",
"                        . = C G G f & & f G G C = X $ & X X & $ X = C C = & f G G C = .                                         ",
"                        . = C G G f & & f G G Z e $ X X $ $ X X $ e A C & & f G G C = .                                         ",
"                        . = C G G f & & f G F S Z t $ $ t t $ $ t A D C & & f G G C = .                                         ",
"                        . = C G G f & & C G G G G A e e A A e e A G G C & & f G G C = .                                         ",
"                        . = C G G f & & C G G G G D A A F F A A D G G C & & f G G C = .                                         ",
"                        . = C G G C & + t C C C C C C C C C C C C C C t + & C G G C = .                                         ",
"                        . = C G G C = X $ = = = = = = = = = = = = = = $ X = C G G C = .                                         ",
"                        . $ r C C t $ . . . . . . . . . . . . . . . . . . $ t C C r $ .                                         ",
"                        . X + & & + X . . . . . . . . . . . . . . . . . . X + & & + X .                                         ",
"                        . O 4 q q 4 O . . . . . . . . . . . . . . . . . . O 4 q q 4 O .                                         ",
"                        . 4 T _ _ T 4 . . . . . . . . . . . . . . . . . . 4 T _ _ T 4 .                                         ",
"                        . 4 T _ _ T 4 . . . . . . . . . . . . . . . . . . 4 T _ _ T 4 .                                         ",
"                        . O 4 w w 4 O .     . . . . . . . . . . . .     . O 4 w w 4 O .                                         ",
"                        . . . . . . . .     . . . . . . . . . . . .     . . . . . . . .                                         ",
"                                            . . . .         . . . .                                                             ",
"                                            . . . .         . . . .                                                             ",
"                                            . . . .         . . . .                                                             ",
"                                            . . . .         . . . .                                                             ",
"                                            . . . .         . . . .                                                             ",
"                                            . . . .         . . . .                                                             ",
"                                    . . . . . . . .         . . . . . . . .                                                     ",
"                                    . . . . . . . .         . . . . . . . .                                                     ",
"                                . . . . . . . . . .         . . . . . . . . . .                                                 ",
"                                . . . . . . . . . .         . . . . . . . . . .                                                 ",
"                                . . . . . . . . . .         . . . . . . . . . .                                                 ",
"                                . . . . . . . . . .         . . . . . . . . . .                                                 ",
"                                                                                                                                ",
"                                                                                                                                "
};
