/* XPM */
static char *_7153640bb37477f8b8a51a967d6848bP5GxnO4Dk2ZCecEP[] = {
/* columns rows colors chars-per-pixel */
"64 64 246 2 ",
"   c #050201",
".  c #0B0502",
"X  c #0C0906",
"o  c #0D0C0B",
"O  c #060608",
"+  c #130D0A",
"@  c #110B07",
"#  c #15110D",
"$  c #1B130D",
"%  c #120F15",
"&  c #141313",
"*  c #1B1613",
"=  c #1D1915",
"-  c #1A161A",
";  c #1C1A1B",
":  c #16151A",
">  c #0F0F11",
",  c #231B15",
"<  c #231D1B",
"1  c #281D19",
"2  c #26211D",
"3  c #2A221C",
"4  c #282117",
"5  c #31251E",
"6  c #1D1B23",
"7  c #151B2B",
"8  c #1C1D2C",
"9  c #171624",
"0  c #1C1E33",
"q  c #0E1326",
"w  c #221E23",
"e  c #221F2A",
"r  c #291E22",
"t  c #1E2134",
"y  c #1E223B",
"u  c #1E202B",
"i  c #252125",
"p  c #2B2424",
"a  c #25232B",
"s  c #2B252C",
"d  c #2C292C",
"f  c #2D2926",
"g  c #322623",
"h  c #332A25",
"j  c #332C2C",
"k  c #392E2A",
"l  c #342A27",
"z  c #39312D",
"x  c #232433",
"c  c #292633",
"v  c #2C2A33",
"b  c #23253B",
"n  c #25293B",
"m  c #2C2B3B",
"M  c #282737",
"N  c #322D34",
"B  c #322E3C",
"V  c #382F31",
"C  c #353135",
"Z  c #3C3434",
"A  c #34323C",
"S  c #3A353C",
"D  c #3C393C",
"F  c #2F3139",
"G  c #443C3B",
"H  c #463A37",
"J  c #48372C",
"K  c #4C403B",
"L  c #564739",
"P  c #6C533F",
"I  c #1E2644",
"U  c #242943",
"Y  c #2B2D43",
"T  c #252C4A",
"R  c #2A2E4C",
"E  c #232742",
"W  c #312F42",
"Q  c #2E3144",
"!  c #2D324D",
"~  c #27304F",
"^  c #333344",
"/  c #393643",
"(  c #3C3A44",
")  c #33354B",
"_  c #38364A",
"`  c #36394C",
"'  c #3C3B4C",
"]  c #373944",
"[  c #2C3353",
"{  c #2C3759",
"}  c #323653",
"|  c #353A54",
" . c #3B3C53",
".. c #343B5C",
"X. c #3B3E5A",
"o. c #343757",
"O. c #333E63",
"+. c #3B3F63",
"@. c #2E3A60",
"#. c #433D43",
"$. c #433E4C",
"%. c #493D49",
"&. c #423E55",
"*. c #3E4154",
"=. c #3D415C",
"-. c #3F434F",
";. c #354164",
":. c #3B4464",
">. c #3B456A",
",. c #3D496C",
"<. c #36436D",
"1. c #3D4A73",
"2. c #3C4B76",
"3. c #4C4344",
"4. c #44424D",
"5. c #4B444C",
"6. c #464146",
"7. c #554B4D",
"8. c #5A4C4C",
"9. c #544747",
"0. c #434353",
"q. c #4A4654",
"w. c #4C4955",
"e. c #43445B",
"r. c #49465B",
"t. c #46495C",
"y. c #4B4A5B",
"u. c #454857",
"i. c #544C54",
"p. c #524D5A",
"a. c #584B54",
"s. c #5C5254",
"d. c #54515C",
"f. c #5C545B",
"g. c #5D585E",
"h. c #5B514B",
"j. c #635858",
"k. c #706359",
"l. c #424563",
"z. c #454A65",
"x. c #4B4D63",
"c. c #434B6C",
"v. c #4A4D6B",
"b. c #434468",
"n. c #524E67",
"m. c #4D526C",
"M. c #4D5165",
"N. c #545363",
"B. c #5B5563",
"V. c #5C5A65",
"C. c #53546B",
"Z. c #5B5B6C",
"A. c #57586C",
"S. c #434E72",
"D. c #4B4F73",
"F. c #455174",
"G. c #4B5373",
"H. c #45527B",
"J. c #4A557A",
"K. c #4D597B",
"L. c #535573",
"P. c #5C5C72",
"I. c #535B7B",
"U. c #585B79",
"Y. c #635B64",
"T. c #665D69",
"R. c #615E77",
"E. c #5B617A",
"W. c #576076",
"Q. c #686268",
"!. c #73676A",
"~. c #646373",
"^. c #64647A",
"/. c #6A6A7C",
"(. c #6A6777",
"). c #736D79",
"_. c #76737A",
"`. c #8A7E73",
"'. c #968579",
"]. c #385080",
"[. c #4C5A84",
"{. c #475A86",
"}. c #525D82",
"|. c #525F89",
" X c #4C628D",
".X c #546284",
"XX c #54648C",
"oX c #5A658B",
"OX c #5B6787",
"+X c #4C6392",
"@X c #556B94",
"#X c #5C6D94",
"$X c #566995",
"%X c #5B739C",
"&X c #56739F",
"*X c #5F708C",
"=X c #636C8C",
"-X c #656984",
";X c #716F87",
":X c #6A7289",
">X c #767788",
",X c #636D93",
"<X c #637294",
"1X c #64739B",
"2X c #6B7899",
"3X c #757B95",
"4X c #5E78A2",
"5X c #687CA5",
"6X c #717CA5",
"7X c #817C86",
"8X c #76829B",
"9X c #6F819A",
"0X c #6A82A8",
"qX c #7788A7",
"wX c #6D89B2",
"eX c #778DB4",
"rX c #7B92B7",
"tX c #7C96C0",
"yX c #888489",
"uX c #858596",
"iX c #918E9B",
"pX c #938D8F",
"aX c #848BA7",
"sX c #8392AB",
"dX c #8A96AA",
"fX c #8898B7",
"gX c #959AB6",
"hX c #9798A9",
"jX c #96A3BA",
"kX c #97A3B4",
"lX c #ACAAB1",
"zX c #A89DA1",
"xX c #C3B4AB",
"cX c #8E9DC5",
"vX c #9AA9C6",
"bX c #92A6CD",
"nX c #A9B6C9",
"mX c #ABB5CD",
"MX c #B6C4D7",
"NX c #B4C2C9",
"BX c #BACCEA",
"VX c #C7D0D6",
"CX c #C8D7E8",
"ZX c #D1D7EA",
"AX c #D9E9F8",
"SX c #E7E3E6",
/* pixels */
"< p Z j f Z D N A m c s Z 5 J L P J J 5 N 4.*.` ` m x x a d N d ( 6 w d 6 6 w i f.j , r r < - f.p.6 a 8 8 8 0 7 7 7 7 t t 7 7 7 ",
"p p f < 2 j C v c c a N G H H `.xXk.L J D w.' ` ` m W / c N S d d i C c C 6 ; 6 p w - j p p N #.q.m a a x ` t 7 M 7 7 t n n n M ",
"p p d p d d a a ( 9 A A a.yXj.xXVX'.J l )._.m Q ^ M ( ' x c / v a a a a d d i v d d N S N N B e i a e 8 u m 7 n n 7 q 7 7 t x t ",
"s d d a d d a ] m m B S j s.k.'.zXh.H Z N w.' b ^ m m B M m ^ m s a v a w s a s C 6 v M M / x e c c A a u 9 7 ^ t 7 0 t 7 7 t n ",
"v s d d C C m -.^ ' ( A V G 9.K h.K 9.V a B M ^ ^ W x x _ ` Y n m S p.B q.a a e m x m a m ^ 0 M M w c 8 8 9 8 t 0 t b b t t n Y ",
"A s d A ( ] M m ^ M / a 5.s.k k l k k j ( / x A m ' B m  .) b Q ^ ' 0.m N./ a m m 0.' Y Q b b x a a a c e m m t t 0 0 0 0 t M n ",
"4.v v m A A F Q ^ ' ( S w.D G Z Z j j j A / $.w.B $.' ^ ` ! T X.) W m _ ` _ x Q b ) ` Y Y n Y b x N a a 8 x 8 t b t t t 0 b b b ",
"] v / ( ^ ^ ^ ` ^ m / v N A 6.Z V d i i i v ( B $.$.' _  .| o...X.Y A.-X .Y ) Y Q t ` m m ) Q Q ( / a 9 m x m *.0 0 b b t x b 0 ",
"A v 0.4.m Q ^ ) m M M A A a i C d d N d i B ( c #.5.( ' e.=...{ [ ..z.v...=.y ) ` 0  .0.b e.) Q 4.0.u M x 0 Q b b b  .e.Y 0 Y 0 ",
"] M ^ Q m `  .^ 0.*._ A v ( N N A 6.D c v c a C S %.4.r.z.X...:.;...O...[ z.} X.Y )  .t.0.b ) ^ m M x M x x n Y Y Q Y Y Y  .0 q ",
"] F ^ Y Y `  .` ` ' m M e A c ( ( ~.V.A ( 4.A c p.T.B.0. .X.:.>.,.K.,.~ :.K...X.| Y Y >XkX .^ Y _ m u.` b b E  .| Y Y y ) x.b Y ",
"A A ] ) ) )  .` ) ^ ( 4.B A / B 0.4.0.-.' y.y./ $.B.p.$. .l.z.{ { @.;.{ ..:.z.v.=.} )  .A.b Y u.u.x Q b Y | )  . .y ) b Y ) ) x.",
"A / ^  .e.e.e.0.) M A ( A w.>Xq.Z.0.u.x.*.M.P.r.0.0.'  .e.l.l.....:.{ ..G.=.m.vXjXm.Y ) t.Y Y  . .Y ) E E T | z.[ E ! b y 0 R =.",
"c ^ ^ )  .)  .t.r.4.A v A / T.N.C.C.M.t.e.v.v.e.x.r.&. .X.l.v.:.[ } R ! } z.aXAXAXaXl.z.l.} =.X.=.! U y E U U T ! =.E y b E E Y ",
"A N.x.e.e. .r.A.' ' #.( w.( ' N.N.x.l.C.-XL.v.U.X.&.&.l.l.z.v...z.-Xz.! } l.:XZXCX-Xo.m.l.T [ [ [ X.X.[ } ..[ =.[ :.U E U ) ! b ",
"' Z.x. . . .e.e.A.^ w.0.^ r.r.&.L.v.=.X.L.U.L.L.R.x.&.v.z.X.:.X.| m.)  .} [ v.vX3XG.:.[ [ ,.c.R R } [ T ..v.[ ....T ! T y b | n ",
" .)  .*.e.*.) e.P. .=.t.=.z.m.U.I.v.v.=. .M.x.z.U.;XL.v.v.L.L.=. .} X.! [ o.[ F.}.J.c.O.[ c.:.[ =.[ R ~ :.c...:.:.R R T 0 Y b Y ",
"^ *.t.x.t. .| *.| | z.z...z.U.=XI.I.L.e.t.N.0.t.L.L.U.U.-XgX-Xe.| L.U.:.......c.vX2XJ.,.;.G.:.:.[ ......[ >.S.c.:.....[ U ) ) Y ",
" .x.t.z.t. .e.=.X.=.v.z.=.z.v.v.D.G.L.x.W.^.A.:Xz.z.G.G.-X=Xl.:.l.c.:.:.....W.8XsX3Xv.{ G.I.{ o.[ [ ..c.{ { J.:.c...[ [ ! E ! E ",
"x.x.*.*.e.e.t.e.x.X.e.m.C.m.m.m.v.l.z.z.L.A.m.-Xm.U.-XdXI.I.z.D.O.O.J.I.G.:XvXMXMXdXG.:.:.:.b.{ [ ..[ [ F.>.I.,X,...:.[ [ E } ! ",
"0. .0.*.e.e.e.C.C.z.x.C.m.=.l.m.v.z.G.v.z.m.v.m.E.-XqXaXsX3XK.}.>.O.}.=X.XOXsXCXAXmX-XqXqXX.....[ R O.:.,.,.J.,Xc...G...o.! [ ! ",
") ` t.e. .*.t.-X=.z.z.x.x.x.U.E.z.m.-XU.L.=X=XW.:X-X8XMXvXsXOX,.J.#X1XF.G.=X2XvXmXjXgXAXMX-XOX..:.[ ,.oX:.:.,.2XqX>.>...:.[ I I ",
"` 0.t.u.e.t.C.^.C.P.A.x.C.L.^.P.x.m.E.E.OX2X,X<X9XsXMXAXAXqX#X}.#X.X.X.X#X,X*X6XqXgXfXvXmXuX:Xe.[ { T ..:.c.J.qXfXS.O.;.c.[ T T ",
" .t. .t.C.Z.Z.z.x.Z.x.x.x.C.P.A.t.e.x.I.,X,XoXqXqXqXZXZXvX0X#XeX2XI..X<XXX#X6X#X5XfXsX8XvXnXuX| :.{ S.,.S.6XvX}.J.c.,.:.O.[ ..[ ",
"N.N.A.~.(.R.A.~.n.^.Z.u.x.u.P.r.u.u.z.=X2XXX1X1X<X2XsXqXqX0XeXBXsX<X2XeX<X<X<XoX[.<X.XW.8X3Xm.z...O.J.J.[.}.5XJ.OX}.>...;.,.{ >.",
"Z.0.N.~.>X~.A.(.Z.r.u.0.) ^ r.0.N.y.A.G.,X6X[.[.#X.X<XqXqX0X0XfXqX2X9X*X2X2XqX<X<X*X=XI.8X-Xv.v.;.O.S.J.2.1.<.O.1.J.J.;.,.,.>.>.",
"0.4.A.V.>X/.>X>X7XZ.~.y.N.$.r.' 0.$.C.v.aXvX#XXX<XXX#XqXeXqXeXqXjXgXsXsX9XqX2X9X2XOX<XK.<X,XF.J.[.2.H.[.XXXX1.J.J.{ J.K.;.{ ,.>.",
"y.0.N.N.Z.uXZXVXhXiX~.w.' y.$.y.p.B.A./.mXgXoX.X#X#X1X0X0XqXrXfXBXnXmXnXfXsXjXdXsXjXsX.XF.<X$XXX#XXX X{.1X[.1.H.J.[.J.F.F.J.;.>.",
"N.Z.w.(.>XiXZXZXlXiXw.$.p.p.w.$.#.q.4.Z.hX3X-X=XXX1X5X<XqXfXjXmXmXmXCXMXmXNXMXkX9XmXmXrX#X6X6X$X+X%X+X{.XXH.[.#XvX2X>.,.F.c.;.}.",
"V./.$._.>X_.lXmXZXzXQ.uXY.d.p.q.a.a.i.q.~.E.U.OXOX1X0X2XbXBXMXCXMXCXMXVXMXMXdX8X8XvXfX2X1X5XrX5X$XwX+X X{.H.H.[.2X1.J.F.:.S..XG.",
"4.4.w.iX)._.zXuXhX>X7XyXY.w.7XiXT.Y.!.f.V.>X;X-X=X<X5XqXvXCXCXCXZXCXVXnXmXdXqX9XqXrX5X1X5X1X@X{.].+X{.+X{.+X2.<.[.S.F.,.F.;.O.F.",
"4.4.] _.>X>X_.yX>X(.(.V.d.V.(.Q.s.j.!.Q.Q.uXuXL.2X2X2XqXfXnXVXVXNXVXVXVXlXjXfXqXeXfX5XwX5X5X{. X@X@X&X+X{.+X{.{.1.J.,.S..X<XJ.S.",
"w.w.y.p.P././.;X>X/.;X/.~.).(.V.j.h.j.yX_.).P.R.=X3X2X=XjXMXAXNXlXlXpXlXkXhXsXqXrXtX5X0X4X X%X0X%X5X5X@X%X@X{.[.H.2.H.S.K.OXI.=X",
"0./ q.~.P.Z.-XA.-X>XuX;X;X>X~.Q._.9.7.pX).).(.P.R.-XgXaXaXnXMXNXxX_.Y._.yX8XsXsXcXbXwX&X4X0XeX5XeX%X4X%X@X X+XXX[.2.1.1.J.F.:.S.",
"B N.N.N.E.^.3X^.>X8X3X(./.>XT.Y.f.Q.f.).).(.T.N.n.n.gXgX3XdXjXnXiXi.Y.uXZ.dXjXqXbXcXwXeXtXwXwXeX5X%X4X@X@X@X$X$X{.1.S.oX2XOXS.c.",
"4.uX/.M.E.-X:X>X>X/.P.N.~.>X(.T.f.a.j.a.a.Y.).i.w.0./.3X:X8XjXgX).q.d.~.~.-X3XfXrXrXeXrXrXwXwX0X@X@X%X X@X+X X[.[.1.>.K.}.v.c.c.",
"Z.~.(.>X;X3XuXdX(.N.N.N.N.T.B.B.B.%.5.5.f._.Y.3.5.4.q.P.:X:XaX3X;X^.~.;X>X:X3XsXqXeX0X5X0XwXwX4X0X{.@X@XXX{.[.2..XK.c.v.z.=.l.z.",
"uX(./.uX/.>X;X>X(.N.A.V.p.p.w.p.f.a.%.9.j.yX8.9.3.#.d.A.:X=X=X2XuX>X;XuXZ.;X8X8X-X.X#X0X0X%X%X4X0X+X+XXX#X$X[.,.,.,.G.m.e. .| ) ",
"/.>X~.N.~.(.(.(.~.d.N.B.Y.T.Y.T.T.a.a.7.G !.j.9.3.#.V.~.^.E.U.3XuXR.(.;X>XP.Z.3Xv.c..X1X%X@X@X@X@X%X$X{.1X1X}.K.G.z.G.z. .) Y Y ",
"Z.uX>Xy.~.B.~.Z.p.y.p.p.Y.Q.f.T.j.9.s.8.Q.G H G 3.#.p.(.A.C.U.3XhXx._ 4.0.T.d.;X/.v.z.K..XXXXX@X1XXXXX[.XX}..X=Xm.X.z.0.) ^ m B ",
")._.~.N.V.Z.B.B.p.q.i.5.a.j.!.!.8.H 9.8.9.9.3.5.5.q.V.A.u.t.x. .e.u.( 4.5.iX>XiXlXP.L.c.c.|.|.#X2X#X.XK.}.F.v.l.m.x.^ ) A m v c ",
").Q.d.B.V.Y.V.Y.f.g.g.5.7.s.j.8.8.K 9.9.8.7.3.5.f.q.N.y.0.$.C.y.r.N.4.A _.7X6.5.w.r.n.l.+.D.J.J.c.F..X.XOXG.z.=.) ` ' m e A N S ",
"Q.Q.f.g.f.!.Q.f.j.T.!.Y.Y.s.j.!.j.h.K H H G S / B ( $._ r.(.).q.w.q.#.S f.f.#.#./ q.r.l.v.b.b.b.z.=.m.:...L.^.^ ^ x m A v v s #.",
"a.g.f.g.7.!.Y.7.7.s.j.s.j.H 9.!.j.L k 1 g j s B ' N.0.$.u.uX>Xy.' A ' 5.v d #.S $.$.&.e.n.n.v.v.m.*.! ) t.e.) ^ m B c N v s V w ",
"3.7.s.!.s.j.j.j.s.j.8.G 3.H H H H z 1 , g j N N / ' _ 0._ N.u.` ' ^ ' / ( c #.( ( ' y.e.e.C.n.r.t.` ) ' ^ m m B m A c s a w p & ",
"G 9.7.j.9.8.9.9.K G H l k p g l h 5 , 1 h d j v v x B ' 0.) ) )  .` W ^ 0.0.w.w._ ^ 0.0. .q.$.0.^ d.( 8 x m x ( ( s s i V j - w ",
"Z H H z k J k g h g k g g 1 l J k g 1 g f 2 d d S v B m _ Q ) ) R )  .z.' u.' ^ ` ^ Y _ $.( ( q.( A v B c v c N #.S N a #.G w < ",
"H z g g k 5 3 g 1 3 l 1 1 l Z l j h f Z z p z d v C / ' _ ) ) } } } m.=.t.*.0.^ 0.~.y.4.q.( #.#.S S v s w N s s #.#.C 6.f.f , p ",
"J z l g p 3 3 3 3 , 3 f < f i d S C ; d a d i N v #.v A B m x Y R [ :.! ) ` / ( #.i.Y.Y.a.#.Z G Z p p f 6.j p p l 1 h s.!.< g , ",
"l l l l g 3 1 4 < 2 < p p C d i i v d s i v s w S A v v m a x Y T I T R ` ^ $.p.g.a.a.j.Y.j.!.zX3.j p , V f j j , h G l f * , $ ",
"z l g 3 3 1 1 1 = < 2 i - w #._.5.c w i a i v C a S 5.s a M ] Q o.[ ! y Q _ ' 5.i.V j 3.8.3.j.yXG j i w d p i p p f j = : < : # ",
"H l 3 3 3 3 1 , f < d i i p N ).6.N v d v C A N i C 4.e 8 ( y.*.! R | b ^ ' A A #.Z Z Z Z j j Z j i w i p w & & : ; - ; - # : : ",
"g 3 3 3 3 3 1 , < p p , p i w s a c S ( N N v S 4.i x x x M M x E U Y ) 0.^ / ( S 6.G p = = , - i ; : - - : & > > & - : ; & - o ",
"1 3 3 3 1 , 4 h 3 K C G #.p #.S N v D ( N s i 5.).( c v M a M ^ Y e.b ) 0.B V.d.6.6.Z p 3 3 , * ; & % > & & : & - o & O : - : o ",
"1 4 4 1 * * 3 l p j j 6.3.a A v v 5.d.v v S v N c e v B / M / m b *.b m ^ A Q.g.#.d < < 2 = @ X & o & o : : - o & o o o o O o : ",
"3 4 4 4 4 1 1 3 2 < Z j d s v A v 5.g.i s a a / i w a : M a 4.^ M n m M m 8 a N S p = : # . @ p & X & o = & = O 2 d . & & & - . ",
"1 3 4 z Z g g , p 2 C C N i N v N s d s 6 i w.).v 9 e 6 a 6 6 e B ' ^ / B a i N C d + # X @ @ * X o X X   X # X @ & X X * 2 = . ",
"$ g 3 , 3 g 3 , G p 2 = < w N N a w p d i s N v i i 6 6 6 9 a B ' M m c % v v d w < X < *   * H @ # X < < * @ # @   2 2 @ X X * ",
"3 3 3 , 3 3 1 h f < < < p p j p i w p i w s v - 6 - a i i s i p.$.6 ( e A A a - : ; X = = + + . . 4 . .   @ , K `.3 * * + # @ . ",
"p * $ , , * * , < < 2 p p p p i < - < w w A ( v i c 6 ( ( v #._.i.w ( w ( d 6 ; - + X X + * * h 3 l # . $ $ . z k.1 . + + . +   ",
"= = * = * z 3., 3 3 < 1 , , < < l , < p N C v : i : 6 c C D D yX5.6 i N 6 i a ; p X = . @ + z SXzX= @ # . # * X     + # @   * = ",
"* < * * = G j.3 1 3 , , , < = = l p < p i w 6 6 a v 6 w w % - d i w w v i i d - - X @ X s.8.1 pXyX# X . @ $ @ . @ X :   + : & - ",
"= * @ @ + < f # 4 3 * * , 3 , < , , * = - - p 6.; - a ; w i - w < a i & d ; d i X = #   l k $ , 2   @ .   o = & +   : X - & X o ",
"& # # # = 1 = 2 = p 3 3 < 3 = , , , = = i ; 6 C i 6 w ; i w p p w - & ; : : - & = & @ # + + H $ . X # * + o & o X   ; j N O & ; "
};
