/* XPM */
static char *result[] = {
/* columns rows colors chars-per-pixel */
"64 64 11 1 ",
"  c #070707",
". c #0C0B0A",
"X c #140E0E",
"o c #151211",
"O c #1B1916",
"+ c #23201D",
"@ c #2E2A25",
"# c #3C3129",
"$ c #454135",
"% c #555145",
"& c None",
/* pixels */
"&&&&&&&&&&&&&&&&&&&&&&&&&&&&&&&&&&&&&&&&&&&&&&&&&&&&&&&&&&&&&&&&",
"&&&&&&&&&&&&&&&&&&&&&&&&&&&&&&&&&&&&&&&&&&&&&&&&&&&&&&&&&&&&&&&&",
"&&&&&&&&&&&&&&&&&&&&&&&&&&&&&&&&&&&&&&&&&&&&&&&&&&&&&&&&&&&&&&&&",
"&&&&&&&&&&&&&&&&&&&&&&&&&&&&&&&&&&&&&&&&&&&&&&&&&&&&&&&&&&&&&&&&",
"&&&&&&&&&&&&&&&&&&&&&&&&&&&&&&&&&&&&&&&&&&&&&&&&&&&&&&&&&&&&&&&&",
"&&&&&&&&&&&&&&&&&&&&&&&&&&&&&&&&&&&&&&&&&&&&&&&&&&&&&&&&&&&&&&&&",
"&&&&&&&&&&&&&&&&&&&&&&&&&&&&&&&&&&&&&&&&&&&&&&&&&&&&&&&&&&&&&&&&",
"&&&&&&&&&OOOOOO++++++++++++++++++++++++++++++++&&&&&&&&&&&&&&&&&",
"&&&&&&&&&O%#######@@@@@@@###+####@@@#@+@@@@@@%O&&&&&&&&&&&&&&&&&",
"&&&&&&&&&O%#################+#########+##@@@#%O&&&&&&&&&&&&&&&&&",
"&&&&&&&&&O%####$$$$$%%%%%$$$+$$$$%%%%%O%%%%%%%O&&&&&&&&&&&&&&&&&",
"&&&&&&&&&O%##@@@@@@@@@@@@@@@O@@@@@@@@@O@@@@@@@O&&&&&&&&&&&&&&&&&",
"&&&&&&&&&O%##@@@@@@@@+@@@@@@O@@@+@@@@@O@@@+@@@O&&&&&&&&&&&&&&&&&",
"&&&&&&&&&O%###@@@@++++++@+@+O@@@+@++++O++@+@@@O&&&&&&&&&&&&&&&&&",
"&&&&&&&&&O%###@+++++++++++++O+++++++++O+++++++O&&&&&&&&&&&&&&&&&",
"&&&&&&&&&O%###@OOOOOOOOOOOOOOOOOOOOOOOOOOOOOOOO&&&&&&&&&&&&&&&&&",
"&&&&&&&&&O%###@    ..    oooooo     ooooooo    &&&&&&&&&&&&&&&&&",
"&&&&&&&&&O%###@ ....oo            . oooooo     &&&&&&&&&&&&&&&&&",
"&&&&&&&&&O%#@#@  ....ooooo .oooooo ..ooo.. +++++++&&&&&&&&&&&&&&",
"&&&&&&&&&O%#@#@     ..ooo  .ooooooo  .... +++@@##+&&&&&&&&&&&&&&",
"&&&&&&&&&O%#@@@  oo        ...ooooo       ++@#@##+&&&&&&&&&&&&&&",
"&&&&&&&&&O%#@@@ oooo  ...   .....    OOOO +@##@##+&&&&&&&&&&&&&&",
"&&&&&&&&&O%#@@@ .oo.  ......  ...   OO+++ @@##@##+&&&&&&&&&&&&&&",
"&&&&&&&&&O%#@@@...o.  ........      O++++ @@##@##+&&&&&&&&&&&&&&",
"&&&&&&&&&O%###@ .... .....     OOOO O++++ @@##@##+&&&&&&&&&&&&&&",
"&&&&&&&&&O@++++      ..       OOOOO O++++ @@##@##+&&&&&&&&&&&&&&",
"&&&&&&&&&O%###@ ...           OO+OO O+++@.@@##@##+&&&&&&&&&&&&&&",
"&&&&&&&&&O%###@....     OOOO .OO+++.++++@.@@#####+&&&&&&&&&&&&&&",
"&&&&&&&&&O%###@....  .. OOOO .OO+++.++++@.@@#####+&&&&&&&&&&&&&&",
"&&&&&&&&&O%###@..     ..OOOOO.OO+++.+++@@.@@@####+&&&&&&&&&&&&&&",
"&&&&&&&&&O%###@   XXXXX.OOOOO.OO++..+++@@.@@@####+&&&&&&&&&&&&&&",
"&&&&&&&&&O%###@   XXXXX.OOOOO.OO++..+++@@ @@@@###+&&&&&&&&&&&&&&",
"&&&&&&&&&O%###@  .XXXXX OOOOO.OO++..+++@@ @@@@###+&&&&&&&&&&&&&&",
"&&&&&&&&&O%###@  .XXXXO OOOO+.OO++..+++@@ @@@@###+&&&&&&&&&&&&&&",
"&&&&&&&&&O%###@XX.XXXXO OOOO+.OO++..+++@@..@@####+&&&&&&&&&&&&&&",
"&&&&&&&&&O@++++XX.XXXXO OOOO+.OO+++.+++@@..@@####+&&&&&&&&&&&&&&",
"&&&&&&&&&O%##@@XX.XXXOO OOOO+.OO+++.+++@@..@@####+&&&&&&&&&&&&&&",
"&&&&&&&&&O%##@@XX.XXXOO OOOO+.OOO++.+++@@..@@####+&&&&&&&&&&&&&&",
"&&&&&&&&&O%##@@XX XXXOO OOOO+.OOO++.++++@..@@#@#%+&&&&&&&&&&&&&&",
"&&&&&&&&&O%#@@@XX XXXOO OOOO+ OOO++.++++@..@@@@#%+&&&&&&&&&&&&&&",
"&&&&&&&&&O%#@@@XX XXXOO OOOO+ OOO++ +++++..@@@@#%+&&&&&&&&&&&&&&",
"&&&&&&&&&O%#@@@XX XXXOO OOOOO OOO++ +++++.+@@@@#%+&&&&&&&&&&&&&&",
"&&&&&&&&&O%##@@XX XXXOO OOOOO OOO++ +++++.+@@@@#%+&&&&&&&&&&&&&&",
"&&&&&&&&&O%##@@XX XXXOO OOOOX OOO++ +++++.++@@@#%+&&&&&&&&&&&&&&",
"&&&&&&&&&O%##@@XX XXXXO OOOOX OOOOO +++++.+++++#%+&&&&&&&&&&&&&&",
"&&&&&&&&&O%##@@XX XXXXO XOOXX XXOOO +++++.+++++#%+&&&&&&&&&&&&&&",
"&&&&&&&&&O%##@@XX XXXXX XXXXX XXXXO +++++ +++++%%+&&&&&&&&&&&&&&",
"&&&&&&&&&O$##@@XX XXXXX XXXXX XXXXO +++++ ++++++++&&&&&&&&&&&&&&",
"&&&&&&&&&O%##@@+++++++++++++++++++++++++++++++O&&&&&&&&&&&&&&&&&",
"&&&&&&&&&O%##@@###@@@@@@@###+####@@@#@+@@@@@@@O&&&&&&&&&&&&&&&&&",
"&&&&&&&&&O%##@@#############+#########+##@@@#%O&&&&&&&&&&&&&&&&&",
"&&&&&&&&&O%%%%%$$$$$%%%%%$$$+$$$$%%%%%O%%%%%%%O&&&&&&&&&&&&&&&&&",
"&&&&&&&&&O+@@@@@@@@@@@@@@@@@O@@@@@@@@@O@@@@@@@O&&&&&&&&&&&&&&&&&",
"&&&&&&&&&O+@@@@@@@@@@+@@@@@@O@@@+@@@@@O@@@+@@@O&&&&&&&&&&&&&&&&&",
"&&&&&&&&&O+@@@@@@@++++++@+@+O@@@+@++++O++@+@@@O&&&&&&&&&&&&&&&&&",
"&&&&&&&&&O++++++++++++++++++O+++++++++O+++++++O&&&&&&&&&&&&&&&&&",
"&&&&&&&&&OOOOOOOOOOOOOOOOOOOOOOOOOOOOOOOOOOOOOO&&&&&&&&&&&&&&&&&",
"&&&&&&&&&&&&&&&&&&&&&&&&&&&&&&&&&&&&&&&&&&&&&&&&&&&&&&&&&&&&&&&&",
"&&&&&&&&&&&&&&&&&&&&&&&&&&&&&&&&&&&&&&&&&&&&&&&&&&&&&&&&&&&&&&&&",
"&&&&&&&&&&&&&&&&&&&&&&&&&&&&&&&&&&&&&&&&&&&&&&&&&&&&&&&&&&&&&&&&",
"&&&&&&&&&&&&&&&&&&&&&&&&&&&&&&&&&&&&&&&&&&&&&&&&&&&&&&&&&&&&&&&&",
"&&&&&&&&&&&&&&&&&&&&&&&&&&&&&&&&&&&&&&&&&&&&&&&&&&&&&&&&&&&&&&&&",
"&&&&&&&&&&&&&&&&&&&&&&&&&&&&&&&&&&&&&&&&&&&&&&&&&&&&&&&&&&&&&&&&",
"&&&&&&&&&&&&&&&&&&&&&&&&&&&&&&&&&&&&&&&&&&&&&&&&&&&&&&&&&&&&&&&&"
};
