/* XPM */
static char *result[] = {
/* columns rows colors chars-per-pixel */
"64 64 11 1 ",
"  c #070707",
". c #0C0B0A",
"X c #140E0E",
"o c #151211",
"O c #1B1916",
"+ c #23201D",
"@ c #2E2A25",
"# c #3C3129",
"$ c #454135",
"% c #555145",
"& c None",
/* pixels */
"&&&&&&&&&&&&&&&&&&&&&&&&&&&&&&&&&&&&&&&&&&&&&&&&&&&&&&&&&&&&&&&&",
"&&&&&&&&&&&&&&&&&&&&&&&&&&&&&&&&&&&&&&&&&&&&&&&&&&&&&&&&&&&&&&&&",
"&&&&&&&&&&&&&&&&&&&&&&&&&&&&&&&&&&&&&&&&&&&&&&&&&&&&&&&&&&&&&&&&",
"&&&&&&&&&&&&&&&&&&&&&&&&&&&&&&&&&&&&&&&&&&&&&&&&&&&&&&&&&&&&&&&&",
"&&&&&&&&&&&&&&&&&&&&&&&&&&&&&&&&&&&&&&&&&&&&&&&&&&&&&&&&&&&&&&&&",
"&&&&&&&&&&&&&&&&&&&&&&&&&&&&&&&&&&&&&&&&&&&&&&&&&&&&&&&&&&&&&&&&",
"&&&&&&&&&&&&&&&&&&&&&&&&&&&&&&&&&&&&&&&&&&&&&&&&&&&&&&&&&&&&&&&&",
"&&&&&&&&&&&&&&&&&&&&&&&&&&&&&&&&&&&&&&&&&&&&&&&&&&&&&&&&&&&&&&&&",
"&&&&&&&&&&&&&&&&&&&&&&&&&&&&&&&&&&&&&&&&&&&&&&&&&&&&&&&&&&&&&&&&",
"&&&&&&&&&&&&&&&&&&&&&&&&&&&&&&&&&&&&&&&&&&&&&&&&&&&&&&&&&&&&&&&&",
"&&&&&&&&&&&&&&&&&&&&&&&&&&&&&&&&&&&&&&&&&&&&&&&&&&&&&&&&&&&&&&&&",
"&&&&&&&&&&&&&&&&&&&&&&&&&&&&&&&&&&&&&&&&&&&&&&&&&&&&&&&&&&&&&&&&",
"&&&&&&&&&&&&&&&&&&&&&&&&&&&&&&&&&&&&&&&&&&&&&&&&&&&&&&&&&&&&&&&&",
"&&&&&&&&&&&&&&&&&&&&&&&&&&&&&&&&&&&&&&&&&&&&&&&&&&&&&&&&&&&&&&&&",
"&&&&&&&&&&&&&&&&&&&&&&&&&&&&&&&&&&&&&&&&&&&&&&&&&&&&&&&&&&&&&&&&",
"&&&&&&&&&&&&&&&&&&&&&&&&&&&&&&&&&&&&&&&&&&&&&&&&&&&&&&&&&&&&&&&&",
"&&&&&&&&&&&&&&&&&&&&&&&&&&&&&&&&&&&&&&&&&&&&&&&&&&&&&&&&&&&&&&&&",
"&&&&&&&&&&&&&&&&&&&&&&&&&&&&&&&&&&&&&&&&&&&&&&&&&&&&&&&&&&&&&&&&",
"&&&&&&&&&&&&&&&&&&&&&&&&&&&&&&&&&&&&&&&&&&&&&&&&&&&&&&&&&&&&&&&&",
"&&&&&&&&&&&&&&&&&&&&&&&&&&&&&&&&&&&&&&&&&&&&&&&&&&&&&&&&&&&&&&&&",
"&&&&&&&&&&&&&&&&&&&&&&&&&&&&&&&&&&&&&&&&&&&&&&&&&&&&&&&&&&&&&&&&",
"&&&&&&&&&&&&&&&&&&&&&&&&&&&&&&&&&&&&&&&&&&&&&&&&&&&&&&&&&&&&&&&&",
"&&&&&&&&&&&&&&&&&&&&&&&&&&&&&&&&&&&&&&&&&&&&&&&&&&&&&&&&&&&&&&&&",
"&&&&&&&&OOOOOOOOOOOOOOOOOOOOOOOOOOOOOOOOOOOOOOOOOOOOOOOOOO&&&&&&",
"&&&&&&&&O%%%%%%%%%%%%%%%%%@%%%%%%%%%@%%%%%%%%%%%$%%%%++++O&&&&&&",
"&&&&&&&&O#################+#########+###############%@@@+O&&&&&&",
"&&&&&&&&O##########@@@@@@#+#########+###@@@#########%@@@+O&&&&&&",
"&&&&&&&&O###@@#######@@@@#+#########+@@@@@@@@@@@@@@@%@@@+O&&&&&&",
"&&&&&&&&O###@@@@@@@@@@@@@@+@@@@@@@@@+@@@@@@@@@@@@@@@%@@@+O&&&&&&",
"&&&&&&&&+##$@@@+O       .   ...    XXXXXXXXXXXXXX+##$@@@+O&&&&&&",
"&&&&&&&&+##$@@@+O .   o... ....    XXXXXXXXXXXXXX+##$@@@+O&&&&&&",
"&&&&&&&&+##$@@@+O .. ooo.. ...   ......          +##$@@@+O&&&&&&",
"&&&&&&&&+@#$@@++O .. oooo. ... XXXXXXXXXXXXXXXXXX+@#$@@++O&&&&&&",
"&&&&&&&&+@#$@@++O...  o...     XXXXXXXXXXXXXXXXXX+@#$@@++O&&&&&&",
"&&&&&&&&+@#%@@++O.o..          XXXXXXXXXXXXXXXXXX+@#%@@++O&&&&&&",
"&&&&&&&&+@#%@+++O oo.    ..  . XXXXXXOOOOOOOOXXXX+@#%@+++O&&&&&&",
"&&&&&&&&+@#%@@++O  oo .....  ..XXXOOOOOOOOOOOOOXX+@#%@@++O&&&&&&",
"&&&&&&&&+@#%@@++O  oo ....    ...                +@#%@@++O&&&&&&",
"&&&&&&&&+@#%@@@+O  oo ....  OOOOOOOOOOOOOOOOOOXXX+@#%@@@+O&&&&&&",
"&&&&&&&&+##$@@++Oo o   ...  OOOOOOOOOOOOOOOOOOOXX+##$@@++O&&&&&&",
"&&&&&&&&+##$@@@+Oo     ..   OOOOOOOOOOOOOOOOOOOXX+##$@@@+O&&&&&&",
"&&&&&&&&+##$@@++Oo ... ..   OOOOOOOOOOOOOOOOOOXXX+##$@@++O&&&&&&",
"&&&&&&&&++++OOOOOo oo.. .     OOOO++++++++OOXXXXX++++OOOOO&&&&&&",
"&&&&&&&&+##$@@@+Oo oo.. .   ............         +##$@@@+O&&&&&&",
"&&&&&&&&+##$@@@+Oo ooo..  OOOOOOOOOOOOOOOOOOOOXXX+##$@@@+O&&&&&&",
"&&&&&&&&+##$@@@+O  ooo.. OOOOOOOOOOOOOOOOOOOOOXXX+##$@@@+O&&&&&&",
"&&&&&&&&+##$@+++O  ooo.. OO+++++++++++OOOOOOOOOXX+##$@+++O&&&&&&",
"&&&&&&&&+@#%@@@+O  ooo   OOO+++++++++++++++++OOXX+@#%@@@+O&&&&&&",
"&&&&&&&&+@#%@@++O . oo   OOO+++.....+++++++++OOOO+@#%@@++O&&&&&&",
"&&&&&&&&+@#%@@++O  .        .............        +@#%@@++O&&&&&&",
"&&&&&&&&+##%@@++Ooo.   OOOOO++++++++++++++++++++++##%@@++O&&&&&&",
"&&&&&&&&+@#%@@++Oooo. OO++++++++++++++++++++++++++@#%@@++O&&&&&&",
"&&&&&&&&+++OOOOOOooo. O+++++++++++++++++++++++++++++OOOOOO&&&&&&",
"&&&&&&&&+@#%@@++Oooo. O+++++++@@@@@@@@@+++++++++++@#%@@++O&&&&&&",
"&&&&&&&&+@#%@@++Ooo.. O++++@@@@@@@@@@@@@@+++++++++@#%@@++O&&&&&&",
"&&&&&&&&+@@%@@@+Ooo.       .....   ............  +@@%@@@+O&&&&&&",
"&&&&&&&&+@@%@+++Oo  +++@@@@@@@@@@@@.......++++++++@@%@+++O&&&&&&",
"&&&&&&&&+@@%@@@+O  +++@@@@@@@@@@@@@@@@@@@@@@++++++@@%@@@+O&&&&&&",
"&&&&&&&&+@#%@@@+O  ++@########@@@@@@@@@@@@@@@+++++@#%@@@+O&&&&&&",
"&&&&&&&&+%%%@@@+O  +@###########@@@#####@@@@@+++++@%%@@@+O&&&&&&",
"&&&&&&&&+OOOOOOOO  +@@@@@@@@###########@@@@@@++++OOOOOOOOO&&&&&&",
"&&&&&&&&&&&&&&&&&&&+###########################%+&&&&&&&&&&&&&&&",
"&&&&&&&&&&&&&&&&&&&+###################%%%%%%%%%+&&&&&&&&&&&&&&&",
"&&&&&&&&&&&&&&&&&&&++++++++++++++++++++++++++++++&&&&&&&&&&&&&&&"
};
