/* XPM */
static char *_161835e5e6b4080a581e511d4ef3e1eTiZl0BfDcQLZJWRI[] = {
/* columns rows colors chars-per-pixel */
"64 64 199 2 ",
"   c None",
".  c #30182E",
"X  c #321930",
"o  c #341C32",
"O  c #351D33",
"+  c #361D34",
"@  c #361E34",
"#  c #371E34",
"$  c #371F35",
"%  c #392137",
"&  c #3B2339",
"*  c #3D253B",
"=  c #3F273D",
"-  c #40293F",
";  c #41293F",
":  c #432C42",
">  c #442C42",
",  c #452D43",
"<  c #462E44",
"1  c #462F44",
"2  c #493147",
"3  c #493247",
"4  c #4B3449",
"5  c #4D354B",
"6  c #4D364C",
"7  c #4E374C",
"8  c #513A4F",
"9  c #543C52",
"0  c #543D52",
"q  c #553E54",
"w  c #563E54",
"e  c #563F54",
"r  c #574055",
"t  c #584156",
"y  c #594257",
"u  c #5A4359",
"i  c #5A4459",
"p  c #5C455B",
"a  c #5D465C",
"s  c #5F485E",
"d  c #5F495E",
"f  c #5F495F",
"g  c #614A60",
"h  c #614B60",
"j  c #624B60",
"k  c #634F63",
"l  c #644D62",
"z  c #644E63",
"x  c #654F65",
"c  c #664F65",
"v  c #675065",
"b  c #675166",
"n  c #675167",
"m  c #685267",
"M  c #695367",
"N  c #695368",
"B  c #6A5368",
"V  c #6C556A",
"C  c #6D576B",
"Z  c #6E576C",
"A  c #6E586D",
"S  c #6F596D",
"D  c #6F596E",
"F  c #70596E",
"G  c #705A6F",
"H  c #735D71",
"J  c #735D73",
"K  c #745E73",
"L  c #755F75",
"P  c #766074",
"I  c #786276",
"U  c #786277",
"Y  c #7D677D",
"T  c #7E687C",
"R  c #7E697D",
"E  c #7E687E",
"W  c #7F697F",
"Q  c #7F6A7E",
"!  c #7F6A7F",
"~  c #806B7F",
"^  c #7F6D80",
"/  c #806B80",
"(  c #826D81",
")  c #846E82",
"_  c #846F83",
"`  c #856F83",
"'  c #857084",
"]  c #867084",
"[  c #847284",
"{  c #877187",
"}  c #887387",
"|  c #887389",
" . c #897389",
".. c #8B778B",
"X. c #8D788B",
"o. c #8B7A8C",
"O. c #8C7A8C",
"+. c #8C7A8D",
"@. c #8D788E",
"#. c #8E798E",
"$. c #8E798F",
"%. c #8F798F",
"&. c #917C8F",
"*. c #8F7D90",
"=. c #907A91",
"-. c #917C90",
";. c #907E90",
":. c #907E91",
">. c #907F91",
",. c #937E91",
"<. c #937E92",
"1. c #937F92",
"2. c #927F93",
"3. c #947F93",
"4. c #948093",
"5. c #958093",
"6. c #938094",
"7. c #938194",
"8. c #958094",
"9. c #958196",
"0. c #968097",
"q. c #978296",
"w. c #968497",
"e. c #988397",
"r. c #988399",
"t. c #998498",
"y. c #998499",
"u. c #998699",
"i. c #998799",
"p. c #99849A",
"a. c #99859A",
"s. c #9A859B",
"d. c #9B869A",
"f. c #9B879A",
"g. c #9C879A",
"h. c #9C879B",
"j. c #9B869C",
"k. c #9C879D",
"l. c #9D889B",
"z. c #9E899C",
"x. c #9E899D",
"c. c #9C8A9C",
"v. c #9E8A9D",
"b. c #9D889E",
"n. c #9E899F",
"m. c #9F8B9E",
"M. c #9F8A9F",
"N. c #9F8B9F",
"B. c #A08C9F",
"V. c #9F8AA0",
"C. c #9F8BA0",
"Z. c #A08BA0",
"A. c #A08BA1",
"S. c #A08DA0",
"D. c #A18DA0",
"F. c #A08CA1",
"G. c #A28DA1",
"H. c #A18EA0",
"J. c #A18EA1",
"K. c #A28EA1",
"L. c #A28DA2",
"P. c #A28DA3",
"I. c #A38EA2",
"U. c #A38FA2",
"Y. c #A28EA3",
"T. c #A38EA3",
"R. c #A38FA3",
"E. c #A490A3",
"W. c #A490A4",
"Q. c #A490A5",
"!. c #A692A6",
"~. c #A792A6",
"^. c #A792A7",
"/. c #A793A7",
"(. c #A893A7",
"). c #A894A7",
"_. c #A894A8",
"`. c #A994A8",
"'. c #A995A8",
"]. c #A995A9",
"[. c #AA96A9",
"{. c #AA95AA",
"}. c #AA96AA",
"|. c #AB97AA",
" X c #AC98AB",
".X c #AD99AC",
"XX c #AD99AD",
"oX c #AE99AC",
"OX c #AE9AAD",
"+X c #AE9BAD",
"@X c #AE9AAE",
"#X c #AF9BAE",
"$X c #AF9CAE",
"%X c #B09CAF",
"&X c #B19EB0",
"*X c #B29EB1",
"=X c #B4A0B3",
"-X c #B4A1B3",
";X c #B5A1B4",
/* pixels */
"                                                                                                                                ",
"                                                                                                                                ",
"                                                                                                                                ",
"                                                                                                                                ",
"                                                                                                                                ",
"                                                                                                                                ",
"                                                                                                                                ",
"                                                                                                                                ",
"                                                                                                                                ",
"                                                                                                                                ",
"                                                                                                                                ",
"                                                                                                                                ",
"                                                    # # # # # # # # # # # #                                                     ",
"                                                  ; ; ; ; ; ; ; ; ; ; ; ; ; ;                                                   ",
"                                                9 a s s s s s s s s s s s s a 9                                                 ",
"                                            # > g E | | { { { { { { { { | | E g > #                                             ",
"                                            # > c @.V.Y.V.Z.V.V.V.V.Z.V.Y.V.@.c > #                                             ",
"                                            # > c @.Y.^._._._._._._._._.^.Y.@.c > #                                             ",
"                                            # > c @.Y._._. X X X X X X_._.Y.@.c > #                                             ",
"                                            # > m <._.@X%X$X@X@X@X@X$X%X@X_.<.m > #                                             ",
"                                            # < V d.@X@X@X@X@X@X@X@X@X@X@X@Xd.V < #                                             ",
"                                            # < A h.).h.8.x._.@X@X_.x.8.h.).h.A < #                                             ",
"                                            # < F h.d.U N ( Y.%X%XY.( N U d.h.F < #                                             ",
"                                            # < F d.4.m w P B.&X&XB.P w m 4.d.F < #                                             ",
"                                            # < F l.x.~ H } E.%X%XE.} H ~ x.l.F < #                                             ",
"                                            # < Z h._.Y.x.Y._.@X@X_.Y.x.Y._.h.Z < #                                             ",
"                                            o : b <._.@X@X@X@X@X@X@X@X@X@X_.<.b : o                                             ",
"                                            o ; s { x._.@X%X@X@X@X@X$X@X_.x.{ s ; o                                             ",
"                                            > 6 k ^ 6.Y.)._._._._._._.).Y.6.^ k 6 >                                             ",
"                                          4 l K E ..<.w.d.d.d.d.d.d.d.d.w.<...~ K l 4                                           ",
"                                        * w E d.x.d.8.*.@.o.@.@.@.@.o.@.*.8.d.x.d.E w *                                         ",
"                                      6 y A <. X_.x.r.6.<.<.<.<.<.<.<.<.6.r.x._. X<.A y 6                                       ",
"                                    > g ~ 4.E. X^.x.k.x.Y.Y.Y.B.Y.Y.Y.Y.x.k.x.^. XE.4.~ g >                                     ",
"                                  # > N e.@X@X_.Y.x.x.^. X@X X X X X@X X^.x.x.Y._.@X@Xe.N > #                                   ",
"                                  # > V x.=X@X^.Z.k.V.(.@X@X@X@X@X@X@X@X(.V.k.Z.^.@X=Xx.V > #                                   ",
"                                  # > N 8._.Y.j.d.d.V.^. X@X@X@X X@X@X X^.V.d.d.j.Y._.8.N > #                                   ",
"                                    > g E { / E | 8.x.Y.^._. X@X X X_.^.Y.x.8.| E / { E g >                                     ",
"                                      8 r r 9 u H =.x.x.Y.^._.@X@X_.^.Y.x.x.=.H u 9 r r 8                                       ",
"                                        * & % > b @.V.x.k.Y._._._._.Y.k.x.V.@.b > % & *                                         ",
"                                          X . = b 3.^.V.j.V.^.^.^.^.V.j.V.^.3.b = . X                                           ",
"                                            & 2 A d._.Y.j.d.d.d.d.d.d.j.Y._.d.A 2 &                                             ",
"                                            u N ` Y.@X_.V.@.Y L L Y @.V._.@XY.` N u                                             ",
"                                        & 9 U <.Y._.@X@XY.E p 5 5 p E Y.@X@X_.Y.<.U 9 &                                         ",
"                                        & w ` _.&X@X_.Y.<.A 2 # # 2 A <.Y._.@X&X_.` w &                                         ",
"                                        & w {  X;X@Xd.E m y         y m E d.@X;X X{ w &                                         ",
"                                        & w ` _.=X@X&.l < *         * < l &.@X=X_.` w &                                         ",
"                                        & w ` _.=X@XX.i %             % i X.@X=X_.` w &                                         ",
"                                                                                                                                ",
"                                                                                                                                ",
"                                                                                                                                ",
"                                                                                                                                ",
"                                                                                                                                ",
"                                                                                                                                ",
"                                                                                                                                ",
"                                                                                                                                ",
"                                                                                                                                ",
"                                                                                                                                ",
"                                                                                                                                ",
"                                                                                                                                ",
"                                                                                                                                ",
"                                                                                                                                ",
"                                                                                                                                ",
"                                                                                                                                ",
"                                                                                                                                "
};
