/* XPM */
static char *_8c9b374476e4237abcb886dc8ff0bd2YY1tIdOuCbVZFWW7[] = {
/* columns rows colors chars-per-pixel */
"64 64 214 2 ",
"   c None",
".  c #31192F",
"X  c #321A30",
"o  c #331B31",
"O  c #341B31",
"+  c #341C32",
"@  c #361D34",
"#  c #361E34",
"$  c #371E34",
"%  c #371E35",
"&  c #371F35",
"*  c #3A2137",
"=  c #3B2339",
"-  c #3D253B",
";  c #3E263C",
":  c #3F273D",
">  c #41293F",
",  c #422A40",
"<  c #432C41",
"1  c #442C42",
"2  c #442D42",
"3  c #442D43",
"4  c #452D43",
"5  c #452E44",
"6  c #462E44",
"7  c #493247",
"8  c #4A3248",
"9  c #4B344A",
"0  c #4E374D",
"q  c #4F374D",
"w  c #4F384E",
"e  c #50384E",
"r  c #50394E",
"t  c #523B50",
"y  c #543D52",
"u  c #553E53",
"i  c #553E54",
"p  c #563F54",
"a  c #563F55",
"s  c #574056",
"d  c #594257",
"f  c #5A4358",
"g  c #5C455B",
"h  c #5E475C",
"j  c #5E475D",
"k  c #5E495E",
"l  c #604A5F",
"z  c #614A5F",
"x  c #624C61",
"c  c #644D62",
"v  c #644E64",
"b  c #654E64",
"n  c #664F65",
"m  c #675065",
"M  c #675165",
"N  c #665066",
"B  c #675066",
"V  c #675166",
"C  c #695267",
"Z  c #6A5469",
"A  c #6B5469",
"S  c #6A546A",
"D  c #6B546A",
"F  c #6B556A",
"G  c #6B556B",
"H  c #6C556A",
"J  c #6C566B",
"K  c #6D576C",
"L  c #6E586D",
"P  c #6F586D",
"I  c #6F596D",
"U  c #6F596F",
"Y  c #705A6E",
"T  c #705A6F",
"R  c #725B70",
"E  c #715C70",
"W  c #735D72",
"Q  c #745E74",
"!  c #755F75",
"~  c #766076",
"^  c #776176",
"/  c #786276",
"(  c #796377",
")  c #7D677B",
"_  c #7D677D",
"`  c #7D687C",
"'  c #806B7F",
"]  c #816B7F",
"[  c #806D80",
"{  c #836D82",
"}  c #846E82",
"|  c #846F83",
" . c #847185",
".. c #867185",
"X. c #867186",
"o. c #897387",
"O. c #897389",
"+. c #897488",
"@. c #8B768A",
"#. c #8C778D",
"$. c #8D778D",
"%. c #8B788A",
"&. c #8D788B",
"*. c #8B7A8C",
"=. c #8E798D",
"-. c #8C7A8C",
";. c #8C7A8D",
":. c #8F7A8D",
">. c #8E798F",
",. c #8F798F",
"<. c #907B8E",
"1. c #907B8F",
"2. c #907A90",
"3. c #917C91",
"4. c #907D91",
"5. c #907E91",
"6. c #907F91",
"7. c #927D93",
"8. c #927E92",
"9. c #927F92",
"0. c #937E93",
"q. c #947F93",
"w. c #937F94",
"e. c #947F95",
"r. c #928093",
"t. c #958093",
"y. c #938094",
"u. c #958194",
"i. c #968196",
"p. c #978396",
"a. c #968297",
"s. c #968496",
"d. c #988397",
"f. c #988497",
"g. c #978298",
"h. c #988399",
"j. c #998499",
"k. c #9A8599",
"l. c #998699",
"z. c #9B869A",
"x. c #9A869B",
"c. c #9C879A",
"v. c #9C879B",
"b. c #9B869C",
"n. c #9B879C",
"m. c #9B889B",
"M. c #9C889B",
"N. c #9D889B",
"B. c #9D889C",
"V. c #9D889D",
"C. c #9E899C",
"Z. c #9D889E",
"A. c #9D899E",
"S. c #9E899E",
"D. c #9E899F",
"F. c #9F8A9E",
"G. c #9F8A9F",
"H. c #A08C9F",
"J. c #9F8AA0",
"K. c #A08BA0",
"L. c #A08DA0",
"P. c #A18DA0",
"I. c #A08CA1",
"U. c #A18CA1",
"Y. c #A28DA0",
"T. c #A28DA1",
"R. c #A18EA0",
"E. c #A18EA1",
"W. c #A28FA1",
"Q. c #A18DA2",
"!. c #A28DA2",
"~. c #A28DA3",
"^. c #A38EA2",
"/. c #A38FA3",
"(. c #A48FA4",
"). c #A290A2",
"_. c #A490A3",
"`. c #A491A3",
"'. c #A490A4",
"]. c #A591A5",
"[. c #A691A5",
"{. c #A692A5",
"}. c #A590A6",
"|. c #A591A6",
" X c #A691A6",
".X c #A793A6",
"XX c #A792A7",
"oX c #A793A7",
"OX c #A893A7",
"+X c #A894A7",
"@X c #A893A8",
"#X c #A894A8",
"$X c #A895A8",
"%X c #A995A8",
"&X c #A995A9",
"*X c #AA96A9",
"=X c #AA96AA",
"-X c #AB97AA",
";X c #AC97AB",
":X c #AC98AB",
">X c #AC99AC",
",X c #AD99AC",
"<X c #AE99AD",
"1X c #AD9AAC",
"2X c #AE9AAD",
"3X c #AF9BAD",
"4X c #AE9AAE",
"5X c #AF9BAE",
"6X c #B09CAF",
"7X c #B09CB0",
"8X c #B19DB0",
"9X c #B39FB2",
"0X c #B4A0B3",
"qX c #B4A1B3",
/* pixels */
"                                                                                                                                ",
"                                                                                                                                ",
"                                                                                                                                ",
"                                                                                                                                ",
"                                                                                                                                ",
"                                                                                                                                ",
"                                                                                                                                ",
"                                                                                                                                ",
"                                                                                                                                ",
"                                                                                                                                ",
"                                                                                                                                ",
"                                                                                                                                ",
"                                                                                                                                ",
"                                                                                                                                ",
"                                                                                                                                ",
"                                                  = = = = = = = = = = = = = =                                                   ",
"                                                9 0 w 0 0 0 0 0 0 0 0 0 0 w 0 9                                                 ",
"                                              4 g U ~ ! ! ! ! ! ! ! ! ! ! ~ U g 4                                               ",
"                                            & 4 v O.h.j.g.g.g.g.g.g.g.g.j.h.O.v 4 &                                             ",
"                                            & 4 N ,.~.}.}.}.}.}.}.}.}.}.}.~.,.N 4 &                                             ",
"                                            & 4 v $.~.}.*X*X*X*X*X*X*X*X}.~.$.v 4 &                                             ",
"                                            & 4 N 2.}.;X2X2X2X2X2X2X2X2X;X}.2.N 4 &                                             ",
"                                            & 6 Z i.:X6X6X2X2X2X2X2X2X6X6X:Xi.Z 6 &                                             ",
"                                            & 6 K j.:X+X_.}.*X2X2X*X}._.+X:Xj.K 6 &                                             ",
"                                            & 6 U v.~.o.` ,.}.2X2X}.,.` o.~.v.U 6 &                                             ",
"                                            & 6 T v.i.Z d / H.8X8XH./ d Z i.v.T 6 &                                             ",
"                                            & 6 T v.f.R z ) ~.8X8X~.) z R f.v.T 6 &                                             ",
"                                            & 6 U N.}.q.@.i.+X2X2X+Xi.@.q.}.N.U 6 &                                             ",
"                                            & 6 Z f.:X:X*X*X:X2X2X:X*X*X:X:Xf.Z 6 &                                             ",
"                                            O > x %.).2X8X8X2X2X2X2X8X8X2X).%.x > O                                             ",
"                                            * 4 k [ s._.:X2X:X:X:X:X2X:X_.s.[ k 4 *                                             ",
"                                            u z E  .r.m.~.~.~.~.~.~.~.~.m.r. .E z u                                             ",
"                                        & e E @.3.w.y.3.3.3.3.3.3.3.3.3.3.y.w.3.@.E e &                                         ",
"                                        7 z @.}.@XS.i.3.,.*.,.,.,.,.*.,.3.i.S.@X}.@.z 7                                         ",
"                                    < f U [ S.2X*XS.j.j.j.j.j.j.j.j.j.j.j.j.S.*X2XS.[ U f <                                     ",
"                                  & 4 N <.}.*X*X}.S.S.}.*X*X*X*X*X+X*X$X}.S.S.}.*X*X}.<.N 4 &                                   ",
"                                  & 4 J S.8X6X*X~.S.J.OX2X2X2X2X2X2X2X2XOXJ.S.~.*X6X8XS.J 4 &                                   ",
"                                  & 4 J N.8X*X~.S.b.J.}.2X2X2X2X2X2X2X2X}.J.b.S.~.*X8XN.J 4 &                                   ",
"                                  & 4 N &.j.3.,.3.h.S.}.*X:X:X2X2X:X:X*X}.S.h.3.,.3.j.&.N 4 &                                   ",
"                                      f C Z N Z _ 3.S.~.~.*X:X2X2X:X*X~.~.S.3._ Z N Z C f                                       ",
"                                        6 4 , 9 Z ,.S.S.S.(.*X2X2X*X(.S.S.S.,.Z 9 , 4 6                                         ",
"                                        & + o ; v 3.~.S.b.~.}.*X*X}.~.b.S.~.3.v ; o + &                                         ",
"                                            o , Z d.}.~.b.S.K.~.~.K.S.b.~.}.d.Z , o                                             ",
"                                            8 s / S.:X}.S.e.$.O.O.$.e.S.}.:XS./ s 8                                             ",
"                                          t J ] q.}.2X2X~. .Z h h Z  .~.2X2X}.q.] J t                                           ",
"                                        = u ] ~.:X:X2X*XN.~ e ; ; e ~ N.*X2X:X:X~.] u =                                         ",
"                                        = i  .:X0X2X~.<.) c 4 . . 4 c ) <.~.2X0X:X .i =                                         ",
"                                        = i } *X0X2Xt.U u 7         7 u U t.2X0X*X} i =                                         ",
"                                        = i } *X0X2X,.h -             - h ,.2X0X*X} i =                                         ",
"                                                                                                                                ",
"                                                                                                                                ",
"                                                                                                                                ",
"                                                                                                                                ",
"                                                                                                                                ",
"                                                                                                                                ",
"                                                                                                                                ",
"                                                                                                                                ",
"                                                                                                                                ",
"                                                                                                                                ",
"                                                                                                                                ",
"                                                                                                                                ",
"                                                                                                                                ",
"                                                                                                                                ",
"                                                                                                                                "
};
