/* XPM */
static char *e9232a3f76f74719957961c170e6ebb2TlnHhYGNt6yUtGDf[] = {
/* columns rows colors chars-per-pixel */
"64 64 132 2 ",
"   c None",
".  c #2D152B",
"X  c #371E35",
"o  c #392137",
"O  c #3C243A",
"+  c #41293F",
"@  c #442C42",
"#  c #493147",
"$  c #4C354A",
"%  c #4F384D",
"&  c #50394F",
"*  c #543D52",
"=  c #574055",
"-  c #594257",
";  c #5B4459",
":  c #614A5F",
">  c #634C62",
",  c #665065",
"<  c #685266",
"1  c #6B5569",
"2  c #6F596D",
"3  c #705B6F",
"4  c #725D71",
"5  c #766175",
"6  c #796377",
"7  c #7B657A",
"8  c #7E697D",
"9  c #806A7F",
"0  c #7F6A80",
"q  c #836D81",
"w  c #867185",
"e  c #897387",
"r  c #8A748A",
"t  c #8C7A8C",
"y  c #907B8E",
"u  c #8F7C90",
"i  c #927E92",
"p  c #958295",
"a  c #998497",
"s  c #978398",
"d  c #9B869C",
"f  c #9C879C",
"g  c #9C879D",
"h  c #998599",
"j  c #9A889A",
"k  c #9D899C",
"l  c #9C889D",
"z  c #9D889D",
"x  c #9F8A9D",
"c  c #9D889E",
"v  c #9D899E",
"b  c #9E899E",
"n  c #9E8A9E",
"m  c #9F8A9E",
"M  c #9F8A9F",
"N  c #9F8C9E",
"B  c #9E899D",
"V  c #A08B9E",
"C  c #A08C9F",
"Z  c #A18C9F",
"A  c #9F8BA0",
"S  c #A08BA0",
"D  c #A08CA0",
"F  c #A18CA0",
"G  c #A18DA0",
"H  c #A08CA1",
"J  c #A18CA1",
"K  c #A18DA1",
"L  c #A28DA0",
"P  c #A18EA1",
"I  c #A28EA1",
"U  c #A28DA2",
"Y  c #A28DA3",
"T  c #A28EA2",
"R  c #A38EA2",
"E  c #A28FA2",
"W  c #A38FA2",
"Q  c #A28EA3",
"!  c #A38EA3",
"~  c #A38FA3",
"^  c #A48FA4",
"/  c #A28EA1",
"(  c #A390A3",
")  c #A490A3",
"_  c #A490A4",
"`  c #A590A4",
"'  c #A491A4",
"]  c #A590A5",
"[  c #A591A5",
"{  c #A591A6",
"}  c #A691A6",
"|  c #A692A6",
" . c #A792A6",
".. c #A793A6",
"X. c #A792A7",
"o. c #A793A7",
"O. c #A692A5",
"+. c #A894A7",
"@. c #A895A7",
"#. c #A894A7",
"$. c #A894A8",
"%. c #A994A8",
"&. c #A895A8",
"*. c #A995A8",
"=. c #A994A9",
"-. c #A995A9",
";. c #AA96A9",
":. c #AA96AA",
">. c #AB97AA",
",. c #AB97AB",
"<. c #A995A8",
"1. c #AC98AB",
"2. c #AC99AB",
"3. c #AC98AC",
"4. c #AC99AC",
"5. c #AD99AC",
"6. c #AD99AD",
"7. c #AE99AD",
"8. c #AD9AAC",
"9. c #AE9AAD",
"0. c #AE9BAD",
"q. c #AF9BAE",
"w. c #AD99AC",
"e. c #B09CAF",
"r. c #B09CAF",
"t. c #B09DB0",
"y. c #B19DB0",
"u. c #B29EB1",
"i. c #B29FB2",
"p. c #B39FB3",
"a. c #B29EB1",
"s. c #B3A0B2",
/* pixels */
"                                                                                                                                ",
"                                                                                                                                ",
"                                                                                                                                ",
"                                                                                                                                ",
"                                                                                                                                ",
"                                                                                                                                ",
"                                                                                                                                ",
"                                                                                                                                ",
"                                                                                                                                ",
"                                                                                                                                ",
"                                                                                                                                ",
"                                                                                                                                ",
"                                                                                                                                ",
"                                                                                                                                ",
"                                                                                                                                ",
"                                                                                                                                ",
"                                                                                                                                ",
"                                                        X X X X X X X X X X X X X                                               ",
"                                                      @ @ @ @ @ @ @ @ @ @ @ @ @ @ @                                             ",
"                                                    $ ; > > > > > > > > > > > > > ; $                                           ",
"                                                  O * 4 r r r r r r r r r r r r r 4 & O                                         ",
"                                                  O * 7 d Y Y Y Y Y Y Y Y Y Y Y h 6 * O                                         ",
"                                                  O * 7 d o.o.-.-.-.-.-.-.-.o.o.h 6 * O                                         ",
"                                                  O * 7 f o.-.1.1.1.1.1.1.1.-.o.h 6 * O                                         ",
"                                                  O * q Y q.q.e.q.q.q.q.q.e.q.q.Y 7 * O                                         ",
"                                                  O - w +.q.q.q.q.q.q.q.q.q.1.q.o.q * o                                         ",
"                                                  O - e o.Y i p Y 1.q.1.Y p i Y o.q * o                                         ",
"                                                  O ; r Y w < 3 i 1.y.-.i 2 < r Y w * o                                         ",
"                                                  O ; r C 8 - > t 1.s.-.r : ; q Y w = o                                         ",
"                                                  O ; r o.i 5 8 h 1.y.-.p 8 6 i o.w * o                                         ",
"                                                  O - w +.+.C Y +.1.q.1.+.Y Y -.o.q * o                                         ",
"                                                  o * 8 Y q.q.e.q.q.q.q.q.e.q.1.N 7 & o                                         ",
"                                                  o % 4 p ( 1.e.q.q.q.q.q.e.1.Y i 3 $ o                                         ",
"                                                @ # ; 5 t j o.-.+.+.+.+.-.-.) h t 4 - #                                         ",
"                                              O ; 3 8 r i p a h h h h h h h a p u w 7 3 - O                                     ",
"                                            o # 1 i Y c s i t t t t t t t t t i s c Y i 1 @ o                                   ",
"                                            * > q ) q.^ d p p i i i i i i i p p d o.q.Y q > *                                   ",
"                                        o * 4 t V -.-.Y f c Y Y Y Y Y Y Y Y Y c f Y -.-.c t 4 & o                               ",
"                                        o * q -.y.-.o.c c Y -.q.q.1.1.1.q.q.-.Y c A o.1.y.o.9 * o                               ",
"                                        o = r q.y.-.Y c f Y 1.q.q.q.q.q.q.q.-.Y f c Y -.y.q.q * o                               ",
"                                        o * q ) o.f h h c Y -.q.q.1.q.q.q.q.-.Y c h h c o.Y 8 * o                               ",
"                                        o * 4 q 8 6 q i Y o.o.-.q.q.e.q.q.-.o.o.S i 0 6 9 q 3 & o                               ",
"                                            * * & & > r o.o.S Y -.q.e.q.-.Y Y o.o.r > & & * *                                   ",
"                                            o O + $ < y -.-.Y f h a a a h c Y -.+.t > # + O o                                   ",
"                                            X O * 4 r c 1.q.-.p 7 1 > 1 8 s -.q.-.c e 2 * O X                                   ",
"                                            X @ 1 p -.q.1.q.o.r : @ O @ > t o.q.1.q.-.i , @ X                                   ",
"                                            X @ 2 c y.y.+.a w 3 * X . o * 4 w h -.y.y.f 1 @ X                                   ",
"                                            X @ 2 k y.y.Y 9 ; $           $ : q o.y.y.h 1 @ X                                   ",
"                                            X @ 2 f y.y.Y 4 # X           X $ 5 Y y.e.a 1 @                                     ",
"                                                                                                                                ",
"                                                                                                                                ",
"                                                                                                                                ",
"                                                                                                                                ",
"                                                                                                                                ",
"                                                                                                                                ",
"                                                                                                                                ",
"                                                                                                                                ",
"                                                                                                                                ",
"                                                                                                                                ",
"                                                                                                                                ",
"                                                                                                                                ",
"                                                                                                                                ",
"                                                                                                                                ",
"                                                                                                                                "
};
