/* XPM */
static char *_bdccd5f1fea4909e794bec175abf26dKvMFhMdkWHi6XCay[] = {
/* columns rows colors chars-per-pixel */
"64 64 209 2 ",
"   c None",
".  c #341B31",
"X  c #361D34",
"o  c #361E34",
"O  c #371E34",
"+  c #371E35",
"@  c #371F35",
"#  c #382036",
"$  c #392137",
"%  c #3A2137",
"&  c #3A2238",
"*  c #3B2339",
"=  c #3D253B",
"-  c #40293E",
";  c #41293F",
":  c #432C41",
">  c #442C42",
",  c #442D42",
"<  c #442D43",
"1  c #452D43",
"2  c #452E44",
"3  c #462E44",
"4  c #462F44",
"5  c #493147",
"6  c #493247",
"7  c #4B344A",
"8  c #4E374C",
"9  c #4E374D",
"0  c #4F374D",
"q  c #4F384D",
"w  c #4F384E",
"e  c #50394E",
"r  c #513A4F",
"t  c #553E53",
"y  c #553E54",
"u  c #563E54",
"i  c #563F54",
"p  c #584156",
"a  c #594257",
"s  c #5A4358",
"d  c #5A4459",
"f  c #5B4459",
"g  c #5C455B",
"h  c #5E495E",
"j  c #60495E",
"k  c #604A5F",
"l  c #614A5F",
"z  c #624C61",
"x  c #644E63",
"c  c #644E64",
"v  c #654E64",
"b  c #654F64",
"n  c #675165",
"m  c #665066",
"M  c #675066",
"N  c #685167",
"B  c #695367",
"V  c #6A5469",
"C  c #6B5469",
"Z  c #6B556A",
"A  c #6C556A",
"S  c #6C566B",
"D  c #6D576C",
"F  c #6E586D",
"G  c #6F596D",
"H  c #6F596E",
"J  c #6F596F",
"K  c #705A6E",
"L  c #705A6F",
"P  c #715B70",
"I  c #725B70",
"U  c #715C70",
"Y  c #735D72",
"T  c #745E74",
"R  c #755F74",
"E  c #755F75",
"W  c #766076",
"Q  c #786276",
"!  c #7D677B",
"~  c #7D687C",
"^  c #7F6A7E",
"/  c #806A7F",
"(  c #816C80",
")  c #806D80",
"_  c #826D81",
"`  c #836D82",
"'  c #846E82",
"]  c #846F83",
"[  c #856F83",
"{  c #847185",
"}  c #867084",
"|  c #877286",
" . c #897387",
".. c #897389",
"X. c #897488",
"o. c #8B768A",
"O. c #8D778D",
"+. c #8B788A",
"@. c #8D788B",
"#. c #8B7A8C",
"$. c #8D788C",
"%. c #8C7A8C",
"&. c #8C7A8D",
"*. c #8F7A8D",
"=. c #8E798F",
"-. c #8F798F",
";. c #907B8F",
":. c #917C8F",
">. c #907A90",
",. c #917C90",
"<. c #907D91",
"1. c #907E91",
"2. c #907F91",
"3. c #927E92",
"4. c #927F92",
"5. c #937E93",
"6. c #947F93",
"7. c #937E94",
"8. c #937F94",
"9. c #928093",
"0. c #938094",
"q. c #958194",
"w. c #968196",
"e. c #978396",
"r. c #968297",
"t. c #968496",
"y. c #988497",
"u. c #978298",
"i. c #988399",
"p. c #998499",
"a. c #9A8599",
"s. c #998699",
"d. c #9B869A",
"f. c #9B879A",
"g. c #9A869B",
"h. c #9B869B",
"j. c #9C879A",
"k. c #9C879B",
"l. c #9B869C",
"z. c #9C879D",
"x. c #9B889B",
"c. c #9C889B",
"v. c #9D889B",
"b. c #9C889C",
"n. c #9D889C",
"m. c #9E899C",
"M. c #9D889E",
"N. c #9D899E",
"B. c #9E899E",
"V. c #9E899F",
"C. c #9F8A9F",
"Z. c #A08C9F",
"A. c #A08BA0",
"S. c #A08DA0",
"D. c #A18DA0",
"F. c #A18CA1",
"G. c #A28DA0",
"H. c #A28DA1",
"J. c #A18EA0",
"K. c #A18EA1",
"L. c #A28EA1",
"P. c #A28FA1",
"I. c #A18DA2",
"U. c #A28DA2",
"Y. c #A28DA3",
"T. c #A38EA3",
"R. c #A38FA4",
"E. c #A48FA4",
"W. c #A290A2",
"Q. c #A490A3",
"!. c #A491A3",
"~. c #A490A4",
"^. c #A591A5",
"/. c #A691A5",
"(. c #A692A5",
"). c #A590A6",
"_. c #A591A6",
"`. c #A691A6",
"'. c #A692A6",
"]. c #A793A6",
"[. c #A793A7",
"{. c #A894A7",
"}. c #A893A8",
"|. c #A894A8",
" X c #A994A8",
".X c #A895A8",
"XX c #A995A8",
"oX c #A995A9",
"OX c #AA95A9",
"+X c #AA96A9",
"@X c #AA96AA",
"#X c #AB97AA",
"$X c #AC97AB",
"%X c #AC98AB",
"&X c #AC99AC",
"*X c #AD99AC",
"=X c #AE99AD",
"-X c #AD9AAC",
";X c #AE9AAD",
":X c #AF9BAD",
">X c #AF9BAE",
",X c #B09CAF",
"<X c #B09CB0",
"1X c #B19DB0",
"2X c #B29EB1",
"3X c #B39FB2",
"4X c #B4A0B3",
"5X c #B4A1B3",
"6X c #B5A1B4",
/* pixels */
"                                                                                                                                ",
"                                                                                                                                ",
"                                                                                                                                ",
"                                                                                                                                ",
"                                                                                                                                ",
"                                                                                                                                ",
"                                                                                                                                ",
"                                                                                                                                ",
"                                                                                                                                ",
"                                                                                                                                ",
"                                                                                                                                ",
"                                                                                                                                ",
"                                                                                                                                ",
"                                                                                                                                ",
"                                                                                                                                ",
"                                                  * * * * * * * * * * * * * *                                                   ",
"                                                7 9 w 9 9 9 9 9 9 9 9 9 9 w 9 7                                                 ",
"                                              1 g J W E E E E E E E E E E W J g 1                                               ",
"                                            @ 1 c ..i.p.u.u.u.u.u.u.u.u.p.i...c 1 @                                             ",
"                                            @ 1 m -.Y.).).).).).).).).).).Y.-.m 1 @                                             ",
"                                            @ 1 c O.Y.).+X+X+X+X+X+X+X+X).Y.O.c 1 @                                             ",
"                                            @ 1 m >.).$X;X;X;X;X;X;X;X;X$X).>.m 1 @                                             ",
"                                            @ 3 V w.%X,X,X;X;X;X;X;X;X,X,X%Xw.V 3 @                                             ",
"                                            @ 3 D p.%X{.Q.).+X;X;X+X).Q.{.%Xp.D 3 @                                             ",
"                                            @ 3 J k.Y. .~ -.).;X;X).-.~  .Y.k.J 3 @                                             ",
"                                            @ 3 L k.w.V a Q Z.1X1XZ.Q a V w.k.L 3 @                                             ",
"                                            @ 3 L k.y.I l ! Y.1X1XY.! l I y.k.L 3 @                                             ",
"                                            @ 3 J v.).6.o.w.{.;X;X{.w.o.6.).v.J 3 @                                             ",
"                                            @ 3 V y.%X%X+X+X%X;X;X%X+X+X%X%Xy.V 3 @                                             ",
"                                            . ; z +.W.;X1X1X;X;X;X;X1X1X;XW.+.z ; .                                             ",
"                                            % 1 h ) t.Q.%X;X%X%X%X%X;X%XQ.t.) h 1 %                                             ",
"                                            t l U { 9.x.Y.Y.Y.Y.Y.Y.Y.Y.x.9.{ U l t                                             ",
"                                        @ r U o.5.8.0.5.5.5.5.5.5.1.1.1.5.0.8.5.o.U r @                                         ",
"                                        5 l o.).}.V.w.5.-.#.-.-.-.-.+.#.5.w.V.}.).o.l 5                                         ",
"                                    : s J ) V.;X+XV.p.p.p.p.p.p.p.p.p.p.p.p.V.+X;XV.) J s :                                     ",
"                                  @ 1 m ;.).+X+X).V.V.).+X+X+X+X{.{.{..X).V.V.).+X+X).;.m 1 @                                   ",
"                                  @ 1 A V.1X,X+XY.z.V.).;X;X;X;X;X;X;X;X).V.z.Y.+X,X1XV.A 1 @                                   ",
"                                  @ 1 A v.1X+XY.V.l.V.).;X;X;X;X;X;X;X;X).V.l.V.Y.+X1Xv.A 1 @                                   ",
"                                  @ 1 m -.p.5.-.8.p.Y.).+X%X;X;X;X;X%X+X).Y.p.8.-.5.p.-.m 1 @                                   ",
"                                      d V A c B / p.).E.R.+X;X1X1X;X+XR.E.).p./ B c A V d                                       ",
"                                        3 1 1 r E V.+XY.V.Y.).+X+X).Y.V.Y.+XV.E r 1 1 3                                         ",
"                                        % ; w c [ Y.;X+XA.5.{ ) ) { 5.A.+X;XY.[ c w ; %                                         ",
"                                        * 9 I 5.Y.+X;X;XY.) l r r l ) Y.;X;X+XY.5.I 9 *                                         ",
"                                        * y [ +X1X;X+XY.5.J 5 @ o 5 J 5.Y.+X;X1X+X[ y *                                         ",
"                                        * y { %X6X;Xp.~ B a         a B ~ p.;X6X%X{ y *                                         ",
"                                        * y [ +X4X;X:.x 3 =         = 3 x :.;X4X+X[ y *                                         ",
"                                        * y [ +X4X;X@.d %             % d @.;X4X+X[ y *                                         ",
"                                                                                                                                ",
"                                                                                                                                ",
"                                                                                                                                ",
"                                                                                                                                ",
"                                                                                                                                ",
"                                                                                                                                ",
"                                                                                                                                ",
"                                                                                                                                ",
"                                                                                                                                ",
"                                                                                                                                ",
"                                                                                                                                ",
"                                                                                                                                ",
"                                                                                                                                ",
"                                                                                                                                ",
"                                                                                                                                ",
"                                                                                                                                ",
"                                                                                                                                "
};
