/* XPM */
static char *result[] = {
/* columns rows colors chars-per-pixel */
"64 64 87 1 ",
"  c #252B45",
". c #282E47",
"X c #272D49",
"o c #292F49",
"O c #2C324D",
"+ c #2E3552",
"@ c #303752",
"# c #323955",
"$ c #343C5B",
"% c #393F5A",
"& c #363F61",
"* c #37405E",
"= c #3A435E",
"- c #374162",
"; c #3B4464",
": c #3E4866",
"> c #3C4768",
", c #3E496A",
"< c #424A64",
"1 c #424D6D",
"2 c #46516D",
"3 c #4A536C",
"4 c #51586F",
"5 c #444F70",
"6 c #465172",
"7 c #4A5574",
"8 c #4D5875",
"9 c #4B5778",
"0 c #4D5A7A",
"q c #525C75",
"w c #525E7D",
"e c #54607E",
"r c #59647D",
"t c #556382",
"y c #596684",
"u c #5C6986",
"i c #5C6B8A",
"p c #626E87",
"a c #616E8C",
"s c #667087",
"d c #63718E",
"f c #6A758E",
"g c #657492",
"h c #697693",
"j c #6B7A95",
"k c #6E7D9A",
"l c #747E94",
"z c #707F9B",
"x c #798297",
"c c #73829D",
"v c #79869E",
"b c #7686A1",
"n c #7987A2",
"m c #7B8AA5",
"M c #7E8EA9",
"N c #80899F",
"B c #808DA5",
"V c #808FA9",
"C c #8393AD",
"Z c #8996AC",
"A c #8696B0",
"S c #8897B2",
"D c #8799B4",
"F c #8B9BB4",
"G c #8F9FB8",
"H c #909FB6",
"J c #909FB8",
"K c #8FA0B9",
"L c #92A0B7",
"P c #99A3B7",
"I c #93A3BB",
"U c #99A7BD",
"Y c #97A8BF",
"T c #9AA8BF",
"R c #9CABC1",
"E c #A0AEC4",
"W c #A3B1C6",
"Q c #A6B4C9",
"! c #A9B6CB",
"~ c #ACB9CD",
"^ c #B0BBCE",
"/ c #AFBCD1",
"( c #B1BED1",
") c #B5C1D4",
"_ c #B8C4D6",
"` c #BAC6D9",
"' c #BEC9DA",
/* pixels */
"=====<157989879962:*O.O+*:7yhbMKMKKAKDKAFLDFAAMche6,;>,,69999999",
"32<3338qwwtwtttteq2*@oo+#:6tdcMMMKDKALDLFDDAACmcde6,,,,,600eette",
"usprpppdgfgdhhhhdue=*..O$>6ticbmMDKKAKLKFLKDCmchu07,,,60tyidhhhh",
"vvvvvvnnmmmmnmBBvcr3*.O@$>,0tdhbMKMKLLDALDDMmchit92,,70tigcbmmmm",
"LFFFFFFFFFFFFFFFCvf4=*++$-,60ydjbMMMMAAADMDMcjit9,,,60tigcmMAFFF",
"EEERRRRRERERRRRJLMcr2=###*-,60ydcMMMMMMMMMmcjat09,,67tigcmCFKITT",
"////~~~!!!(^!QERKCcpq2=*##*-,60idcccccccbccjdt09,,,,9ygcmMCFITWQ",
"`____)))(((((^QRKAbhr82=#++$;,90tiggggchggday09,,>>,0icbMDFKIW!~",
"'```_))``(`(((!EKCmjae6:*+++*=,60tiiiiiiiiyt07,-;&>5wabCFFKIYQ~)",
"_)`)))))((((((WRKDmcdy0,*+O++*;,,t0ttt0tww09,:-*&$;5wgbZKIYYRQ~~",
"~~/~!!!!^!!!!WEJKDbcgy0,*#++++#*,,,000009w,,:**+@$;5tgmSITEQQ!~~",
"WRRRRTRREEERRRUJKMmcgiw6:*#+O++*,,,,,,,,,,,,*+OO+$-1tgmFYW!~~!QQ",
"IRIIIIIIJIIIHJJJDDmcgyt6,-$#+++#;,,,6,,,,9,,=**O+$&1qavCIW~^)!WT",
"KKKKFFFFGGFFHHFHKDmcgtt62:-$+***,,778077997,::==$$$>6yhmFTQ~~!ET",
"KFFFFFDFDDFFFFFJDMmcgit6,,--*=:,0eeeytyet0tweq33<%$-18ulmFTQ!QTI",
"KKKFFFFFFFFFFFFFGMmcgit9,,,,,28tigchchchcccgcsdrq<%$$<9ufmFYTRYI",
"FDDDDSSDDDDDDDDDDMmkgi999,,,9tygkvmMBMMmMMMMMmvfy3=%#*:8yjmFHIJG",
"DDAAAACCMDMDMMDMMMbkgit6,,,ttigbmFFKLKLLLLKKLLCvfq<=#%=:9ujmVZCS",
"MMMMmMmmbMmmMmmmMbcggt066,,9tgcMFIREEEWWTERRIIFCcpq3==#=<0ihcbmm",
"ccckckckckccccckckkgii09,,9tacMDTW~/~~~~~)~!WTKAmxfr3<=*$<8tihjk",
"gggggggggggggggggggiitt66,ttgbMRW~)))))_)))~QTLFCBvjr4=##$,6wtii",
"itiiyyiiiiiigiiiiiiitt06,,9tcmRR~)`''__))_)~QTIFFFCvse<#+@$>17ww",
"tttttttyiiiiiiitititt095,69icMRE^`''_)))))~!WILKFKDMcr:#+++$*:11",
"9,,9,9ttttiiitiiitt0096,,,9ibMRQ)''')~!QE!QETIKKFIFCcr2*+O++#$$=",
",,,699ttttiiiitiitt96,,>>,0icMRQ/_`)~QEUUTIIILKFKKKMcu9-#++oOO+@",
",956,69ttttttttitt06>>>>->9ikmMR!~^~WTILKKLLKFFFDFAmcu9,$++oXOO@",
"09999999ttttttttt095--&&>,,tdcMMTWWETIHFFFFFFFFFAAMmhu9,&+XX.O#=",
"iiiitttt,9999t,t965>&$+$-,,0igcbCZHLHFFFFFFFFFFFACmcdt6,$+XXO#<<",
"kcckkitt9,,,t,,t55-&+++$-->,0ttgjvmMCZFFFFFFFFFDMmcgit,>*Oo.#<4r",
"DMMMmkitt,,,,,>>>-&&+++$-->>,,9tyijcmCCFDDFDDFDMmcgit0,,*@@@=4rx",
"RRRRDMkit,,,>&&&&&&+X+++--->>>,,9tigkbmCMCCMCCMmchit0,,;**==3rxB",
"WQEERDbht,,,&$$+&+X++++$---->->>,60ygkvnmbmmmmmcjit09,,:::2qrxZP",
")(((QESBly4<%OoOOO++++**-------;>16ttahkjkkjkkkgit9,,>>>,tescZPW",
"``'`^QTSNfr<#O  oO+#***:>>>>>>>>,150tiaggggggaaytt,,>>>,5tdvZIW~",
"```((^QUZzr<#X  oO**>,,6,6,6,6125570tiaggggaiiyttt,,&&&>7ihMHE!(",
"/)(((~!WJBs3#.  O+=,7we0eeweee07wttyidghjhggiyt9>,,>&&&>7izCIE!~",
"QQQQQQ^!EZf4%  X+*:0raccccigccecgghhkzzbnbzjat05>>>&&$+&1ylCIRRW",
"RRYYEW^~QHl4%o O*>8ucvcbcbbbmmbbnnnmmMMMVVmcdt75>>>&&++$<rkCFRRR",
"KKKKPW^^^Px4%@O$:6ehvMAFFFDDMKMMSFADAAGGHSVnhi05>,,-$+X$<rkBFKKK",
"DKDDHR^)^PNq<$$<6rdcMAKPYYYYEEQYRRRRRRRRIHDVzat0,,,&++++<qjVDGGG",
"DDDDIR/(^TNr3=>9yhcbALKTE!!!!!!!Q!!!~!QERHFVmzguw71-#O.@=rfMFLDL",
"DKDDIR/(^EBr337yhcMMAKYE!/))))))(((((((QEUJFVmbhiq1-#O.@=qlMFLKD",
"DDDKKR~/~Pvp97wscMFLKITW~))`)))_('`(`_(~QRHJFSVnhy7>$+O@<qlBDKKF",
"KDKDKRQ~!Pzpq9thMALIITE!~/))))))((`((((~QERIJJSVzi01$+O@=rlNFKFL",
"GDFFKIRQTHzy00tkMLTTEWQ!!~!/~~//(^!~!~!!QQWERJFVzdt5;#O@<qkBFKKL",
"GGFFGKIRHClt88tjMKTQ!~!!WEYEYWYQEEREREEQQ!~!ERJVbhy0<#+#=rjBFKFK",
"DGGFFGKKFmhw77tjMFT!!)~!WREMYMRMHJJHJJRRQ~(~!EHAmkiw2*@#<4hmFKKF",
"GGFGFGGGCngw77wfvZIW!~!EYEMRMRRMJFJJFJJUE~~(!EUHMkgt3=@@<4fvCFFK",
"DDGGFGFFVmdw66wacbMYQQWYMYMRMYMYFFZDDFFIRE~/~QRRSbgy2=##=3pcmDDF",
"KKGGFFGDVbaw666yicMKYYRYYMRMKMYMDFDFDDFKKREQQ!QRHmht7=#+*2rfcMCD",
"FGGDFFGDAbdw556ticcMMYYYMRMMMYMYFFZDFFDFMREEQ/~WIVjy3;#@#<qajbMC",
"JGGGGFDAVzaw6550iicbMYMYRMYYYMYMFFFFFFFFMKMRE!~QPVjy3=@O#<8rgcmM",
"GGGGDDSVnji051590iccMMMYMYMYMYMYFFFDFMKFKKYYRQQRIVhy6=@@*=7tajcb",
"JGJJFAVnzdy751599cccMMYMYMYMYMYMZFFFFFKFKMMKRRRRFnhy8=#@*;7tiggc",
"GJJGACmzgiw51,50ticMMYMRMRMYMYMYZFFFFFKKKKKKRRRRVbgt3=@@O=8tidgg",
"DDDDVmzhit71>1590ccMMMKYYMYMRMYMFFFFKKMKMKMKMRMMVzdt6;#O*=,ttiii",
"MMMMmchit61>;>19ecccbMRMFFZFFFFFFFFFFFFZYMYMYMKMbcde3*O*O*,wetiy",
"MmMbcgat75;$$&>8etccMMMKKFFFFDFFFFFFFFFFMYMRMYKMbcde,**OO*:7wett",
"ckkggit95>&$#$;30cccMYMYFFFFFFFFDFFDFFFFYMYMRYMMmcie8=O.OO=,,0tt",
"giaait96>&@+O#-30tccMMYMFFFFFFFFFFFFFFDFMRMYKMKMbcce4:*.O**=,90t",
"ttttt96,*#+oO@=2ecccMMMFFKFFFFFFKFFFFFFFRKMMRMRMmcdt0,**O+**,,00",
"t9009,,*$+..oO=6eitcbMMMMKFKFFKFFFFFFFFFMYYKMRMMmcctw,**+OO*>,,,",
"66662,-#+O  o+=3eiecccbMMFKFHKKFFKFHFKHFKMMKRKRMbcit0,-**O.O**,,",
"666,,;*+O.. o+=7etieccbMMFFKFKFHFFFKFFHFRMRRMKMMmcdit,>-*+*OO*>,"
};
