/* XPM */
static char *_8e993dba5b8467cb98253aceb6281f0SRWomumm9OqQGo26[] = {
/* columns rows colors chars-per-pixel */
"64 64 247 2 ",
"   c #293237",
".  c #1D262C",
"X  c #573C38",
"o  c #483531",
"O  c #66463F",
"+  c #5B433F",
"@  c #2B3547",
"#  c #453E46",
"$  c #3C4351",
"%  c #584B49",
"&  c #57514C",
"*  c #5B4F51",
"=  c #5C5756",
"-  c #434247",
";  c #655858",
":  c #715B58",
">  c #725449",
",  c #5D635B",
"<  c #65625D",
"1  c #7A635A",
"2  c #6B5E63",
"3  c #5F676C",
"4  c #6C6465",
"5  c #6A6768",
"6  c #786966",
"7  c #797578",
"8  c #6A6E77",
"9  c #906F57",
"0  c #87766C",
"q  c #977B68",
"w  c #877B78",
"e  c #977A76",
"r  c #806E68",
"t  c #A77E69",
"y  c #986950",
"u  c #B0865C",
"i  c #98857A",
"p  c #8F8375",
"a  c #B88C68",
"s  c #A68778",
"d  c #B68C78",
"f  c #B99777",
"g  c #B29571",
"h  c #BBA178",
"j  c #CD9D5D",
"k  c #F1B95C",
"l  c #C79A6D",
"z  c #C59A77",
"x  c #D09A73",
"c  c #D7A87A",
"v  c #D0AA71",
"b  c #E8B36D",
"n  c #D7A25E",
"m  c #FAC867",
"M  c #FFD869",
"N  c #F6C47C",
"B  c #FCD775",
"V  c #EAC578",
"C  c #FAE66B",
"Z  c #FCE677",
"A  c #FBFA78",
"S  c #EFC967",
"D  c #687382",
"F  c #7A7885",
"G  c #827D88",
"H  c #7E848B",
"J  c #788397",
"K  c #8C8B8D",
"L  c #86858A",
"P  c #948A8D",
"I  c #968988",
"U  c #99928D",
"Y  c #858B93",
"T  c #8B8C92",
"R  c #8B8D9A",
"E  c #858997",
"W  c #938E93",
"Q  c #958B94",
"!  c #8A9196",
"~  c #949195",
"^  c #9B9294",
"/  c #94939A",
"(  c #9A969A",
")  c #A78B84",
"_  c #B68B85",
"`  c #A99589",
"'  c #B79787",
"]  c #A39493",
"[  c #A99996",
"{  c #B79A97",
"}  c #B0A19A",
"|  c #8B94A6",
" . c #9599A7",
".. c #9299B1",
"X. c #A79AA2",
"o. c #99A5B6",
"O. c #98A0A9",
"+. c #A5A3AB",
"@. c #B8A6A9",
"#. c #A6AAB8",
"$. c #B7AAB8",
"%. c #AAB1BE",
"&. c #BAB6B9",
"*. c #B4B1AD",
"=. c #C59A89",
"-. c #C59B97",
";. c #D19E8B",
":. c #CBA885",
">. c #D3A787",
",. c #C7A599",
"<. c #D7B092",
"1. c #E5B989",
"2. c #E6B998",
"3. c #EEB48E",
"4. c #C7AAA4",
"5. c #C6B9BB",
"6. c #D6BAB8",
"7. c #CFB5AA",
"8. c #EBBFA4",
"9. c #DAC290",
"0. c #EBC587",
"q. c #F9C78A",
"w. c #FBD789",
"e. c #EDC694",
"r. c #FAC894",
"t. c #FBD697",
"y. c #EDD68F",
"u. c #FCE886",
"i. c #FDFD84",
"p. c #FEF989",
"a. c #FDE899",
"s. c #FEFC91",
"d. c #FEFB9B",
"f. c #FEF49A",
"g. c #EBE99C",
"h. c #C8C5BA",
"j. c #D7CBB4",
"k. c #E8C7A8",
"l. c #FACBA7",
"z. c #FBD7A7",
"x. c #E8CBB8",
"c. c #F9D9B8",
"v. c #E8D8B5",
"b. c #FEE9A8",
"n. c #FDFEA4",
"m. c #FEFDAC",
"M. c #FFF4A9",
"N. c #FDE7B6",
"B. c #FEFDBC",
"V. c #FCF8B5",
"C. c #9DADC3",
"Z. c #9CB2C5",
"A. c #A3ADC3",
"S. c #A4ADC8",
"D. c #A5B3C5",
"F. c #ABB5C4",
"G. c #A5B4CC",
"H. c #AAB6CB",
"J. c #ABB9CD",
"K. c #A9B9CA",
"L. c #B4BAC5",
"P. c #B3BCCE",
"I. c #BBBDCA",
"U. c #B7B8C4",
"Y. c #A7B7D1",
"T. c #ABBBD4",
"R. c #AEBED9",
"E. c #A7B8D3",
"W. c #B3BED2",
"Q. c #B1BFDC",
"!. c #B9BFD4",
"~. c #B7AFC5",
"^. c #C3BAC4",
"/. c #BAC2CC",
"(. c #ADC1DB",
"). c #ACC1D6",
"_. c #B4C1D5",
"`. c #BBC3D4",
"'. c #B4C3DD",
"]. c #BBC5DB",
"[. c #BCC9DD",
"{. c #BDC9D5",
"}. c #ACC5E5",
"|. c #B5C4E2",
" X c #BAC6E2",
".X c #BBCBE4",
"XX c #BDCCEA",
"oX c #B6C9E7",
"OX c #BCD1EC",
"+X c #BED1F2",
"@X c #BFCFF0",
"#X c #C4C4CC",
"$X c #CBC4CC",
"%X c #CBC8C9",
"&X c #D6C8C8",
"*X c #DBD5CA",
"=X c #C2C5D4",
"-X c #CCCBD4",
";X c #C2C6DB",
":X c #C3CADD",
">X c #CCCDDB",
",X c #C7C8D6",
"<X c #D4CCD4",
"1X c #D7CCD6",
"2X c #CED3DB",
"3X c #CBD4DA",
"4X c #D4D2D5",
"5X c #D4D1DB",
"6X c #DBD6D9",
"7X c #E5CCC8",
"8X c #EAD6C7",
"9X c #E5D8D7",
"0X c #EED5C6",
"qX c #FCEBC7",
"wX c #FEFDC4",
"eX c #FEF4CC",
"rX c #FFFCCB",
"tX c #FEF5C5",
"yX c #E7E5DC",
"uX c #FCECD6",
"iX c #FEFDD5",
"pX c #FEFEDB",
"aX c #F8F5D5",
"sX c #E7E4C9",
"dX c #C3CCE3",
"fX c #CACDE2",
"gX c #C2CDEB",
"hX c #C7C8E4",
"jX c #C4D1E4",
"kX c #CBD3E4",
"lX c #C3D2EC",
"zX c #CBD4EB",
"xX c #CADAE7",
"cX c #D3D8E8",
"vX c #C0CEF1",
"bX c #C5D3F2",
"nX c #C4D3F3",
"mX c #C9D6F4",
"MX c #C8DAF7",
"NX c #D0CDE3",
"BX c #E2DDE2",
"VX c #FEFEE4",
"CX c #FFFEEC",
"ZX c #FBF4E9",
"AX c #FEFEF3",
"SX c #FDFDFD",
"DX c #EAE4E2",
/* pixels */
"|.|.|.|.Q.R.R.R.'.'.'.|.|.|.R.Q.Q.'.'.'.|.|.|.|.|.XX|.(.oX.X'..X XgXgXgXbXnXbXMXbXbXbXbXnXmXmXmXmXmXnXnXnXnXnXbXnXnXnXnXnXnXnXnX",
"|.|.|.'.R.R.R.R.Q.Q.Q.Q.Q.Q.R.Q.Q.'.'.'.|.|.|.|.|.oX|.|..X.X'.'.].gXXXXXvXbXgXlXbXbXbXbXbXnXmXmXbXbXnXbXbXbXbXbXbXbXbXbXvXvXvXvX",
"|.|.|.'.Q.Q.R.R.R.R.R.Q.Q.Q.Q.Q.'.].'.'.|.|.|.|.|.|. X|.'..X'.G.Q.dXgX XgXmXlXgXlXlXlXlXbXbXbXbXlXlXbXbXbXgXgXgXvXvXXXXXXXXXXXXX",
"|.|.|.'.Q.Q.R.R.Q.Q.Q.'.|.|.|.|.].].'.'.|.|.|.|.|.'.|.'.'. XW.o.S. XgX XgXbXbXgXOXlXlXlXbXbXgXgXXXXXXXXXXXXXXXXXXXXXXXXXoXoXoXoX",
"|.'.'.Q.'.'.'.'.'.'.'.'.|.|.|.|.].]. X X|.|.|.|. XR.Q.'.'.].J.| o.Q.gX X XXXXXXXXXXXXXgXgXgXgXXXXXXXXXXXXXXXXXXXoXoXoXoXoXoXoX|.",
"|.|.'.'.|.|.|.|.|.|.|.|.|.|.|.|.].]. X X|.|.|.|. XQ.R.Q.'.W.#.| ..W.dXdX.X.X.XXXXXXXXXXXXXXX.X.X X.X.X.X.X.XoXoXoXoXoXoXoX|.|.|.",
"|.|.|.|.|.|.|.|.|.|.|.|.|.|.|.'. X X X X'.'.'.'.|.'.W.!.`.F...| | A.`.[.dX X.XXX.XXXXXXXXX.X X X|.|.|.|.|.|.|.|.|.|.|.|.|.|.|.|.",
"|.|.|.|.|.|.|.|.|.|.|.|.|.|.|.'. X X X X'.'.'.'.'.].!.!.!.#.|  .E ..A.W. X X'..X.X.XXXXX.X.X X|.'.'.'.'.|.|.|.|.|.|.|.|.|.|.|.|.",
"'.'.|.|.|.'.'.'.'.|.|.|.|.|.'.'.].'.'.'.'.'.'.'.].J.[.P.#.E / R H R R #._.jX'.|..X.X.X X X X'.'.R.R.Q.'.'.'.'.'.Q.'.|.|.|.|.|.|.",
"'.'.'.'.'.'.'.'.'.|.|.|.'.'.'.'.'.].'.'.'.'.'.'.'._.:X#.E F R  .F E E o.P.dX_.'.|.|.|.|.'.'.'.'.R.R.R.R.Q.'.'.'.Q.'.|.|.|.|.|.|.",
"'.'.'.'.'.'.'.|.'.'.'.|.'.'.'.'.'.'.'.'.'.'.'.'.].`.!. .E L / T Y / Y  .#._.W.'.'.'.'.'.'.'.'.Q.'.R.R.R.R.R.Q.'.'.'.Q.|.|.|.|.|.",
"'.'.'.'.'.'.'.|.'.'.|.|.|.'.'.'.'.'.'.'.'.'.'.'.].`.F.R R /  .T / / Y !  .J.W.'.Q.'.'.'.Q.W.Q.R.'.R.R.T.T.T.R.R.R.R.R.Q.|.|.|.Q.",
"R.R.'.'.'.'.'.|.'.'.|.|.|.|.|.|.'.'.'.'.Q.Q.'._.`.`.%.L F L / T K K H !  .P.W.W.R.R.R.R.R.R.R.R.R.R.T.T.T.T.T.T.R.R.R.R.Q.Q.Q.R.",
"R.R.R.R.'.'.'.|.'.'.|. X.X.X.X.X X X'.'.Q.W._._.`.`.F.R / K L 7 K K W +.#.P.P.H.T.T.R.R.R.R.T.T.R.T.T.Y.Y.Y.T.T.T.T.T.T.R.R.R.R.",
"R.R.R.R.R.'.'.'.'.'.'..X.X.X.X.X X X X'._.W._.].`.`.L.#.&. .L 7 / ~ O.L.F.P.H.H.H.Y.T.T.T.T.J.J.T.T.Y.G.Y.Y.Y.T.E.E.E.E.T.T.T.T.",
"(.(.R.T.R.'.'.'.'.'.'..X.X.XXXXXXXXX X'.'.!.].].P.`.:XI.U./ P ( K K  .I.%.F.K.W.G.G.G.H.H.H.G.G.G.Y.G.Y.Y.Y.Y.Y.Y.Y.Y.Y.E.E.E.E.",
"}.}.}.(.(.'.'.'.'.]..X.X.X.XXXXXXXXXXX[.`._.].[._._._.`.I./ ~ / ~ ~ +.F.J.D.G.G.G.G.H.H.H.H.G.G.G.G.G.G.G.G.G.G.T.Y.Y.Y.T.T.T.T.",
"}.}.}.}.(.'.'.'.].[..X.X.X.XOXOXXX.X.X[.].].[.[.[.[.'.`.`./ ~ / ~ ~ +.F.H.G.G.G.G.D.F.F.F.H.H.G.G.G.G.G.G.G.G.G.T.Y.Y.Y.T.T.T.T.",
"oXoXoX X|. X.X[.[.[.[..X.XXX.X.XoX X].[.[.:X:X:XdX.X[.[.`. ./ ( ( ~ +.F.H.G.G.G.G.D.F.F.F.K.K.J.G.G.G.G.G.G.E.T.T.E.Y.T.R.R.T.T.",
"XXXXXX.X.X.XdXdX[.].].[.[..X.X.X X X'.].[.:X:X:XjXjXdX:X`. .~ ( ( ( +.F.J.H.T.J.H.H.H.J.J.J.J.J.J.J.G.G.J.J.T.R.R.T.T.R.'.'.R.T.",
"dXdXdXdXdXjXzXzX.X[.].].].[.[.[..X X'.].[.:X[.[.jXdX:X:X=X .~ ^ ^ ~ +.L.P.J.T.T.T.P.P.P.P.J.J.J.T.J.J.J.T.T.R.R.R.R.R.'.|.'.R.T.",
"fXfXjXjXjXzXmXMXOX.X'.'.].].].[..X.X[.].].].].`. X[.[.`././ W ^ W ~ +.U.P.W.W.T._.W.W.P.P.P.T.T.T.J.J.J.T.T.R.R.'.'.|..X.X|.'.R.",
"zXkXzXzXzXmXMXMXnXXX|.'.].].].[..X.X.X[.].`.`.]. X[.`.`.^.~ P U P W +.L.`._._._._.W.W.P.W.P.W.T.T.T.T.T.R.R.'.'.'.'.XXXXXX|.'.R.",
"zXzXzXmXbXnXMXMXMX+X.X|.'.].[.[..XXXdX:X].`.`.].[.].`.`.^.Q P I P P +.I.`._._.W.W.P.P.P.W.W.W.W.R.R.R.R.'.'.'.'.'..XlXlXXX|.'.'.",
"zXzXmXmXnXnX+X+XMXnXXXXX.X X]. XdX X[.].].].].`.[.`.`.=X&.[ I ] U ^ X.#X`._.J._._.W.P.P.P.W.W._.'.'.'.'.[..X.X.XXXOXlXlXXX.X'.R.",
"gXgXlXbXlX@X+X+X+XOXlXlXlXlXdXXXdX:X;X].].].`.`.[.].`.I.$.[ I ] ] U X.I.L._._.].W.W.P.P.W.W._._.'.'.'.[..XXXOXOXlXlXlXlXOX.X|.'.",
"oXXXXXXXoX.XXXXX.XXXlXlXlXlXXX.XdXdX:X;X;X].].`.`.W.`.#X^.[ ` [ [ [ @.#XI.`.W.W.W.W.P.P.W._.'.'.].[.[..XXXlXlXlXzXzXzXzXlXXX.X.X",
"XXXXoX X'.].].].[.:XjXjXjXjXjXjXjXfX:X:X:X;X;X].[.`.`.=X&.w : : : 6 ^ ^.U.`.`.W.W.P.I.P.`.`.].[..X.X.X.XjXlXlXlXzXlXlXlXXXXXXX.X",
"oXoXoX'.'.`.`.=X=X=X=X=X=X:XjXkXzXkXfX:X:X:X:X;XfX`.=X-X&.; o o o % L ^.U.!.`.!.`.`.`.`.`.].[. XXX.X.X.XjXlXlXlXlXlXXXXX.X.X.X.X",
"oXoX|.].`.=X$X$X%X%X%X-X,X{.=XkXcXzXkXfXfX:XdX:XfX`.=X5X^.; X X % * P -XI.I.`.`.`.`.`.`.`.[.[..XjXXXXXXXjXlXlXXXXX.X.X|.|.'.'.'.",
"oXoX.X[.,X-X&X&X5.5.%X9XBX4X2XcXcXcXkXkXfXfXdX:XfX:X,X$X5.* + X + X w $XI.`.:X:X:X:X=X=X:X[.dX.XjXXX.X.XXX.XXX.X.X|.|.'.'.(.R.R.",
"OXOXlXjX>X>X<X*Xi I } &X9X-X,XcXcXcXkXkX>XfX:X:X`.:X>X$X5.6 : > : % w 5X,X=X:X[.:X:X:X:X:X:XdXdXXX.X.X.X.X[..X'.'.'.'.'.'.R.R.R.",
"lXmXzXbXmXzXkXBX@.@.7.8X9X4XxXxXjXkXfX:X,X>XfX:X>XkX,X$X5.e _ ' ' I ] <X2XkXzX XhXdXdXhXhXhXhXdX.X.X.X[.[.[.'.'.'.'.R.T.T.T.T.E.",
"jXlXbXMXMXzXfX5X@.4.4.7X9X4XkXxXlXjX:X,X>X5X>X,XcXcX>X<X^.I _ ' ' ) ] 4X2XkXzXdXdXdXhX;X:X:XdX X[.[.[.[.[.'.'.'.'.).T.T.E.E.E.Y.",
"dXjXzXbXMXzXfX$X} 4.,.6.9X4X:X.XjX:X:X,X>X>X-X,XcXcX5X6X^.) _ =.' ) ] 1X5X>XkXzXfX:X:X:X:X:X:X[.[.[.[.[.'.'.'.'.'.R.T.T.E.E.Y.Y.",
"zXzXlXlXlXzX>X5.{ 4.,.,.9X<X`.[.[.`.`.,X,X$X$X-X5X6X1X1X6._ _ -.=.) ` &X1X>XfXkXkX>X,X-X>X3X3X:XjXjX[.[.'.'.'.'.'.R.R.R.T.T.T.E.",
"zXhXgXgXgXkX^.[ ' ,.=.{ 9X1X;XdX].`.=X,X#X#X-X4X1X9X1X&X4._ =.;.=._ ) 6.1X5X>XkX2X>X2X4X2X3X3XxXjXjX:X[.'._.'.'.'._.R.R.R.R.R.T.",
"hX XgXgXdX>X&.e s =.' _ 7X$X>XdX`.:X>X,X$X4X6XDX9XDX7X6.-._ z <.;.' s 4.&X1X1X>X>X2X4X3X2X3X3XxXxXjX.X[.`._._.'._._.(.(.'.'.R.T.",
"].Q. X X].,X*.0 9 f =.d 7X$X>XhX;XfX>X-X4XDXZXZXZXZX0X7._ z x 3.>.=.d ,.6.7X1X<X<X-X2X2X2X3X2XkXkXjX[.`._._._._.T.T.T.R.R.R.R.T.",
" XQ.'.Q.W.>X&.0 9 f :.=.7X$XNX;X>X5X>X$X6XZXAXAXCXCX0X<.a x x 3.c c a ,.7.7X&X$X<X-X>X2XkXkXkXjXkX:X[._.P.P.T.T.T.J.T.T.R.R.T.T.",
"'.R.E.)._./.*.0 > :.k.f j.5.>X`.>X-X-X4XyXAXAXCXZXVXx.z l l j b c c a :.7.6.7X1X$X5X>X=X:XfXhXdXkX_.jX[.J._.`.P._.K.G.T._.T.T.'.",
"'.(.T.).J.L.*.p 9 :.l.=.x.h.-X>X$X&X4X6XDXAXAXCXCXVXk.f v 0.N w.w.t.c <.2.x.7X7X1X5X5X,XfXfXhXhXfX`.:X`.F.P.P.J.J.T.T.J.T.'._.T.",
"(.(.T.).J./.&.i q >.c.f x.5.^.#X%X*X9XyXZXAXAXAXCXVXk.z 0.b.f.f.a.M.0.1.2.k.0X7X9X4X-X>XNXfXhXfX:X`.{./.%.P.J._._._.T.T.W.W._.'.",
"T.T.E.T.J.L.*.p s <.qXz x.j.h.%X*X8XaXVXCXAXAXAXCXZXv.9.b.m.f.f.a.a.V 0.e.k.x.7X*X6X4X-X5X>X>XNX:X{.{.J.o.F.K./.F.J.J.G.G.G.J.J.",
"J.G.G.G.D.%.[ 1 9 z l.u <.7.h.h.v.qXeXpXVXAXAXAXSXAXuXqXtXV.a.u.u.B b q.z.l.x.0X8XyXyX4X%X%X$X$X/.`.{./.o.F.D.F.D.J.J.D.D.J.J.D.",
"D.D.Z.G.D.#.[ 1 t 2.l.a <.j.j.j.N.N.tXiXVXAXSXSXSXSXAXVXiXV.g.f.Z B b t.b.z.c.qXuXVXaX*X&Xh.5.&.L.K.`.{.O.P.W.P._...| D.'.J.D.T.",
"%.A.C.G.F.~.@.e =.l.l.x 2.k.j.v.V.V.wXiXVXAXSXSXSXSXSXAXVXwXV.n.u.u.V a.N.N.qXaXiXpXaXsXsX8Xj.&X#XL././.E F.[.`.`.8 $ D C.C.o.H.",
"A.D.A.G.A.$.@.s 2.c.l.1.z.N.aXpXtXB.B.wXiXVXAXSXSXSXSXAXVXVXpXrXf.f.y.M.N.N.rXiXpXiXaXaXVXpXaXZXBX/./.F.8 o._.P.[.D . @ J `.'.C.",
"Z.Z.G.J.~.^.4.s >.r.z.t.N.tXiXpXpXiXB.V.B.wXpXVXCXCXVXVXCXAXSXSXtXV.V.V.tXrXrXpXiXpXpXaXpXVXVXVXZXh.-X#.@ J '.G.`.8     | _.H.G.",
"o.C.o.A.$.$.4.d c r.t.t.V.wXrXpXVXiXV.n.n.m.wXrXiXrXwXwXpXCXSXSXCXiXiXpXpXiXpXpXiXiXaXeXeXeXeXqXuXuX9XX.$ J T.G.D.8     ! J.G.S.",
"Z.K.A.F.~.$.4.=.c e.t.a.V.wXwXiXiXwXn.s.i.s.n.m.B.V.m.m.B.iXAXSXSXAXAXAXCXCXVXVXpXiXeXqXN.N.N.N.k.0X0X} # F P.F./.8 . . J J.G.C.",
"..D.o. .$.@.{ ' >.e.t.a.M.V.B.wXB.m.s.A A i.s.d.n.n.d.d.n.B.pXAXSXSXSXSXSXAXCXVXpXeXqXN.z.t.t.z.z.l.c.4.o 2 #X#.#.8   $ J D.S.G.",
"D E F F Q X.{ d >.e.t.a.m.m.m.B.m.n.i.A A A i.s.d.s.p.p.d.m.rXVXSXSXSXSXSXAXCXVXiXeXN.z.r.q.q.t.t.3.2.<.> 0 5.@.&.= .   H F.A.S.",
"7 L 7 8 P @.4.d g 1.y.a.n.m.m.m.n.d.i.A A A i.i.s.p.p.p.s.n.B.iXCXAXAXCXCXVXVXpXeXtXN.z.r.q.q.r.q.3.3.k.7.,.@.[ %X5 . - L P.H.A.",
"L K F G X.5.7.s t c 0.y.f.n.n.n.n.s.A A A A i.p.p.p.A A p.f.M.B.rXiXiXrXtXrXrXrXtXN.z.1.c 1.r.r.r.3.3.2.x.4.e w I 6 4 G / L.F.F.",
"7 7 8 G X.5.-.9 q z 1.0.a.M.d.d.d.p.Z C C A A p.Z Z C C Z u.a.M.M.B.B.V.N.N.B.tXN.N.2.f a >.2.l.x t u q q q 6 6 < % o & 7 $.%.o.",
"& & & ; I { e O > a 1.0.w.a.a.a.f.u.Z M M C C B M m m m m m w.w.t.a.y.V 9.y.z.z.9.:.g s q s s d t 9 9 q 0 1 6 w I 7 ; 4 G ( W F ",
"& & % & ; 4 > X y t z x 1.r.t.a.a.w.B B M M B B m m k k k k N q.0.b j a a l h g h f s i p i i i s s i I I p L P ( P L L P ( / ~ ",
"w w w w 7 6 0 e t _ z d z c 1.1.r.0.0.V N N N N b b b n n n v c c a u a z f f ' ` ` ` U ^ ^ W P I U ^ U W ~ ~ ~ K W W P L L L K ",
"5 5 5 4 ; = 4 w { -.=.' =.z z :.z f f z z z l l z l l l l z z >.>.=.=.,.,.{ ' { ] ] ^ ~ ~ W T T L P W T Y ! ! Y T T K K P K K L ",
"4 4 4 = = & = ; r 0 e e ) ) d ' ` ` ` ` ' ' ' ' ' ' ' ' ` ` ' ' { -.-.,.{ [ [ [ ] ^ ^ W T T T T T T T ! Y Y Y T R L L L W W K L ",
"4 4 4 < 4 5 5 ; = ; ; : 6 r r 0 p p I I U ] [ [ [ [ [ [ [ ] ] ] [ { [ ` ] [ [ ] ] ^ ( ( / ~ / / / T Y Y Y H Y Y L G G G G L L H ",
"; ; ; < 5 5 5 5 5 8 5 2 4 4 ; < & & = ; : 4 6 6 0 w I I ] ] [ } } } [ ] ] ] ] U P U ^ ( ~ W W T W T L Y Y H Y Y E E E E L H H Y ",
"; ; ; < < , , 5 < 5 5 2 2 2 = = ; ; ; * * * * ; % % ; : : 4 6 6 0 p U ] [ [ ] [ ^ ^ ^ ^ ( ^ ~ Q Q W T Y Y Y ! Y R E E R R Y L Y "
};
