/* XPM */
static char *result[] = {
/* columns rows colors chars-per-pixel */
"64 64 23 1 ",
"  c #0C3F0F",
". c #190F20",
"X c #6D1823",
"o c #0F5314",
"O c #116116",
"+ c #393F41",
"@ c #3B4040",
"# c #3A4041",
"$ c #3A4042",
"% c #5B5168",
"& c #C1350F",
"* c #C2360F",
"= c #D64F5D",
"- c #67940F",
"; c #63AD45",
": c #7EC262",
"> c #85BF13",
", c #D48A19",
"< c #CEB7B9",
"1 c #C9B8BD",
"2 c #EFECEC",
"3 c #F8F8F8",
"4 c None",
/* pixels */
"4444444444444444444444444444444444444444444444444444444444444444",
"4444444444444444444444444444444444444444444444444444444444444444",
"4444444444444444444444444444444444444444444444444444444444444444",
"4444444444444444444444444444444444444444444444444444444444444444",
"44444444444444444444444444444==XXXXXX444444444444444444444444444",
"4444444444444444444444444444==XXXXXXXX44444444444444444444444444",
"444444444444444444444444444==XXXX....XX4444444444444444444444444",
"44444444444444444444444444===XXXXXX...XX444444444444444444444444",
"4444444444444444444444444===XXXXXXXX...XX44444444444444444444444",
"4444444444444444444444444=.=XXXX.XXXX.XXX44444444444444444444444",
"444444444444&444444444444=.==XXX..XX..##X44444444444444444444444",
"4444444444444,44444444444=..==X...X...##X44444444444444444444444",
"4444444444444444444444444=........XX...#X44444444444444444444444",
"4444444444444444444444444=........XXX..#X44444444444444444444444",
"444444444444444*44444444==........XXX...444444444444444444444444",
"44444444444444,444444444=..22.22...XXX..444444444444444444444444",
"444444444444444444444444=...........XX...44444444444444444444444",
"444444444444444444444444=...........XX...44444444444444444444444",
"44444444444444*444444444=...........XX...44444444444444444444444",
"4444444444444*#44444444===.........XXX....4444444444444444444444",
"4444444444444+**4444444==X........XXX.....4444444444444444444444",
"4444444444444*,,*44444.==XX......XXXX..XX..444444444444444444444",
"444444444444$3,**444@=..==XX....XXXX...XXXX444444444444444444444",
"444444444444*,3**444===..=XX...XXXX...XXXXXX44444444444444444444",
"444444444444**3**44.=XXX..XX.X.XXXX..XXXXXXXX4444444444444444444",
"4444444444444***44...=XXX..X.XX.XX..XX.XXXXXX4444444444444444444",
"44444444444444##4.....=XXXX..XX.X..XXX..XXXXXX444444444444444444",
"4444444444444<2<.==XX.XXXXXX.XX.XXXXXX..XXXXXX444444444444444444",
"4444444444444<22<===XX.XXXXX.XX.XXXXXXX.....XX444444444444444444",
"4444444444444<222%%=XX.XXXXXXXX.XXXXXX....XX.XX44444444444444444",
"4444444444444#11%..XXX.XXXXXXXXXXXXXX..XX..XXXX44444444444444444",
"4444444444444444X..XXX.X.XXXXXXXXXX...XXXX.XXXX44444444444444444",
"4444444444444444X..XXX.X..XXXXXXXX.XXXXXXX.XXXX44444444444444444",
"4444444444444444X..XXXXXX.X.XXXXX.XXXXXXXXXXXX.44444444444444444",
"4444444444444444X..XX.XX..X.XXXX1111%.XXXXXXX..44444444444444444",
"4444444444444444X..XX.XX..X.XXX22221%.XXXXXX...44444444444444444",
"4444444444444444X.XXX.XX.X..XX 1222 ;.XXXXX....44444444444444444",
"4444444444444444X.XX..XX.X.XXX X<1<.;.XXXX....444444444444444444",
"4444444444444444X.XX..XXXX.X.. XX...;.XXXX....444444444444444444",
"4444444444444444$.XX...XXXX.XXX X..;..XXX.....444444444444444444",
"44444444444444444X.X...XX.X.X.XX  ;...XX.....4444444444444444444",
"44444444444444444X.X......X.X.XXX ...XX......4444444444444444444",
"44444444444444444X.XX....XXXX.XXoO:..XX......4444444444444444444",
"44444444444444444X44X..XXXXXX.XoOOO:.X......44444444444444444444",
"44444444444444444X44X4..XXXX.XXo>-O:........44444444444444444444",
"44444444444444444X44X4...XXX.XXo>-O:........44444444444444444444",
"44444444444444444X44X44..XX..XXo>-O:........44444444444444444444",
"44444444444444444X44X44..XX...XoOOO:...4....44444444444444444444",
"44444444444444444X444444.XX.X.X.oO:....44...44444444444444444444",
"44444444444444444X444444.XX...X.X......444..44444444444444444444",
"444444444444444444444444..X.X.X.X......444..44444444444444444444",
"444444444444444444444444..X.X.X.X....4.444..44444444444444444444",
"4444444444444444444444444.XXX.X.X..4.4.444..44444444444444444444",
"44444444444444444444444444.XX.X#X..4444444.444444444444444444444",
"44444444444444444444444444..X.X#X..4444444.444444444444444444444",
"444444444444444444444444444.X.XXX#.444444..444444444444444444444",
"444444444444444444444444444....XX#.444444.4444444444444444444444",
"4444444444444444444444444444..44XX444444444444444444444444444444",
"44444444444444444444444444444444#X444444444444444444444444444444",
"44444444444444444444444444444444X4444444444444444444444444444444",
"4444444444444444444444444444444444444444444444444444444444444444",
"4444444444444444444444444444444444444444444444444444444444444444",
"4444444444444444444444444444444444444444444444444444444444444444",
"4444444444444444444444444444444444444444444444444444444444444444"
};
