/* XPM */
static char *e6a6535232d04833e1856f125f1d3f08tdg17TAYiUmeKag8[] = {
/* columns rows colors chars-per-pixel */
"64 64 255 2 ",
"   c #3C6729",
".  c #3B752A",
"X  c #3C6932",
"o  c #3A7D38",
"O  c #3F5E34",
"+  c #4F6F15",
"@  c #757B12",
"#  c #436C2B",
"$  c #47772A",
"%  c #436C32",
"&  c #466A37",
"*  c #4A7835",
"=  c #517735",
"-  c #557526",
";  c #657827",
":  c #6B782E",
">  c #527347",
",  c #907A15",
"<  c #388333",
"1  c #74871B",
"2  c #49852D",
"3  c #5B8A29",
"4  c #4B8637",
"5  c #548B3A",
"6  c #598938",
"7  c #5B943D",
"8  c #549339",
"9  c #5F932F",
"0  c #688A28",
"q  c #758B25",
"w  c #6A932C",
"e  c #77932A",
"r  c #688935",
"t  c #788B38",
"y  c #649334",
"u  c #6B9434",
"i  c #64953B",
"p  c #6A993C",
"a  c #759438",
"s  c #7CA33C",
"d  c #5C8D44",
"f  c #568744",
"g  c #5C9443",
"h  c #5A964A",
"j  c #5D9B4B",
"k  c #589745",
"l  c #5A9953",
"z  c #558B4F",
"x  c #668C44",
"c  c #639A43",
"v  c #699A44",
"b  c #6B964C",
"n  c #659748",
"m  c #759A45",
"M  c #68885B",
"N  c #699856",
"B  c #749954",
"V  c #728D56",
"C  c #5AA04B",
"Z  c #67A159",
"A  c #75A758",
"S  c #6CA145",
"D  c #789869",
"F  c #7C9B74",
"G  c #749066",
"H  c #7BA867",
"J  c #75AC6C",
"K  c #848F19",
"L  c #AA9215",
"P  c #859729",
"I  c #96952B",
"U  c #879938",
"Y  c #939933",
"T  c #89892E",
"R  c #A89824",
"E  c #A69B36",
"W  c #BA9722",
"Q  c #87A338",
"!  c #9AA437",
"~  c #ABA82C",
"^  c #A9AB34",
"/  c #B4AC34",
"(  c #D48E07",
")  c #D99709",
"_  c #D79914",
"`  c #C89811",
"'  c #E49607",
"]  c #E09A14",
"[  c #CAA312",
"{  c #D8A713",
"}  c #E7A718",
"|  c #EEB214",
" . c #C79B28",
".. c #D49C21",
"X. c #C9A628",
"o. c #D0AD2F",
"O. c #E8B626",
"+. c #E8B735",
"@. c #F5BB30",
"#. c #D0C433",
"$. c #EEC62C",
"%. c #F3C32B",
"&. c #FDC52E",
"*. c #E8C738",
"=. c #F7C938",
"-. c #ECD43F",
";. c #FDD438",
":. c #F7D02D",
">. c #869B44",
",. c #919753",
"<. c #B19944",
"1. c #88A943",
"2. c #9CA946",
"3. c #99B656",
"4. c #8DAD4F",
"5. c #B8B847",
"6. c #AEB04B",
"7. c #889C6E",
"8. c #85A667",
"9. c #87A577",
"0. c #8BB776",
"q. c #94AD79",
"w. c #ADB667",
"e. c #D0B44C",
"r. c #E6BA48",
"t. c #E5BE57",
"y. c #D0BA6C",
"u. c #E2BB67",
"i. c #B7C65A",
"p. c #B4C954",
"a. c #94C673",
"s. c #8DC574",
"d. c #B9C968",
"f. c #ABCF72",
"g. c #C7C649",
"h. c #D9C84A",
"j. c #C8C759",
"k. c #D7CB57",
"l. c #D9D356",
"z. c #D5D351",
"x. c #E8C845",
"c. c #F5CC44",
"v. c #FCCD4C",
"b. c #F7C947",
"n. c #E9D348",
"m. c #FED344",
"M. c #FED44B",
"N. c #F8D84A",
"B. c #E7CA57",
"V. c #F6CA55",
"C. c #E8D758",
"Z. c #FED653",
"A. c #FEDB52",
"S. c #F7D858",
"D. c #FEE948",
"F. c #FDE555",
"G. c #ECE058",
"H. c #C5CC65",
"J. c #DCCA68",
"K. c #D8D467",
"L. c #D6D576",
"P. c #CDD172",
"I. c #E2CB6A",
"U. c #E4D766",
"Y. c #FBD865",
"T. c #EAD676",
"R. c #E8CF7C",
"E. c #D0E87C",
"W. c #FDE368",
"Q. c #F6E273",
"!. c #8DAB86",
"~. c #97AB8D",
"^. c #97B587",
"/. c #99B795",
"(. c #A6B69A",
"). c #A1BC8A",
"_. c #AABCA2",
"`. c #9BC790",
"'. c #A6CA89",
"]. c #B7D799",
"[. c #ACD191",
"{. c #B6E69A",
"}. c #B6CAA8",
"|. c #B6D7A4",
" X c #B6D0B0",
".X c #B9E6A5",
"XX c #BAEAAD",
"oX c #CBDA8A",
"OX c #E3C587",
"+X c #F5D696",
"@X c #EED88E",
"#X c #C2EA9E",
"$X c #D5F396",
"%X c #FAE88C",
"&X c #F5E797",
"*X c #D4DDAF",
"=X c #ECDBA5",
"-X c #F1DDAD",
";X c #C2EAA9",
":X c #C8F5AA",
">X c #C7E8B7",
",X c #D3E9B8",
"<X c #C9F5B8",
"1X c #D3F7BA",
"2X c #D9EDA8",
"3X c #EBE4A5",
"4X c #F8E9A9",
"5X c #FDECB9",
"6X c #FDF6B7",
"7X c #ECECB5",
"8X c #D2D9C7",
"9X c #CAE9C4",
"0X c #D5ECC7",
"qX c #D9F4C6",
"wX c #D9EFD1",
"eX c #E8E8C4",
"rX c #FFFDC3",
"tX c #FFFBCC",
"yX c #FAF5C6",
"uX c #E8E7D7",
"iX c #E3F9DB",
"pX c #FEFCD4",
"aX c #FEFEDD",
"sX c #F8F8D9",
"dX c #F5EECB",
"fX c #EBFFE4",
"gX c #EFFEED",
"hX c #E9F8E4",
"jX c #FDF5E1",
"kX c #FEFDE4",
"lX c #FEF5EB",
"zX c #F4FFEC",
"xX c #FEFDEC",
"cX c #F4FAE5",
"vX c #EDFBF5",
"bX c #F5FEF3",
"nX c #FDFEF4",
"mX c #FEF6FC",
"MX c #F5FEFC",
"NX c #FFFAFF",
"BX c #FBFFFF",
"VX c #F9FFFE",
"CX c #FFFFFD",
"ZX c #FEFFFD",
"AX c #FFFDFF",
"SX c #FFFCFF",
"DX c #FCFFFF",
"FX c #FFFEFF",
"GX c #FEFFFF",
"HX c white",
"JX c #FEFEFF",
"KX c #FDFDFD",
"LX c #FEFEFD",
"PX c #F9F6F7",
"IX c #EBE8E4",
/* pixels */
"HXHXHXHXHXHXHXHXHXHXHXHXHXHXHXHXHXHXHXHXnXnXHXHXHXCXnXnXCXHXHXHXCXCXCXCXCXCXHXHXHXHXHXHXHXHXHXHXHXHXHXHXHXHXHXHXHXHXHXHXHXHXHXHX",
"HXHXHXHXHXHXHXHXHXHXHXHXHXHXHXHXHXHXHXHXnXCXHXHXHXCXnXnXCXHXHXHXHXCXHXHXHXHXHXHXHXHXHXHXHXHXHXHXHXHXHXHXHXHXHXHXHXHXHXHXHXHXHXHX",
"HXHXHXHXHXHXHXHXHXHXHXHXHXHXHXHXHXHXHXHXnXCXHXHXHXHXCXCXCXHXHXHXHXHXHXHXHXHXHXHXHXHXHXHXHXHXHXHXHXHXHXHXHXHXHXHXHXHXHXHXHXHXHXHX",
"HXHXHXHXHXHXHXHXHXHXHXHXHXHXHXHXHXHXHXCXCXCXCXHXHXHXHXHXHXHXHXHXHXHXHXHXHXHXHXHXHXHXHXHXHXHXHXHXHXHXHXHXHXHXHXHXHXHXHXHXHXHXHXHX",
"HXHXHXHXHXHXHXHXHXHXHXHXHXHXHXHXHXHXCXCXCXCXCXCXHXHXBXBXHXHXCXHXHXHXHXHXHXHXHXHXHXHXHXHXHXHXHXHXHXHXHXHXHXHXHXHXHXHXHXHXHXHXHXHX",
"HXHXHXHXHXHXHXHXHXHXHXHXHXHXHXHXHXCXCXCXHXHXnXCXHXHXHXBXHXHXCXCXHXHXHXHXHXHXHXHXHXHXCXCXCXCXCXCXHXHXHXHXHXHXHXHXHXHXHXHXHXHXHXHX",
"HXHXHXHXHXHXHXHXHXHXHXHXHXHXHXHXHXHXCXCXHXHXnXnXHXHXHXHXBXBXLXnXHXHXHXCXCXCXCXCXCXCXCXCXnXnXCXCXHXHXHXHXHXHXHXHXHXHXHXHXHXHXHXHX",
"HXHXHXHXHXHXHXHXHXHXHXHXHXHXHXHXHXHXCXCXHXBXCXCXHXHXHXHXHXHXLXnXCXCXCXCXnXnXCXnXCXCXCXCXCXCXCXCXHXHXHXHXHXHXHXHXHXHXHXHXHXHXHXHX",
"HXHXHXHXHXHXHXHXHXHXHXHXHXHXHXHXHXHXHXHXBXBXCXCXHXHXmXHXHXPXBXbXCXCXCXnXCXCXCXCXCXnXCXHXHXNXHXHXmXHXHXCXHXHXPXHXHXHXHXHXHXHXHXHX",
"HXHXHXHXHXHXHXHXHXHXHXHXHXHXHXHXHXHXHXBXBXBXCXCXNXNXnXlXHXHXvXHXNXHXHXHXCXnXbXCXHXHXHXNXNXHXHXHXHXHXHXPXHXHXHXHXHXHXHXHXHXHXHXHX",
"HXHXHXHXHXHXHXHXHXHXHXHXHXHXHXHXHXHXHXBXBXBXHXHXNXPXaXaXnXHXHXHXHXNXNXHXHXHXHXHXVXBXHXHXNXHXHXHXHXCXCXCXHXHXHXmXHXHXHXHXHXHXHXHX",
"HXHXHXHXHXHXHXHXHXHXHXHXHXHXHXHXHXHXHXBXBXBXCXHXNXlX5XrXkXPXHXPXHXNXNXHXHXLXMXvXMXMXBXBXBXBXBXVXLXCXCXCXHXCXHXHXHXHXHXHXHXHXHXHX",
"HXHXHXHXHXHXHXHXHXHXHXHXHXHXHXHXHXHXHXBXLXLXCXCXmXkX@X%XaXnXHXNXNXHXHXHXMXbXMXbXbXgXbXbXbXgXbXbXCXCXnXCXCXnXHXHXHXHXHXHXHXHXHXHX",
"HXHXHXHXHXHXHXHXHXHXHXHXHXHXHXHXHXHXHXBXnXnXCXCXmXdXK.K.5XnXmXHXHXHXPXLXbXzXzXfX X!.G D /.9XfXzXhXCXnXnXHXCXHXCXHXHXHXHXHXHXHXHX",
"HXHXHXHXHXHXHXHXHXHXHXHXHXHXHXHXCXCXHXLXnXxXnXCXlX=Xh.h.=XlXCXNXHXbXbXbXwX}.^.F % % * * * 6 B 9.(.zXCXnXHXCXHXCXHXHXHXHXHXHXHXHX",
"HXHXCXHXHXHXHXHXHXHXHXHXHXHXHXHXCXCXHXCXnXnXnXCXlXtXk.U.tXnXCXCXnXnXnXzX(.> & # f * $ $ 2 5 2   > 8XnXCXHXNXHXHXHXHXHXHXHXHXHXHX",
"HXCXnXCXHXHXHXCXHXHXHXCXHXHXHXHXCXnXnXHXHXHXHXCXnXaX3X4XlXmXCXnXxXnXBXBX8XM = $ h N $ $ C k 2 $ ^.zXnXCXHXmXNXHXHXBXBXBXHXHXHXHX",
"HXCXnXCXHXHXCXnXHXHXCXCXHXHXHXHXnXnXCXHXHXNXHXmXnXxXyXpXCXNXCXxXkXxXMXBXCX}.b 3 g N 7 c j 5 + 8.cXnXbXCXNXNXHXmXHXBXBXBXBXHXHXHX",
"HXHXnXHXHXHXCXCXHXHXCXCXHXHXHXHXCXCXNXNXHXNXHXHXNXnXaXaXHXHXCXxXsXkXBXBXBXsXd.P 0 x 5 n t : T 3XxXbXHXHXmXmXHXmXHXHXBXBXBXHXHXHX",
"HXHXHXHXHXHXCXCXHXHXCXCXHXHXHXCXnXxXsXlXCXHXHXHXHXCXxXxXHXHXCXkXeXsXHXHXvXaXL.5.d.w.>.>.<.e.u.+XnXHXHXCXCXnXnXnXnXCXBXBXHXHXHXHX",
"HXHXHXHXHXHXCXCXHXHXCXnXHXHXHXnXaXrX@X3XkXnXnXxXnXnXHXNXNXHXnXsX*XyXlXmXnXpXe.t.e.J.T.B.V.b.r.@XnXHXHXnXnXxXjXxXnXnXHXHXHXHXCXCX",
"HXHXHXHXHXHXHXHXHXHXCXCXHXHXHXnXkX6XP.L.yXxXkXkXaXkXCXNXNXCXxXkXyXtXjXxXnXkXy.E E , , L X.b.L y.xXNXCXnXxXjXkXxXnXnXHXHXHXHXCXnX",
"HXHXHXHXHXHXHXHXHXHXHXHXHXHXHXCXmXdXL.L.yXaXtXrXrXyXxXxXsXpXtXpXpXkXkXxXbXgX[.i r ; @ Y ^ j.! >.sXCXnXxXxXsXjXxXnXCXHXHXHXHXCXCX",
"HXHXHXHXHXCXHXHXHXHXHXHXHXHXHXHXmXlX-X4XtX6X@XR.I.R.4X5X&X@XR.OX@X5XtXaXzX9XJ Z n B 3.3.0 1.P.; 7.kXxXkXxXeX8XxXnXCXHXHXHXHXHXHX",
"NXHXHXHXCXCXHXHXHXHXHXHXHXHXnXmXmXmXdXtX&XC.#.N.N.S.B.x.n.S.S.Y.Y.I.R.6X7X8.i v d B A 6 b u p.i.; ,.pXsXkXuXuXCXCXCXCXHXHXHXHXHX",
"HXHXHXCXCXCXHXHXPXHXHXNXnXxXxXxXlXlXjXyXB.-.D.;.=.N.N.=.$.$.b.Z.b.S.J.P.w.m u p b b 6 v b r P H.d.r = ,XsXxXbXnXCXHXCXCXHXHXHXHX",
"HXHXCXnXCXHXHXCXCXHXNXNXkXaXaXyXrX6XtX4Xh.D.D.$.c.v.Z.M.=.m.M.b.o.C.L.>.t x m 6 d b w a a m r a f.f.4.= >XgXgXBXBXHXCXCXHXHXHXHX",
"HXHXnXnXCXHXHXCXnXnXmXnXtX6X=X@XT.T.%XT.n.F.m.c.v.Z.Y.v.@.=.A.v.x.g.1.A x B d b N m d.j.2.a a u 0 s p = & 9XbXMXLXCXCXHXHXHXHXHX",
"HXHXnXnXHXHXCXxXsXjXnXjX@XI.J.I.h.C.S.C.N.F.Z.W.v.b.Y.S.%.%.=.*.B.! y 5 N l l k n 0 g.n./ 1 t p p y p n f M 9XgXbXCXCXHXHXHXHXBX",
"HXHXnXxXHXHXnXlX7XsXxXdXI.Y.Q.Y.n.n.S.S.*.N.V.r.r.+.V.Y.+.[ [ X.I U u s.N h 7 y 1.5.n.*.n.k.i.3.9 8 c n d X 9.fXbXnXCXHXHXHXHXHX",
"HXHXxXxXHXHXnXsX7XtXjX5Xk.F.F.n.S.n.B.Y.*.x.V.B.x.V.Y.B. .W X./ t 0 Q $Xa.3 Q g.h.N.N.n.n.C.z.p.u g g k j d % |.zXnXHXHXHXHXHXLX",
"HXHXnXnXHXHXnXjXdXaXjX5Xe.#.o./ ~ ^ ^ 5.~ / B.Q.%X%X%X@XT.%XI.I a u P E.4.w g.n.m.+.X.R R / p.P 3 n k k k j * M zXnXHXHXHXHXBXBX",
"HXLXLXBXHXHXCXnXnXnXsX5XE ~ Y U s s m m U Y 5.4XyXsXsXjXpXrXy.@ q 0 0 1.v a z.*.=.X.@ 0 u 0 3 u i c g j j j 5 * }.nXHXHXCXLXMXBX",
"CXCXBXBXHXHXCXCXBXHXkX4X6.! r 6 6 8 8 5 r : 2.4XuXIXIXuXeX3Xj.e.i.6.P q r >.z.-.m.o.P u p i c n c v g k h k 5 $ q.nXHXNXCXnXVXVX",
"CXCXHXBXHXHXCXLXMXLXkXoX2.U r 6 7 7 5 5 B 8.w.7XuXIXsX7XL.U.C.G.l.U.B./ t 0 ^ h.b.V.j.6.! e x g c c n h l h 7 = > iXHXNXCXnXBXMX",
"CXHXHXHXHXHXCXLXgXhXaX].U U B A N A A H ].yXpXaXnXcX*XP.T.W.n.-.N.S.S.B.! 0 e ! h.B.U.l.C.g.2.u i 7 l l l l 7 2 % 0XBXNXHXnXLXbX",
"NXHXCXCXHXHXLXbX/.F q.8.t m A Z Z N d b [.qX2X].(.7.w.J.S.F.m.=.c.*.A.C.^ e y y e ! H.l.N.;.n.g.a 5 l l l l 7 2    XVXHXHXmXCXnX",
"NXHXnXnXHXHXLXgX!.M 9.'.'.f.s.J H H H N B 8.8.8.).].L.h.A.m.&.;.=.=.A.x.I 0 c g i 3 u P X.:.;.h.2.7 C k l j 7 4 # `.MXVXHXCXCXnX",
"NXHXnXnXHXHXbXfXF 0.'.,X1X:X.X{.0.8.H 0.[..X;X:X1X2XK.W ..@.=.@.=.=.O.[ K w c C j h l y K #.=.N.w.y c 8 C k 7 6 # !.MXVXBXCXCXCX",
"NXHXnXnXHXHXbXiXD .XXX|.'.8.A J a.'.{.[.^.0.'.;X{.$XK.W _ ) ) } ) ] ( ` ! e 0 y y y i 0 1 #.=.c.5.0 u 9 c k 8 2 % 9.MXVXMXLXNXNX",
"NXNXnXnXHXHXbX9XH 0.8.8.q.)..XXX:X{.0.N `.9.N N '.2Xj.X._ ( ) ) ' ' )  .I K 5.o./ ~ ~ o.x.c.=.V.Y 0 e Q u p 2 4 # !.bXLXbXMXHXNX",
"HXBXnXnXNXPX8XG B a.].>XqXqX>XXX:Xa.g `.>X>XH * V oXU.X.) ' ] ' ' ' ] X.I Y k.S.n.n.b.x.V.C.r.R q w P 5.q y 7 < X ~.nXnXbXBXHXNX",
"MXBXnXnXHXHXwXG b '.1X,X*X,X;X<X].H J <X`.H x r ; w.B.[ ( } ) ( ' ' (  .Y U 5.5.k.h.S.B.i.Q U r i w ~ U.6.0 2 < X (.xXxXnXBXBXHX",
"BXBXLXnXNXHXcXq.0..X1X>X,X,X,XXX|.D J `.|..X].t T j.C.O.{ ) _ O.} } ] X.Y 0 e q 1 K g.K.p.3 d N g 1.k.C.K.1.< < X  XxXlXnXBXNXBX",
"VXBXLXCXNXHXcX^.'.:X>X>X*X].;X;XXXF z f x 4.E.K.K.C.*.:.;.&.@.m.m.M.M.x.^ q 3 i v a p.i.3.u v 7 8 s j.k.H.a . o X >XnXlXCXHXNXHX",
"BXMXLXHXHXHXxX^.H XX<X>X).V '.1X>XD > J [.oXK.z.C.S.c.;.m.@.=.M.m.A.A.S.z.! y C h 6 y 0 w y v k k 9 P K.U + . o > wXnXCXHXHXNXHX",
"BXMXLXNXNXmXkX9.N {.9XqX|.q.[.;X:X'.h d B d.C.n.S.b.=.=.M.m.%.%.;.=.$.c.S./ 3 8 b x n v v i g k h v 0 2.- # f X G sXnXBXBXHXNXNX",
"LXCXHXHXHXPXzX9.N [.XX>X>X1X<X{.{.#X[.A r 2.C.F.A.b.Z.M.Z.A.%.;.N.&.O.=.M./ 0 7 6 x d 5 6 g k k g 5 - 3 $ = * % 9.cXLXBXBXHXNXNX",
"CXCXCXHXHXnXzXiX^.q.qX>X.X:X.X.X.XXX:X#XoXP.C.F.A.Z.v.v.S.M.%.:.;.&.=.@.o.R + 6 6 f f f 5 5 4 4 $ $ $ $ * = & O ~.zXnXLXHXNXNXmX",
"HXCXCXHXCXnXbXcX}.9.|..X<X<X;XXX.X[.0.V t 2.k.W.c.M.v.+.b.A.$.{ | } } ..X.I + - . % * * = * $ . 4 * .   X > > > }.zXbXnXHXmXNXNX",
"HXHXHXHXBXLXnXbXfX7.D ^.>X|.^.H M M F }.,X3XR.B.b.O.O.=.A.m.O.{ { _ .. .e.<.; - % X % X           & z F `.9XiXzXhXnXLXCXHXNXHXHX",
"HXHXHXHXHXBXLXnXfX~.G G 9.M F ^.>XiXLXCXnXjX-Xu.Y.b.Z.M.b.r.o. .W o.e.<.y.6XyXqX>XXX X}.}.}.|. X0XwXfXzXzXzXbXbXnXLXCXHXHXHXNXHX",
"HXHXHXHXHXHXBXLXnX X~._.8XwXfXzXzXbXBXPXNXmXsX+Xu.t.t.t.u.+X+XOXOXy.OX5XaXkXcXbXMXMXMXMXbXbXbXbXzXnXnXCXnXnXLXnXLXPXHXHXLXHXHXHX",
"NXHXHXHXHXHXHXHXLXzXhXnXbXbXbXbXbXbXNXHXHXmXnXaXrX+X+X4XyXpXjXjXaXaXjXjXxXnXHXBXVXVXBXHXHXHXBXBXHXHXHXHXHXHXHXHXLXLXHXHXLXHXHXBX",
"HXHXHXHXHXHXHXHXPXLXCXCXbXLXMXBXLXBXBXVXBXHXnXjXaXaXkXxXlXmXNXNXnXxXnXnXmXNXHXMXBXHXHXNXNXNXHXHXNXNXHXHXHXNXNXHXHXHXHXHXHXHXHXBX",
"HXHXHXHXHXHXHXHXHXPXCXPXHXHXHXBXBXBXBXBXLXnXnXnXnXnXCXNXHXHXHXHXHXCXHXHXHXHXHXHXHXHXHXHXHXHXHXHXNXNXHXHXHXHXHXHXNXHXPXBXHXHXHXHX",
"CXCXHXHXHXHXHXHXHXHXCXHXHXHXHXHXHXBXBXLXbXzXzXnXnXLXHXBXBXBXLXBXHXHXHXHXHXHXHXHXHXHXHXHXHXHXHXHXHXHXHXHXHXHXHXHXHXHXHXHXHXHXHXHX",
"CXCXCXHXHXHXHXHXHXHXCXHXHXHXHXHXNXHXHXLXnXxXnXnXLXBXBXBXLXLXnXLXHXHXHXHXHXHXHXHXHXHXHXHXHXHXHXHXCXCXCXCXHXHXHXHXHXHXHXHXHXHXHXHX",
"nXnXCXCXHXHXHXHXHXCXCXHXHXHXHXNXNXNXHXHXCXCXCXHXHXHXCXCXCXnXCXHXHXNXHXHXHXHXNXNXNXHXHXBXBXBXBXBXLXLXLXLXLXCXCXHXHXHXHXHXHXHXHXHX",
"nXnXCXCXHXHXHXHXHXCXCXCXHXHXHXNXNXNXNXHXHXHXHXHXHXHXHXCXCXCXHXHXNXNXHXHXHXHXHXNXNXHXHXBXBXBXHXCXLXLXLXLXLXCXCXHXHXHXHXHXHXHXHXHX",
"nXnXCXHXHXHXHXHXHXCXCXCXHXHXHXHXNXNXHXHXHXHXHXNXNXNXHXHXHXHXNXNXHXCXCXLXLXCXnXnXCXCXnXnXnXnXCXCXLXLXLXLXLXHXHXHXHXHXHXHXHXHXHXHX",
"CXCXHXHXHXHXHXHXHXCXCXCXHXHXHXHXHXHXHXCXHXHXHXNXNXNXHXHXHXHXNXHXHXnXnXnXnXnXnXCXCXCXCXLXMXLXCXCXHXHXHXHXHXHXHXHXHXHXHXHXHXHXHXHX",
"CXHXHXHXHXHXHXHXHXHXCXCXHXHXHXHXHXHXLXnXnXLXBXHXHXHXCXnXnXCXBXHXHXCXLXVXVXBXHXNXNXHXHXBXVXBXHXNXHXHXHXHXHXHXHXHXHXHXHXHXHXCXHXCX",
"HXHXHXHXHXHXHXHXHXHXCXCXHXHXHXHXBXBXnXbXbXbXBXHXHXHXCXnXnXnXBXBXHXHXBXVXVXBXHXNXNXHXHXBXVXBXNXNXNXNXHXHXHXHXHXHXHXHXHXHXCXCXCXCX"
};
